<?xml version="1.0" encoding="utf-8"?>
<!-- Generator: Adobe Illustrator 24.0.1, SVG Export Plug-In . SVG Version: 6.00 Build 0)  -->
<svg version="1.1" id="Layer_1" xmlns="http://www.w3.org/2000/svg" xmlns:xlink="http://www.w3.org/1999/xlink" x="0px" y="0px"
	 viewBox="0 0 152.27 52.98" style="enable-background:new 0 0 152.27 52.98;" xml:space="preserve">
<style type="text/css">
	.st0{opacity:0.6;fill:url(#SVGID_3_);}
	.st1{fill:none;stroke:#FFFFFF;stroke-miterlimit:10;}
	.st2{fill:#00B4D0;}
	.st3{opacity:0.7;}
	.st4{fill:#381460;}
	.st5{fill:#F7FCFC;}
	.st6{opacity:0.1;fill:#FFFFFF;}
	.st7{fill:#FFFFFF;}
	.st8{opacity:0.5;fill:#FFFFFF;}
	.st9{opacity:0.1;}
	.st10{fill-rule:evenodd;clip-rule:evenodd;fill:#381460;}
	.st11{fill-rule:evenodd;clip-rule:evenodd;fill:#FFFFFF;}
	.st12{opacity:0.6;}
	.st13{fill:#58595B;}
	.st14{clip-path:url(#SVGID_9_);}
	.st15{opacity:0.95;}
	.st16{fill:none;stroke:#381460;stroke-width:3;stroke-miterlimit:10;}
	.st17{fill:none;stroke:#00B4D0;stroke-miterlimit:10;}
</style>
<g>
	<path class="st2" d="M51.07,51.43v-47h-6.94l-1.52,5.01l-1.42-1.16C36.7,4.59,31.02,2.56,25.21,2.56C11.31,2.56,0,13.87,0,27.77
		c0,13.9,11.31,25.21,25.21,25.21c2.98,0,5.88-0.51,8.65-1.53l-6.41-6.44c-0.75,0.1-1.5,0.15-2.23,0.15
		c-9.59,0-17.38-7.8-17.38-17.38s7.8-17.38,17.38-17.38c8.96,0,16.4,6.71,17.29,15.61l0.1,13.88L31.87,29.14h5.35v-7.13H19.48v17.54
		h7.13v-5.59l17.47,17.47H51.07z"/>
	<g>
		<path class="st7" d="M83.25,4.72v17.58h-3.49l-0.66-2.34c-1.36,1.75-3.42,2.73-6.08,2.73c-4.93,0-8.35-3.74-8.35-9.16
			c0-5.42,3.49-9.19,8.49-9.19c2.59,0,4.58,0.94,5.91,2.69l0.7-2.31H83.25z M78.71,13.52c0-2.8-1.99-4.86-4.72-4.86
			c-2.69,0-4.54,2.06-4.54,4.86c0,2.83,1.82,4.86,4.54,4.86C76.68,18.38,78.71,16.35,78.71,13.52z"/>
		<path class="st7" d="M104.95,22.29h-3.77l-0.63-2.76c-1.15,1.99-3.32,3.14-6.05,3.14c-4.09,0-6.67-2.76-6.67-7.27V4.72h4.68v9.71
			c0,2.59,1.19,3.88,3.43,3.88c2.66,0,4.33-1.78,4.33-4.33V4.72h4.68V22.29z"/>
		<path class="st7" d="M122.67,21.6c0,0-1.85,1.08-5.03,1.08c-4.58,0-6.78-2.24-6.78-6.85V8.74h-3.15V5.24
			c2.62-0.17,3.98-1.92,4.16-5.24h3.67v4.72h5.94v4.02h-5.94v6.78c0,2.2,0.7,2.94,2.69,2.97c1.82,0.04,2.97-0.91,2.97-0.91
			L122.67,21.6z"/>
		<path class="st7" d="M123.72,13.52c0-5.28,4.05-9.16,9.61-9.16c5.63,0,9.57,3.74,9.57,9.16c0,5.24-4.05,9.12-9.57,9.12
			C127.7,22.64,123.72,18.84,123.72,13.52z M138.15,13.52c0-2.94-1.92-4.86-4.82-4.86c-2.83,0-4.82,1.99-4.82,4.86
			c0,2.83,1.96,4.82,4.82,4.82C136.16,18.35,138.15,16.32,138.15,13.52z"/>
		<path class="st7" d="M71.97,33.75h6.01v4.02h-6.01v13.56h-4.68V37.77h-3.15v-4.02h3.15v-1.89c0-4.3,2.59-6.92,6.92-6.92
			c3.25,0,5.1,1.64,5.1,1.64l-1.57,3.6c0,0-1.15-1.15-2.87-1.15c-1.89,0-2.9,1.05-2.9,2.97V33.75z"/>
		<path class="st7" d="M96.81,44.02H83.64c0.42,2.31,1.92,3.53,4.4,3.53c1.89,0,3.15-0.66,3.84-2.03l4.16,1.89
			c-1.78,2.9-4.44,4.26-8.11,4.26c-5.28,0-9.05-3.88-9.05-9.19c0-5.28,3.88-9.09,9.33-9.09c5.17,0,8.67,3.74,8.67,9.23
			C96.88,43.32,96.81,44.02,96.81,44.02z M92.3,40.56c-0.17-1.92-1.75-3.21-4.12-3.21c-2.41,0-3.95,1.08-4.47,3.21H92.3z"/>
		<path class="st7" d="M113.48,50.63c0,0-1.85,1.08-5.03,1.08c-4.58,0-6.78-2.24-6.78-6.85v-7.09h-3.14v-3.49
			c2.62-0.17,3.98-1.92,4.16-5.24h3.67v4.72h5.94v4.02h-5.94v6.78c0,2.2,0.7,2.94,2.69,2.97c1.82,0.04,2.97-0.91,2.97-0.91
			L113.48,50.63z"/>
		<path class="st7" d="M114.53,42.48c0-5.17,3.95-9.12,9.33-9.12c3.56,0,6.43,1.78,8.04,4.89l-4.3,1.68
			c-0.77-1.4-2.1-2.24-3.74-2.24c-2.69,0-4.54,2.03-4.54,4.75c0,2.87,1.82,4.86,4.37,4.86c1.96,0,3.28-0.84,4.12-2.41l4.26,1.71
			c-1.68,3.32-4.54,5.1-8.49,5.1C118.41,51.71,114.53,47.83,114.53,42.48z"/>
		<path class="st7" d="M135.04,25.33h4.68v10.45c1.19-1.57,3.22-2.41,5.73-2.41c4.16,0,6.81,2.83,6.81,7.27v10.69h-4.68v-9.71
			c0-2.55-1.26-3.91-3.56-3.91c-2.52,0-4.3,1.82-4.3,4.33v9.3h-4.68V25.33z"/>
	</g>
</g>
</svg>
