<?xml version="1.0" encoding="utf-8"?>

<!-- Generator: Adobe Illustrator 24.0.1, SVG Export Plug-In . SVG Version: 6.00 Build 0)  -->

<svg version="1.1" id="Layer_1" xmlns="http://www.w3.org/2000/svg" xmlns:xlink="http://www.w3.org/1999/xlink" x="0px" y="0px"

	 viewBox="0 0 407.24 25.26" style="enable-background:new 0 0 407.24 25.26;" xml:space="preserve">

<style type="text/css">

	.st0{opacity:0.6;fill:url(#SVGID_3_);}

	.st1{fill:#ffffff;}

	.st2{fill:#FFFFFF;}

	.st3{fill:#ffffff;}

	.st4{opacity:0.5;fill:#FFFFFF;}

	.st5{clip-path:url(#SVGID_5_);}

	.st6{opacity:0.95;}

	.st7{fill:none;stroke:#381460;stroke-width:3;stroke-miterlimit:10;}

	.st8{fill:none;stroke:#00B4D0;stroke-miterlimit:10;}

	.st9{fill:none;stroke:#FFFFFF;stroke-miterlimit:10;}

	.st10{fill:#F7FCFC;}

	.st11{opacity:0.1;fill:#FFFFFF;}

	.st12{opacity:0.1;}

	.st13{fill-rule:evenodd;clip-rule:evenodd;fill:#381460;}

	.st14{fill-rule:evenodd;clip-rule:evenodd;fill:#FFFFFF;}

	.st15{fill:#C60A25;}

	.st16{fill:none;stroke:#381460;stroke-width:2;stroke-miterlimit:10;}

</style>

<g>

	<g>

		<path class="st1" d="M20.57,8.94h2.06l-4.9,14.81h-1.91L12.33,12.2l-0.24-1.55H12l-0.24,1.55l-3.4,11.56H6.45L1.43,8.94h2.09

			l3.64,11.74l0.24,1.55h0.09l0.27-1.55l3.46-11.74h1.7l3.52,11.74l0.24,1.55h0.09l0.24-1.55L20.57,8.94z"/>

		<path class="st1" d="M36.55,16.95l-11.62,0.03c0.24,3.4,2.09,5.49,4.99,5.49c2.03,0,3.52-0.87,4.48-2.63l1.49,0.72

			c-1.31,2.3-3.34,3.46-6.06,3.46c-1.97,0-3.61-0.72-4.9-2.18C23.65,20.38,23,18.53,23,16.29c0-2.21,0.66-4.03,1.97-5.46

			c1.34-1.43,3.02-2.15,5.08-2.15c1.97,0,3.55,0.69,4.75,2.09c1.22,1.37,1.82,3.2,1.82,5.46L36.55,16.95z M34.7,15.48

			c-0.09-3.29-1.85-5.29-4.69-5.29c-2.9,0-4.81,2-5.05,5.32L34.7,15.48z"/>

		<path class="st1" d="M59.91,8.82v14.93h-3.28V11.39h-6.45v12.36h-3.28V11.39h-2.57V9.9l2.57-0.81V7.48c0-3.91,2.24-6.27,5.91-6.27

			c1.7,0,3.4,0.69,4.09,1.25l0.51,0.42l-1.37,2.45c-0.03,0-0.96-1.22-2.84-1.22c-1.94,0-3.02,1.25-3.02,3.46v1.25H59.91z"/>

		<path class="st1" d="M63.5,23.76V8.82h1.88l0.9,3.52h0.12c0.87-2.45,2.72-3.85,5.02-3.85c3.34,0,5.46,2.42,5.46,6.27v8.99h-3.29

			v-8.69c0-2.45-1.11-3.76-3.05-3.76c-2.24,0-3.76,1.91-3.76,4.42v8.03H63.5z"/>

		<path class="st1" d="M91.78,14.35v9.41h-1.73l-0.99-3.25h-0.15c-0.75,2.27-2.6,3.55-4.96,3.55c-3.13,0-5.02-1.73-5.02-4.75

			c0-2.96,2-4.63,5.46-4.63c1.64,0,3.02,0.51,4.15,1.55v-1.61c0-2.33-1.05-3.49-3.17-3.49c-2.45,0.03-4.09,1.43-4.12,1.43l-1.52-2.3

			c0.12-0.09,0.24-0.21,0.99-0.6c0.99-0.54,2.63-1.17,4.87-1.17C89.39,8.5,91.78,10.8,91.78,14.35z M88.55,17.63

			c-1.08-0.51-2.15-0.78-3.26-0.78c-2.06,0-3.02,0.72-3.02,2.39c0,1.64,0.87,2.33,2.81,2.33s3.46-1.49,3.46-3.32V17.63z"/>

		<path class="st1" d="M95.01,23.76V8.82h1.88l0.9,3.52h0.12c0.87-2.45,2.72-3.85,5.02-3.85c3.34,0,5.46,2.42,5.46,6.27v8.99h-3.28

			v-8.69c0-2.45-1.11-3.76-3.05-3.76c-2.24,0-3.76,1.91-3.76,4.42v8.03H95.01z"/>

		<path class="st1" d="M110.6,16.2c0-4.33,3.11-7.7,7.35-7.7c2.75,0,5.02,1.46,6.3,4l-2.9,1.16c-0.75-1.61-1.88-2.42-3.4-2.42

			c-2.54,0-4,1.79-4,4.93c0,3.25,1.4,5.14,3.82,5.14c1.7,0,2.96-0.9,3.76-2.66l2.84,1.22c-1.34,2.78-3.55,4.18-6.63,4.18

			C113.64,24.05,110.6,20.74,110.6,16.2z"/>

		<path class="st1" d="M139.36,17.27h-10.87c0.27,2.75,1.67,4.3,4.03,4.3c1.67,0,2.93-0.75,3.73-2.27l2.48,1.19

			c-1.37,2.36-3.49,3.55-6.36,3.55c-2.06,0-3.76-0.75-5.11-2.21c-1.34-1.49-2.03-3.38-2.03-5.64c0-4.39,3.11-7.7,7.35-7.7

			c2.06,0,3.7,0.72,4.96,2.15c1.25,1.4,1.88,3.29,1.88,5.58L139.36,17.27z M136.25,15.01c-0.09-2.6-1.46-4.03-3.7-4.03

			c-2.3,0-3.7,1.43-4.03,4.06L136.25,15.01z"/>

		<path class="st1" d="M189.12,8.94h2.06l-4.9,14.81h-1.91l-3.49-11.56l-0.24-1.55h-0.09l-0.24,1.55l-3.4,11.56h-1.91l-5.02-14.81

			h2.09l3.64,11.74l0.24,1.55h0.09l0.27-1.55l3.46-11.74h1.7L185,20.68l0.24,1.55h0.09l0.24-1.55L189.12,8.94z"/>

		<path class="st1" d="M205.1,16.95l-11.62,0.03c0.24,3.4,2.09,5.49,4.99,5.49c2.03,0,3.52-0.87,4.48-2.63l1.49,0.72

			c-1.31,2.3-3.34,3.46-6.06,3.46c-1.97,0-3.61-0.72-4.9-2.18c-1.29-1.46-1.94-3.31-1.94-5.55c0-2.21,0.66-4.03,1.97-5.46

			c1.34-1.43,3.02-2.15,5.08-2.15c1.97,0,3.55,0.69,4.75,2.09c1.22,1.37,1.82,3.2,1.82,5.46L205.1,16.95z M203.25,15.48

			c-0.09-3.29-1.85-5.29-4.69-5.29c-2.9,0-4.81,2-5.05,5.32L203.25,15.48z"/>

		<path class="st1" d="M228.45,8.82v14.93h-3.29V11.39h-6.45v12.36h-3.28V11.39h-2.57V9.9l2.57-0.81V7.48

			c0-3.91,2.24-6.27,5.91-6.27c1.7,0,3.4,0.69,4.09,1.25l0.51,0.42l-1.37,2.45c-0.03,0-0.96-1.22-2.84-1.22

			c-1.94,0-3.02,1.25-3.02,3.46v1.25H228.45z"/>

		<path class="st1" d="M232.04,23.76V8.82h1.88l0.9,3.52h0.12c0.87-2.45,2.72-3.85,5.02-3.85c3.34,0,5.46,2.42,5.46,6.27v8.99h-3.29

			v-8.69c0-2.45-1.1-3.76-3.04-3.76c-2.24,0-3.76,1.91-3.76,4.42v8.03H232.04z"/>

		<path class="st1" d="M259.01,1.51h3.28v22.25h-1.79l-0.99-3.85h-0.18c-0.84,2.63-2.69,4.15-5.08,4.15c-1.91,0-3.49-0.72-4.75-2.18

			c-1.22-1.46-1.85-3.31-1.85-5.58c0-2.24,0.63-4.12,1.91-5.58c1.28-1.46,2.87-2.21,4.75-2.21c2.48,0,4.27,1.61,5.11,4.36h0.18

			l-0.6-4.15V1.51z M259.1,16.29c0-3.02-1.64-5.05-4.12-5.05c-2.51,0-3.97,1.82-3.97,5.05c0,3.2,1.46,5.05,3.97,5.05

			C257.46,21.34,259.1,19.31,259.1,16.29z"/>

		<path class="st1" d="M315.28,8.82h3.38l-4.87,14.93h-3.05l-2.75-9.88l-0.27-2.21h-0.15l-0.3,2.21l-2.57,9.88h-3.08l-4.99-14.93

			h3.43l2.84,10.03l0.33,2.36h0.12l0.33-2.36l2.66-10.03h2.69l2.69,10.03l0.3,2.36h0.15l0.33-2.36L315.28,8.82z"/>

		<path class="st1" d="M332.52,17.27h-10.87c0.27,2.75,1.67,4.3,4.03,4.3c1.67,0,2.93-0.75,3.73-2.27l2.48,1.19

			c-1.37,2.36-3.49,3.55-6.36,3.55c-2.06,0-3.76-0.75-5.11-2.21c-1.34-1.49-2.03-3.38-2.03-5.64c0-4.39,3.11-7.7,7.35-7.7

			c2.06,0,3.7,0.72,4.96,2.15c1.25,1.4,1.88,3.29,1.88,5.58L332.52,17.27z M329.41,15.01c-0.09-2.6-1.46-4.03-3.7-4.03

			c-2.3,0-3.7,1.43-4.03,4.06L329.41,15.01z"/>

		<path class="st1" d="M345.9,8.82h4.96v2.57h-4.96v12.36h-3.28V11.39h-2.57V9.9l2.57-0.81v-2.3c0-3.46,2.03-5.58,5.29-5.58

			c1.52,0,2.96,0.48,3.52,0.93l0.42,0.3l-1.08,2.39c0,0-0.99-0.99-2.45-0.99c-1.58,0-2.42,1.02-2.42,2.78V8.82z"/>

		<path class="st1" d="M364.68,17.27h-10.87c0.27,2.75,1.67,4.3,4.03,4.3c1.67,0,2.93-0.75,3.73-2.27l2.48,1.19

			c-1.37,2.36-3.49,3.55-6.36,3.55c-2.06,0-3.76-0.75-5.11-2.21c-1.34-1.49-2.03-3.38-2.03-5.64c0-4.39,3.11-7.7,7.35-7.7

			c2.06,0,3.7,0.72,4.96,2.15c1.25,1.4,1.88,3.29,1.88,5.58L364.68,17.27z M361.58,15.01c-0.09-2.6-1.46-4.03-3.7-4.03

			c-2.3,0-3.7,1.43-4.03,4.06L361.58,15.01z"/>

		<path class="st1" d="M375.89,20.44l0.96,2.75l-0.48,0.24c-0.39,0.21-1.97,0.63-3.4,0.63c-3.46,0-5.17-1.79-5.17-5.58v-7.08h-2.57

			V9.9c2.42-0.63,3.55-2,4.18-5.23h1.67v4.15H376v2.57h-4.93v7.14c0,1.94,0.51,2.81,2.27,2.84c0.93,0,1.85-0.36,2.24-0.69

			L375.89,20.44z"/>

		<path class="st1" d="M376.69,16.2c0-4.33,3.11-7.7,7.35-7.7c2.75,0,5.02,1.46,6.3,4l-2.9,1.16c-0.75-1.61-1.88-2.42-3.4-2.42

			c-2.54,0-4,1.79-4,4.93c0,3.25,1.4,5.14,3.82,5.14c1.7,0,2.96-0.9,3.76-2.66l2.84,1.22c-1.34,2.78-3.55,4.18-6.63,4.18

			C379.74,24.05,376.69,20.74,376.69,16.2z"/>

		<path class="st1" d="M392.37,23.76V1.51h3.29v8.24l-0.42,2.6h0.12c0.99-2.42,2.84-3.85,4.99-3.85c3.34,0,5.46,2.45,5.46,6.27v8.99

			h-3.29v-8.69c0-2.48-1.13-3.82-3.08-3.82c-1.11,0-2,0.45-2.72,1.31s-1.08,1.91-1.08,3.17v8.03H392.37z"/>

	</g>

	<polygon class="st3" points="156.87,13.2 152.42,8.75 149.52,11.66 153.97,16.1 149.52,20.55 152.42,23.45 156.87,19 159.77,16.1 	

		"/>

	<polygon class="st3" points="281.54,13.2 277.1,8.75 274.19,11.66 278.64,16.1 274.19,20.55 277.1,23.45 281.54,19 284.44,16.1 	

		"/>

</g>

</svg>

