<?xml version="1.0" encoding="utf-8"?>
<!-- Generator: Adobe Illustrator 21.0.0, SVG Export Plug-In . SVG Version: 6.00 Build 0)  -->
<svg version="1.1" id="Layer_1" xmlns="http://www.w3.org/2000/svg" xmlns:xlink="http://www.w3.org/1999/xlink" x="0px" y="0px"
	 viewBox="0 0 169 150" style="enable-background:new 0 0 169 150;" xml:space="preserve">
<style type="text/css">
	.st0{fill:#381460;}
	.st1{fill:none;}
</style>
<g>
	<path class="st0" d="M72.92,1.5c3.56,0,7.13,0,10.69,0c2.06,0,2.9,0.81,2.91,2.86c0.01,3.61,0.02,7.22,0.01,10.83
		c0,1.92-0.89,2.81-2.81,2.85c-2.74,0.06-7.8-0.13-9.04-0.02c-1.27,0.11-2.55,0.08-3.83,0.01c-0.95-0.06-6.16-0.07-7.18,0.01
		c-3.98,0.31-4.42-0.93-4.32-4.38c0.09-3.03,0.02-6.07,0.02-9.11c0-2.26,0.78-3.04,2.99-3.04C65.88,1.5,69.4,1.5,72.92,1.5z
		 M72.91,13.27c2.55,0,5.09-0.03,7.64,0.02c0.93,0.02,1.23-0.3,1.19-1.22c-0.06-1.62-0.04-3.25,0-4.87c0.02-0.75-0.27-1.01-1-1
		c-5.18,0.02-10.36,0.02-15.55,0c-0.8,0-1.08,0.28-1.05,1.08c0.05,1.62,0.06,3.25,0,4.87c-0.03,0.87,0.27,1.16,1.13,1.14
		C67.82,13.24,70.36,13.27,72.91,13.27z"/>
	<path class="st0" d="M23.33,23.95c-1.68,1.52-3.23,2.93-4.84,4.38c2.15,2.38,4.21,4.65,6.26,6.94c0.77,0.85,0.81,1.88,0.32,2.82
		c-0.52,1-1.51,1.36-2.59,1.09c-0.52-0.13-1.05-0.48-1.42-0.87c-2.57-2.77-5.11-5.57-7.62-8.39c-1.08-1.21-1.02-2.52,0.16-3.61
		c2.7-2.51,5.43-5,8.19-7.46c1.24-1.1,2.46-1.02,3.59,0.2c2.59,2.8,5.17,5.63,7.71,8.48c1.01,1.13,0.97,2.51,0.02,3.43
		c-1.01,0.98-2.41,0.96-3.5-0.19c-1.76-1.84-3.44-3.76-5.16-5.64C24.12,24.8,23.8,24.45,23.33,23.95z"/>
	<path class="st0" d="M127.4,28.34c-1.65-1.5-3.2-2.9-4.86-4.4c-1.57,1.73-3.03,3.35-4.51,4.96c-0.65,0.71-1.29,1.45-2,2.1
		c-0.99,0.91-2.28,0.89-3.21,0.03c-0.91-0.83-1.06-2.2-0.23-3.22c1.03-1.26,2.15-2.44,3.24-3.64c1.53-1.69,3.06-3.4,4.62-5.06
		c1.19-1.27,2.4-1.36,3.69-0.2c2.76,2.45,5.49,4.94,8.19,7.45c1.1,1.02,1.15,2.39,0.15,3.52c-2.54,2.85-5.11,5.69-7.71,8.49
		c-1.03,1.12-2.54,1.2-3.53,0.3c-0.97-0.88-1-2.41,0.01-3.54C123.25,32.9,125.26,30.7,127.4,28.34z"/>
	<path class="st0" d="M73.75,20.86C38.54,20.42,10.4,48.58,10.27,83.21c-0.12,35.85,29.01,63.17,62.66,62.96
		c9.15,0.04,17.95-1.92,25.91-5.51c-0.77-0.84-1.49-1.71-2.15-2.62c-0.18-0.23-0.34-0.45-0.5-0.68c-0.15-0.2-0.3-0.41-0.44-0.62
		c-7.02,3-14.74,4.66-22.82,4.64c-31.6,0.09-58.01-25.6-57.9-58.17c0.1-31.68,26.04-57.88,58.53-57.57
		c30.48,0.33,55.21,24.1,57.18,53.97c0.25,0.03,0.49,0.07,0.74,0.11c1.38,0.21,2.74,0.5,4.07,0.87
		C134.07,47.4,106.99,21.25,73.75,20.86z"/>
	<path class="st0" d="M91.22,127.76c-4.6,1.9-9.54,3.04-14.84,3.4c-14.25,0.94-26.53-3.62-36.86-13.47
		c-1.17-1.11-1.38-2.25-0.73-3.28c0.63-1,1.77-1.46,2.85-0.98c0.58,0.24,1.11,0.72,1.58,1.16c4.97,4.8,10.74,8.36,17.38,10.13
		c10.73,2.85,20.54,2.31,29.34-1.63c0.29,1.44,0.66,2.85,1.13,4.22C91.12,127.46,91.17,127.61,91.22,127.76z"/>
	<path class="st0" d="M120.61,79.66c-0.16,0.01-0.32,0.04-0.48,0.06c-1.46,0.22-2.89,0.54-4.28,0.95
		c-0.24-4.49-1.24-8.83-2.97-13.03c-5.09-12.27-13.93-20.57-26.45-24.93c-4.31-1.51-8.78-2.14-13.34-2.23
		c-1.48-0.02-2.35-0.79-2.49-2.03c-0.16-1.58,0.96-2.79,2.63-2.76c11.94,0.23,22.44,4.21,31.44,12.08
		c4.47,3.93,8.17,8.54,10.78,13.86C118.32,67.44,120.1,73.44,120.61,79.66z"/>
	<path class="st0" d="M75.2,60.87c0,4.01,0.04,8.01-0.02,12.01c-0.02,1.32,0.55,2.04,1.68,2.52c4.24,1.82,6.16,7.01,4.55,11.27
		c-1.55,4.11-6.95,7.54-12.25,5.03c-0.93-0.44-1.56-0.2-2.24,0.43c-6.18,5.74-12.37,11.48-18.58,17.19
		c-1.35,1.24-2.7,1.28-3.71,0.18c-1.05-1.13-0.87-2.47,0.55-3.78c6.14-5.66,12.27-11.33,18.44-16.96c0.94-0.86,1.24-1.59,0.65-2.85
		c-1.29-2.73,0.22-7.29,2.95-9.44c0.34-0.27,0.66-0.68,1.05-0.77c2.35-0.57,2.44-2.23,2.41-4.26c-0.12-7.52-0.08-15.05-0.1-22.58
		c-0.01-1.8,0.86-2.87,2.34-2.88c1.48-0.01,2.37,1.04,2.37,2.85c0.01,4,0,8.01,0,12.01C75.27,60.87,75.23,60.87,75.2,60.87z
		 M77.13,83.5c0-2.37-1.81-4.23-4.1-4.23c-2.39,0.01-4.27,1.78-4.28,4.05c-0.02,2.5,1.79,4.43,4.17,4.43
		C75.27,87.76,77.13,85.88,77.13,83.5z"/>
	<g>
		<path class="st0" d="M135.9,84.81c-1.54-0.49-3.12-0.86-4.73-1.1c-1.63-0.26-3.31-0.39-5.02-0.39c-1.74,0-3.44,0.14-5.09,0.39
			c-1.68,0.26-3.31,0.67-4.89,1.17c-13.12,4.21-22.6,16.5-22.6,31.02c0,1.79,0.14,3.56,0.42,5.28c0.28,1.67,0.68,3.3,1.21,4.87
			c1.03,3.23,2.6,6.24,4.56,8.94c0.95,1.35,2.02,2.61,3.17,3.79c5.93,6,14.13,9.71,23.22,9.71c17.99,0,32.58-14.59,32.58-32.6
			C158.73,101.29,149.12,88.95,135.9,84.81z M145.36,107.03l-25.2,25.2l-13.22-13.22c-1.37-1.37-1.37-3.59,0-4.96
			c1.37-1.37,3.59-1.37,4.96,0l8.26,8.04l14.97-14.76l0.03-0.01l5.25-5.25c1.37-1.37,3.59-1.37,4.96,0
			C146.73,103.44,146.73,105.66,145.36,107.03z"/>
	</g>
</g>
<g>
	<path class="st0" d="M149.44-44.78c-0.88-0.28-1.78-0.49-2.7-0.63c-0.93-0.15-1.89-0.22-2.86-0.22c-0.99,0-1.96,0.08-2.9,0.22
		c-0.96,0.15-1.89,0.38-2.79,0.67c-7.48,2.4-12.89,9.41-12.89,17.69c0,1.02,0.08,2.03,0.24,3.01c0.16,0.95,0.39,1.88,0.69,2.78
		c0.59,1.84,1.48,3.56,2.6,5.1c0.54,0.77,1.15,1.49,1.81,2.16c3.38,3.42,8.06,5.54,13.24,5.54c10.26,0,18.58-8.32,18.58-18.59
		C162.46-35.38,156.98-42.42,149.44-44.78z M154.83-32.11l-14.37,14.37l-7.54-7.54c-0.78-0.78-0.78-2.05,0-2.83
		c0.78-0.78,2.05-0.78,2.83,0l4.71,4.58l8.54-8.42l0.02-0.01l2.99-2.99c0.78-0.78,2.05-0.78,2.83,0
		C155.61-34.16,155.61-32.89,154.83-32.11z"/>
</g>
<g>
	<path class="st0" d="M494.4,210.15c-0.88-0.28-1.78-0.49-2.7-0.63c-0.93-0.15-1.89-0.22-2.86-0.22c-0.99,0-1.96,0.08-2.9,0.22
		c-0.96,0.15-1.89,0.38-2.79,0.67c-7.48,2.4-12.89,9.41-12.89,17.69c0,1.02,0.08,2.03,0.24,3.01c0.16,0.95,0.39,1.88,0.69,2.78
		c0.59,1.84,1.48,3.56,2.6,5.1c0.54,0.77,1.15,1.49,1.81,2.16c3.38,3.42,8.06,5.54,13.24,5.54c10.26,0,18.58-8.32,18.58-18.59
		C507.42,219.55,501.94,212.51,494.4,210.15z M499.79,222.82l-14.37,14.37l-7.54-7.54c-0.78-0.78-0.78-2.05,0-2.83
		c0.78-0.78,2.05-0.78,2.83,0l4.71,4.58l8.54-8.42l0.02-0.01l2.99-2.99c0.78-0.78,2.05-0.78,2.83,0
		C500.58,220.77,500.58,222.04,499.79,222.82z"/>
</g>
<text transform="matrix(1 0 0 1 171.7995 304.2344)" style="font-family:'ArialMT'; font-size:11.04px;"> </text>
<g>
	<g>
		<path class="st0" d="M852.16,84.51c-0.46-0.15-0.92-0.28-1.38-0.4c-1.1-0.3-2.22-0.53-3.36-0.7c-1.63-0.27-3.31-0.39-5.01-0.39
			c-1.08,0-2.15,0.05-3.19,0.16c-0.64,0.06-1.27,0.14-1.9,0.23c-1.68,0.26-3.31,0.66-4.89,1.17c-13.12,4.21-22.6,16.5-22.6,31.02
			c0,1.79,0.14,3.56,0.42,5.28c0.28,1.67,0.68,3.3,1.21,4.87c1.03,3.23,2.59,6.25,4.56,8.95c0.05,0.07,0.1,0.14,0.15,0.21
			c0.9,1.27,1.92,2.46,3.02,3.58c3.07,3.1,6.74,5.59,10.83,7.27c3.82,1.57,8,2.44,12.39,2.44c17.99,0,32.58-14.59,32.58-32.6
			C874.99,100.99,865.38,88.65,852.16,84.51z M861.62,106.73l-10.83,10.83l-14.37,14.37l-13.22-13.22c-1.37-1.37-1.37-3.59,0-4.96
			c1.37-1.37,3.59-1.37,4.96,0l8.25,8.04l2.81-2.77l11.57-11.42l0.59-0.58l0.03-0.01l5.25-5.24c1.37-1.37,3.59-1.37,4.96,0
			C862.99,103.14,862.99,105.36,861.62,106.73z"/>
	</g>
	<path class="st0" d="M839.22,134.49c-1.91,0.15-3.66,0.42-5.42,0.42h-17.63c-22.38-0.01-44.77-0.04-67.15,0.11
		c-4.55,0.03-5.93-1.26-5.9-5.83c0.19-30.3,0.17-60.59,0.03-90.89c-0.02-4.21,1.22-6.12,5.55-5.51c0.99,0.14,2.03,0.05,3.04,0.05
		c7.47-0.01,9.04-1.42,9.04-8.82c-0.01-10.15-0.15-9.08,9.39-9.06c20.74,0.04,41.48,0.01,62.22,0.02h6.83v104.04l11.57-11.42
		c0-7.83-0.01-15.66-0.01-23.49v-8.88c0-20.33,0.01-40.66-0.01-60.99c-0.01-8.88-1.01-9.97-9.66-9.99
		c-21.74-0.06-43.53-0.19-65.21-0.44C757.54,3.6,745.85,7.13,736.26,21c-2.03,2.94-4.06,6.7-4.09,10.09
		c-0.3,34.96-0.2,69.93-0.19,104.89c0.01,8.71,1.13,9.82,9.87,9.82c29.39-0.01,58.78-0.03,88.17-0.04
		c3.75-0.01,7.49-0.01,11.24-0.01c8.3-0.01,9.5-1.18,9.51-9.54c0.02-6.21,0.02-12.43,0.02-18.65l-11.57,11.57V134.49z"/>
	<path class="st0" d="M791.26,59.04c-9.34,0-18.69,0.17-28.02-0.15c-1.78-0.06-3.48-2.08-5.22-3.2c1.69-1.15,3.37-3.27,5.08-3.3
		c18.68-0.24,37.37-0.17,56.05-0.15c2.55,0,6.08-0.55,5.28,3.55c-0.27,1.35-3.32,3-5.15,3.06c-9.33,0.31-18.68,0.14-28.02,0.14
		C791.26,59.01,791.26,59.02,791.26,59.04z"/>
	<path class="st0" d="M805.78,33.91c4.86,0,9.76-0.29,14.58,0.17c1.53,0.14,2.88,2.25,4.31,3.46c-1.39,1.07-2.76,3.02-4.18,3.06
		c-9.92,0.27-19.86,0.29-29.79-0.02c-1.44-0.05-2.81-2.29-4.21-3.52c1.36-1.04,2.67-2.88,4.1-2.98c5.04-0.37,10.12-0.14,15.19-0.14
		C805.78,33.92,805.78,33.91,805.78,33.91z"/>
	<path class="st0" d="M809.5,116.61c-3.43,0.01-6.9,0.28-10.28-0.13c-1.28-0.15-2.38-1.87-3.56-2.88c1.22-1.17,2.39-3.3,3.66-3.36
		c7.05-0.32,14.13-0.27,21.19,0.02c1.22,0.05,2.36,1.86,3.54,2.85c-1.21,1.17-2.32,3.16-3.67,3.34
		C816.81,116.91,813.13,116.6,809.5,116.61z"/>
	<path class="st0" d="M809.26,96.94c-3.43,0-6.9,0.28-10.28-0.15c-1.23-0.15-2.25-1.98-3.37-3.05c1.12-1.11,2.21-3.14,3.38-3.19
		c7.26-0.3,14.54-0.29,21.79,0c1.12,0.04,3.05,2.07,3.01,3.13c-0.04,1.14-1.85,3.04-3.05,3.17c-3.79,0.41-7.66,0.15-11.49,0.15
		C809.26,96.99,809.26,96.97,809.26,96.94z"/>
	<path class="st0" d="M810.12,71.32c3.45,0,6.94-0.26,10.34,0.14c1.29,0.15,2.39,1.86,3.57,2.86c-1.24,1.15-2.43,3.24-3.72,3.3
		c-6.89,0.33-13.82,0.33-20.71,0c-1.38-0.07-2.66-2.08-3.99-3.19c1.38-1.04,2.67-2.77,4.16-2.97
		C803.18,71.01,806.67,71.32,810.12,71.32z"/>
	<path class="st0" d="M778.55,85.08c-1.19,0-2.38-0.01-3.57,0c-0.94,0.01-1.39-0.42-1.36-1.4c0.03-0.9,0.03-1.82-0.08-2.71
		c-0.11-0.93-0.65-1.82-1.64-1.56c-0.65,0.17-1.46,0.99-1.61,1.65c-0.59,2.6,0.4,4.38,2.87,5.9c2.34,1.44,4.65,2.92,6.94,4.43
		c2.87,1.88,4.24,4.65,4.51,8c0.27,3.37,0.04,6.63-1.98,9.56c-1.46,2.12-3.5,3.27-5.9,3.95c-2.65,0.75-2.15,0.05-2.14,2.74
		c0.01,1.08-0.19,1.54-1.41,1.46c-0.14-0.02-0.29,0-0.43,0c-2.69,0-2.77,0-2.75-2.66c0.01-1.18-0.69-1.29-1.48-1.47
		c-2.55-0.56-4.73-1.71-6.3-3.86c-1.43-1.95-1.95-4.19-1.97-6.57c-0.02-3.66-0.72-3.53,3.31-3.5c1.62,0.01,3.24,0.03,4.86-0.01
		c1.29-0.03,1.79,0.51,1.73,1.81c-0.07,1.47,0.03,2.95,0.06,4.43c0.02,1.03,0.4,1.8,1.55,1.82c1.22,0.03,1.89-0.67,1.91-1.85
		c0.11-5.73,0.14-6.15-4.92-9.35c-2.48-1.57-4.98-3.09-6.75-5.58c-2.46-3.46-2.77-10.78,0.41-13.71c1.62-1.49,3.41-2.55,5.59-2.83
		c1.39-0.18,2.24-0.68,2.11-2.25c-0.08-0.91,0.41-1.25,1.32-1.24c0.48,0,0.95,0.01,1.43,0.01c1.24-0.01,1.9,0.32,1.78,1.7
		c-0.1,1.09,0.5,1.58,1.59,1.77c5.21,0.93,7.83,5.1,7.33,10.17c-0.04,0.41-0.81,1.01-1.3,1.08
		C781.03,85.18,779.78,85.07,778.55,85.08C778.55,85.07,778.55,85.07,778.55,85.08z"/>
</g>
<text transform="matrix(1 0 0 1 77.2369 325.907)" style="font-family:'ArialMT'; font-size:11.04px;"> </text>
<path class="st0" d="M524.28,96.33c-0.22-0.5-0.45-0.99-0.69-1.47c-1.19-2.39-2.67-4.59-4.39-6.59c-0.23-0.27-0.46-0.52-0.69-0.78
	c-3.82-4.2-8.74-7.39-14.3-9.13c-1.54-0.49-3.12-0.86-4.74-1.1c-1.63-0.27-3.31-0.39-5.01-0.39c-1.74,0-3.44,0.14-5.09,0.39
	c-1.68,0.26-3.31,0.66-4.89,1.17c-1.6,0.51-3.14,1.14-4.62,1.88c-1.89,0.95-3.68,2.08-5.34,3.37c-7.69,5.95-12.64,15.28-12.64,25.77
	c0,1.79,0.14,3.56,0.42,5.28c0.28,1.67,0.68,3.3,1.21,4.87c0.36,1.13,0.78,2.23,1.27,3.3c0.48,1.08,1.03,2.12,1.63,3.13
	c0.51,0.87,1.07,1.71,1.66,2.52c0.14,0.2,0.28,0.4,0.44,0.6c0.82,1.13,1.74,2.19,2.73,3.19c5.93,5.99,14.14,9.71,23.22,9.71
	c17.99,0,32.58-14.59,32.58-32.6C527.04,104.78,526.06,100.34,524.28,96.33z M488.47,125.78l-11.31-11.31l-1.91-1.91
	c-1.37-1.37-1.37-3.59,0-4.96c0.54-0.54,1.21-0.87,1.91-0.98c1.08-0.18,2.22,0.15,3.05,0.98l0.08,0.08l3.13,3.05l5.04,4.91
	l9.47-9.34l5.15-5.08l0.35-0.35l0.03-0.01l5.25-5.24c1.37-1.37,3.59-1.37,4.96,0c1.37,1.37,1.37,3.59,0,4.96l-0.64,0.64
	L488.47,125.78z"/>
<g>
	<path class="st0" d="M-392.29,70.69l-0.11-0.2c-0.14-0.25-1.33-2.32-3.5-5.02c-4.8-6-14.46-15.16-28.47-14.87
		c-20.35-0.42-31.5,19.06-31.97,19.89l-0.32,0.58v35.23h46.81v-5.08h-41.73V72.44c1.86-2.97,11.53-17.1,27.16-16.77h0.68
		c11.14,0,19.22,7.41,23.49,12.53c1.56,1.9,2.6,3.46,3.1,4.24v1.31C-395.65,72.66-394.03,71.61-392.29,70.69z"/>
	<path class="st0" d="M-423.78,7.95c-10.73,0-19.45,8.72-19.45,19.45c0,10.72,8.72,19.44,19.45,19.44
		c10.72,0,19.44-8.72,19.44-19.44C-404.34,16.67-413.06,7.95-423.78,7.95z M-423.78,41.77c-7.93,0-14.38-6.45-14.38-14.37
		c0-7.93,6.45-14.38,14.38-14.38c7.92,0,14.37,6.45,14.37,14.38C-409.41,35.32-415.86,41.77-423.78,41.77z"/>
</g>
<g>
	<path class="st0" d="M-295.97,70.49c-0.47-0.83-11.64-20.32-31.96-19.89c-13.92-0.28-23.51,8.71-28.35,14.71
		c-0.07,0.09-0.15,0.18-0.21,0.27c-2.12,2.66-3.26,4.65-3.41,4.91l-0.03,0.04c1.7,0.89,3.31,1.9,4.78,2.97v-1.06
		c0.49-0.77,1.49-2.28,2.98-4.1c0.09-0.1,0.17-0.2,0.26-0.31c4.34-5.19,12.56-12.6,23.93-12.36h0.67
		c15.23,0,24.76,13.85,26.59,16.77v9.92c0.82,0.74,1.6,1.53,2.35,2.35c0.26,0.3,0.52,0.58,0.78,0.88c0.68,0.79,1.34,1.62,1.95,2.47
		V71.07L-295.97,70.49z"/>
	<path class="st0" d="M-327.35,7.95c-10.72,0-19.45,8.72-19.45,19.45c0,10.72,8.73,19.44,19.45,19.44s19.45-8.72,19.45-19.44
		C-307.9,16.67-316.63,7.95-327.35,7.95z M-327.35,41.77c-7.93,0-14.38-6.45-14.38-14.37c0-7.93,6.45-14.38,14.38-14.38
		c7.92,0,14.37,6.45,14.37,14.38C-312.98,35.32-319.43,41.77-327.35,41.77z"/>
</g>
<polyline class="st1" points="-339.63,101.22 -339.63,100.18 -339.63,86.56 "/>
<line class="st1" x1="-339.63" y1="106.3" x2="-339.63" y2="105.9"/>
<line class="st1" x1="-358.2" y1="126.03" x2="-376.3" y2="126.03"/>
<path class="st0" d="M-400.25,68.2c-9.8,6.96-15.08,16.2-15.44,16.82l-0.41,0.72v15.48h6.25V87.43c1.29-2.06,5.66-8.52,12.7-13.68
	v-1.31C-397.65,71.66-398.69,70.1-400.25,68.2z M-352.17,68.34c-0.14-0.1-0.28-0.21-0.43-0.31c-1.23-0.87-2.53-1.7-3.89-2.45
	c-0.16-0.09-0.32-0.18-0.48-0.27c-5.4-2.94-11.87-4.95-19.33-4.8c-7.58-0.15-14.13,1.94-19.6,4.96c-1.54,0.84-2.99,1.77-4.35,2.73
	c-9.8,6.96-15.08,16.2-15.44,16.82l-0.41,0.72v43.41h59.68c-0.22-0.34-0.43-0.68-0.63-1.03c-0.41-0.68-0.8-1.38-1.15-2.09
	c-0.25-0.47-0.48-0.94-0.69-1.43c-0.25-0.56-0.49-1.13-0.71-1.7h-50.25V87.43c1.29-2.06,5.66-8.52,12.7-13.68
	c1.5-1.09,3.12-2.14,4.86-3.06c4.53-2.42,9.86-4.05,15.93-3.92h0.14c0.22-0.02,0.45-0.02,0.68-0.02c5.63,0,10.62,1.53,14.92,3.78
	c1.7,0.89,3.31,1.9,4.78,2.97c3.11,2.23,5.72,4.73,7.79,7.02l0.13-0.1c1.63-1.27,3.38-2.4,5.22-3.38
	C-345.12,74.25-348.29,71.11-352.17,68.34z M-400.25,68.2c-9.8,6.96-15.08,16.2-15.44,16.82l-0.41,0.72v15.48h6.25V87.43
	c1.29-2.06,5.66-8.52,12.7-13.68v-1.31C-397.65,71.66-398.69,70.1-400.25,68.2z M-400.25,68.2c-9.8,6.96-15.08,16.2-15.44,16.82
	l-0.41,0.72v15.48h6.25V87.43c1.29-2.06,5.66-8.52,12.7-13.68v-1.31C-397.65,71.66-398.69,70.1-400.25,68.2z"/>
<path class="st0" d="M-375.58,7.95c-13.22,0-23.97,10.75-23.97,23.97c0,13.21,10.75,23.96,23.97,23.96
	c13.21,0,23.97-10.75,23.97-23.96C-351.61,18.7-362.37,7.95-375.58,7.95z M-375.58,49.63c-9.77,0-17.72-7.95-17.72-17.71
	c0-9.77,7.95-17.72,17.72-17.72s17.71,7.95,17.71,17.72C-357.87,41.68-365.81,49.63-375.58,49.63z"/>
<path class="st0" d="M-295.64,96.33c-0.22-0.5-0.45-0.99-0.69-1.47c-1.19-2.39-2.67-4.59-4.39-6.59c-0.23-0.27-0.46-0.52-0.69-0.78
	c-3.82-4.2-8.74-7.39-14.3-9.13c-1.54-0.49-3.12-0.86-4.74-1.1c-1.63-0.27-3.31-0.39-5.01-0.39c-1.74,0-3.44,0.14-5.09,0.39
	c-1.68,0.26-3.31,0.66-4.89,1.17c-1.6,0.51-3.14,1.14-4.62,1.88c-1.89,0.95-3.68,2.08-5.34,3.37c-7.69,5.95-12.64,15.28-12.64,25.77
	c0,1.79,0.14,3.56,0.42,5.28c0.28,1.67,0.68,3.3,1.21,4.87c0.36,1.13,0.78,2.23,1.27,3.3c0.48,1.08,1.03,2.12,1.63,3.13
	c0.51,0.87,1.07,1.71,1.66,2.52c0.14,0.2,0.28,0.4,0.44,0.6c0.82,1.13,1.74,2.19,2.73,3.19c5.93,5.99,14.14,9.71,23.22,9.71
	c17.99,0,32.58-14.59,32.58-32.6C-292.88,104.78-293.86,100.34-295.64,96.33z M-331.45,125.78l-11.31-11.31l-1.91-1.91
	c-1.37-1.37-1.37-3.59,0-4.96c0.54-0.54,1.21-0.87,1.91-0.98c1.08-0.18,2.22,0.15,3.05,0.98l0.08,0.08l3.13,3.05l5.04,4.91
	l9.47-9.34l5.15-5.08l0.35-0.35l0.03-0.01l5.25-5.24c1.37-1.37,3.59-1.37,4.96,0c1.37,1.37,1.37,3.59,0,4.96l-0.64,0.64
	L-331.45,125.78z"/>
<path class="st0" d="M-347.92,80.42l-0.13,0.1L-347.92,80.42z"/>
</svg>
