<?xml version="1.0" encoding="utf-8"?>
<!-- Generator: Adobe Illustrator 24.0.1, SVG Export Plug-In . SVG Version: 6.00 Build 0)  -->
<svg version="1.1" id="Layer_1" xmlns="http://www.w3.org/2000/svg" xmlns:xlink="http://www.w3.org/1999/xlink" x="0px" y="0px"
	 viewBox="0 0 100 100" style="enable-background:new 0 0 100 100;" xml:space="preserve">
<style type="text/css">
	.st0{fill:#FFFFFF;}
	.st1{fill:#E2E2E2;}
	.st2{fill:#361260;}
	.st3{fill:#03B5D0;}
	.st4{fill:#0074BD;}
	.st5{clip-path:url(#SVGID_2_);}
	.st6{opacity:0.2;enable-background:new    ;}
	.st7{clip-path:url(#SVGID_4_);}
	.st8{clip-path:url(#SVGID_6_);}
	.st9{clip-path:url(#SVGID_8_);}
	.st10{fill:#FFAE0B;}
</style>
<g>
	<g>
		<path class="st0" d="M80.1,67.4l-31.6-3.5c-0.8-0.1-1.4-0.8-1.3-1.6c0,0,0,0,0,0l5.3-48.9c0.1-0.8,0.8-1.4,1.6-1.3c0,0,0,0,0,0
			l22.2,2.4l9.7,12l-4.3,39.5C81.6,66.9,80.9,67.5,80.1,67.4C80.1,67.4,80.1,67.4,80.1,67.4z"/>
	</g>
	<g>
		<path class="st1" d="M77.4,25.7c4.9,2.4,6.8,7.5,7.1,14.1L86,26.6L77.4,25.7z"/>
	</g>
	<g>
		<path class="st2" d="M80.2,67.7c-0.1,0-0.1,0-0.2,0l0-0.3l0,0.3l-31.6-3.5c-1-0.1-1.7-1-1.6-1.9l5.3-48.9c0.1-1,1-1.7,1.9-1.6
			l22.2,2.4c0.1,0,0.2,0.1,0.2,0.1l9.7,12c0.1,0.1,0.1,0.1,0.1,0.2L82,66.2C81.9,67.1,81.1,67.7,80.2,67.7z M53.9,12.5
			c-0.6,0-1.1,0.4-1.1,1l-5.3,48.9c-0.1,0.6,0.4,1.2,1,1.2l31.6,3.5l0,0c0.6,0.1,1.2-0.4,1.2-1l4.3-39.3l-9.5-11.8l-22.1-2.4
			c0,0,0,0,0,0C54,12.5,54,12.5,53.9,12.5z"/>
	</g>
	<g>
		<polygon class="st0" points="75.1,25.5 86,26.7 76.3,14.6 		"/>
	</g>
	<g>
		<path class="st3" d="M84.4,26.5l-7.2-9c-0.2-0.3-0.7-0.3-1-0.1c-0.1,0.1-0.2,0.3-0.3,0.5L75.3,24c-0.1,0.8,0.5,1.5,1.3,1.6
			L84.4,26.5z"/>
	</g>
	<g>
		<path class="st2" d="M86,27C86,27,86,27,86,27l-9.4-1c-1-0.1-1.7-1-1.6-1.9l0.6-5.8c0-0.2,0.2-0.3,0.3-0.3c0.2,0,0.3,0.2,0.3,0.3
			l-0.6,5.8c-0.1,0.6,0.4,1.2,1,1.2l8.6,0.9l-9.2-11.4c-0.1-0.1-0.1-0.3,0-0.4c0.1-0.1,0.3-0.1,0.4,0l9.7,12c0.1,0.1,0.1,0.2,0,0.3
			C86.2,26.9,86.1,27,86,27z"/>
	</g>
	<g>
		<path class="st2" d="M67.1,20.3C67.1,20.3,67.1,20.3,67.1,20.3L56,19c-0.2,0-0.3-0.2-0.3-0.3c0-0.2,0.2-0.3,0.3-0.3l11,1.2
			c0.2,0,0.3,0.2,0.3,0.3C67.4,20.1,67.3,20.3,67.1,20.3z"/>
	</g>
	<g>
		<path class="st2" d="M81,33.1C80.9,33.1,80.9,33.1,81,33.1l-26.1-2.9c-0.2,0-0.3-0.2-0.3-0.3s0.2-0.3,0.3-0.3L81,32.5
			c0.2,0,0.3,0.2,0.3,0.3C81.3,33,81.1,33.1,81,33.1z"/>
	</g>
	<g>
		<path class="st2" d="M72.8,36.5C72.7,36.5,72.7,36.5,72.8,36.5l-18.4-2c-0.2,0-0.3-0.2-0.3-0.3c0-0.2,0.2-0.3,0.3-0.3l18.4,2
			c0.2,0,0.3,0.2,0.3,0.3C73,36.4,72.9,36.5,72.8,36.5z"/>
	</g>
	<g>
		<path class="st2" d="M76.8,41.3C76.8,41.3,76.8,41.3,76.8,41.3l-22.9-2.5c-0.2,0-0.3-0.2-0.3-0.3c0-0.2,0.2-0.3,0.3-0.3l22.9,2.5
			c0.2,0,0.3,0.2,0.3,0.3C77.1,41.2,77,41.3,76.8,41.3z"/>
	</g>
	<g>
		<path class="st2" d="M69,44.7C69,44.7,69,44.7,69,44.7L53.4,43c-0.2,0-0.3-0.2-0.3-0.3c0-0.2,0.2-0.3,0.3-0.3L69,44.1
			c0.2,0,0.3,0.2,0.3,0.3C69.3,44.6,69.2,44.7,69,44.7z"/>
	</g>
	<g>
		<path class="st2" d="M56,51.9C56,51.9,56,51.9,56,51.9l-3.5-0.4c-0.2,0-0.3-0.2-0.3-0.3c0-0.2,0.2-0.3,0.3-0.3l3.5,0.4
			c0.2,0,0.3,0.2,0.3,0.3C56.3,51.8,56.2,51.9,56,51.9z"/>
	</g>
	<g>
		<path class="st2" d="M59.8,56.7C59.8,56.7,59.8,56.7,59.8,56.7L52,55.8c-0.2,0-0.3-0.2-0.3-0.3c0-0.2,0.2-0.3,0.3-0.3l7.8,0.8
			c0.2,0,0.3,0.2,0.3,0.3C60.1,56.6,60,56.7,59.8,56.7z"/>
	</g>
	<g>
		<path class="st2" d="M61.2,23.6C61.2,23.6,61.1,23.6,61.2,23.6L55.6,23c-0.2,0-0.3-0.2-0.3-0.3c0-0.2,0.2-0.3,0.3-0.3l5.5,0.6
			c0.2,0,0.3,0.2,0.3,0.3C61.5,23.5,61.3,23.6,61.2,23.6z"/>
	</g>
	<g>
		<path class="st4" d="M71.4,62.9c0.4,0.1,0.7,0.2,1.1,0.3c0.5,0.2,0.9,0.4,1.4,0.3c0.4-0.1,0.8-0.5,1.2-0.8
			c0.2-0.3,0.5-0.5,0.8-0.7c0.3-0.2,0.7-0.3,1-0.3c0.5-0.1,1-0.2,1.3-0.6s0.4-0.8,0.4-1.3c0-0.4,0.1-0.7,0.3-1.1
			c0.2-0.3,0.4-0.6,0.6-0.9c0.3-0.4,0.7-0.8,0.7-1.3s-0.2-0.9-0.4-1.4c-0.2-0.3-0.3-0.6-0.4-1c-0.1-0.4-0.1-0.7,0-1.1
			c0-0.5,0.1-1-0.1-1.4s-0.7-0.6-1.1-0.8c-0.3-0.1-0.6-0.3-0.9-0.6c-0.2-0.3-0.5-0.5-0.6-0.9c-0.3-0.4-0.5-0.9-1-1.1s-0.9-0.1-1.4,0
			c-0.7,0.2-1.5,0.1-2.2-0.2c-0.5-0.2-0.9-0.4-1.4-0.3c-0.4,0.1-0.8,0.5-1.2,0.8c-0.2,0.3-0.5,0.5-0.8,0.7c-0.3,0.2-0.7,0.3-1,0.3
			c-0.5,0.1-1,0.2-1.3,0.6s-0.4,0.8-0.4,1.3c0,0.4-0.1,0.7-0.3,1.1c-0.2,0.3-0.4,0.6-0.6,0.9c-0.3,0.4-0.7,0.8-0.7,1.3
			c-0.1,0.5,0.2,0.9,0.4,1.4c0.2,0.3,0.3,0.6,0.4,1c0.1,0.4,0.1,0.7,0,1.1c0,0.5-0.1,1,0.1,1.4s0.7,0.6,1.1,0.8
			c0.3,0.1,0.6,0.3,0.9,0.6c0.2,0.3,0.5,0.5,0.6,0.9c0.3,0.4,0.5,0.9,1,1.1s0.9,0.1,1.4,0C70.7,63,71.1,62.9,71.4,62.9z"/>
	</g>
	<g>
		<circle class="st3" cx="72.2" cy="55.7" r="5.5"/>
	</g>
	<g>
		<path class="st0" d="M73.2,58.8c-0.1,0-0.1,0-0.2,0l-3.3-0.4c-0.2,0-0.3-0.2-0.3-0.3c0-0.2,0.2-0.3,0.3-0.3l3.3,0.4
			c0.6,0.1,1.1-0.3,1.1-0.9c0.1-0.6-0.3-1.1-0.9-1.1L71,55.9c-0.9-0.1-1.6-0.9-1.5-1.8c0.1-0.9,0.9-1.6,1.8-1.5l3.3,0.4
			c0.2,0,0.3,0.2,0.3,0.3c0,0.2-0.2,0.3-0.3,0.3l-3.3-0.4c-0.6-0.1-1.1,0.3-1.1,0.9c-0.1,0.6,0.3,1.1,0.9,1.1l2.3,0.3
			c0.9,0.1,1.6,0.9,1.5,1.8C74.8,58.2,74.1,58.8,73.2,58.8z"/>
	</g>
	<g>
		<path class="st0" d="M72.5,53.4C72.5,53.4,72.5,53.4,72.5,53.4c-0.2,0-0.3-0.2-0.3-0.3l0.1-1.3c0-0.2,0.2-0.3,0.3-0.3
			c0.2,0,0.3,0.2,0.3,0.3l-0.1,1.3C72.8,53.3,72.7,53.4,72.5,53.4z"/>
	</g>
	<g>
		<path class="st0" d="M71.8,60C71.8,60,71.8,60,71.8,60c-0.2,0-0.3-0.2-0.3-0.3l0.1-1.3c0-0.2,0.2-0.3,0.3-0.3
			c0.2,0,0.3,0.2,0.3,0.3l-0.1,1.3C72.1,59.8,71.9,60,71.8,60z"/>
	</g>
	<g>
		<ellipse class="st1" cx="34.6" cy="85.5" rx="19.2" ry="2.6"/>
	</g>
	<g>
		<path class="st3" d="M25.8,19.6l36.7,8.9c2.4,0.6,3.8,3,3.3,5.4l-5.1,20.9c-0.6,2.4-3,3.8-5.4,3.3l-36.7-8.9
			c-2.4-0.6-3.8-3-3.3-5.4l5.1-20.9C21,20.5,23.4,19,25.8,19.6z"/>
	</g>
	<g>
		<path class="st0" d="M62.5,28.5l-36.7-8.9c-2.4-0.6-4.8,0.9-5.4,3.3c0,0,0,0,0,0l-0.6,2.6c0.6-2.4,3-3.8,5.4-3.3c0,0,0,0,0,0
			l36.7,8.9c2.4,0.6,3.8,3,3.3,5.4c0,0,0,0,0,0l0.6-2.6C66.4,31.5,64.9,29.1,62.5,28.5C62.5,28.5,62.5,28.5,62.5,28.5z"/>
	</g>
	<g>
		<path class="st3" d="M62.3,29.9l-36.7-8.9c-2.4-0.6-4.8,0.9-5.4,3.3c0,0,0,0,0,0l-0.6,2.6c0.6-2.4,3-3.8,5.4-3.3c0,0,0,0,0,0
			l36.7,8.9c2.4,0.6,3.8,3,3.3,5.4c0,0,0,0,0,0l0.6-2.6C66.1,32.8,64.6,30.4,62.3,29.9C62.3,29.9,62.3,29.9,62.3,29.9z"/>
	</g>
	<g>
		<path class="st2" d="M56.4,58.5c-0.4,0-0.8,0-1.1-0.1l-36.7-8.9c-2.5-0.6-4.1-3.2-3.5-5.7l5.1-20.9c0.6-2.5,3.2-4.1,5.7-3.5l0,0
			l36.7,8.9c1.2,0.3,2.3,1.1,2.9,2.1c0.7,1.1,0.9,2.4,0.6,3.6L61,54.9c-0.3,1.2-1.1,2.3-2.1,2.9C58.1,58.3,57.3,58.5,56.4,58.5z
			 M24.7,19.8c-1.9,0-3.6,1.3-4,3.2l-5.1,20.9c-0.5,2.2,0.8,4.4,3,5l36.7,8.9c1.1,0.3,2.2,0.1,3.1-0.5c0.9-0.6,1.6-1.5,1.9-2.5
			l5.1-20.9c0.3-1.1,0.1-2.2-0.5-3.1c-0.6-0.9-1.5-1.6-2.5-1.9l-36.7-8.9C25.4,19.8,25.1,19.8,24.7,19.8z"/>
	</g>
	<g>
		<circle class="st0" cx="49.6" cy="48.9" r="3.7"/>
	</g>
	<g>
		<circle class="st2" cx="54.4" cy="50.1" r="3.7"/>
	</g>
	<g>
		<path class="st2" d="M25.9,30l5.2,1.3c1.1,0.3,1.7,1.3,1.5,2.4l-0.4,1.7c-0.3,1.1-1.3,1.7-2.4,1.5l-5.2-1.3
			c-1.1-0.3-1.7-1.3-1.5-2.4l0.4-1.7C23.8,30.4,24.8,29.7,25.9,30z"/>
	</g>
	<g>
		<path class="st2" d="M41.8,30.1C41.8,30.1,41.8,30.1,41.8,30.1l-17-4.1c-0.2,0-0.3-0.2-0.2-0.4c0-0.2,0.2-0.3,0.4-0.2l16.9,4.1
			c0.2,0,0.3,0.2,0.2,0.4C42.1,30,42,30.1,41.8,30.1z"/>
	</g>
	<g>
		<path class="st2" d="M27.2,42.3C27.2,42.3,27.2,42.3,27.2,42.3l-6-1.4c-0.2,0-0.3-0.2-0.2-0.4c0-0.2,0.2-0.3,0.4-0.2l5.9,1.4
			c0.2,0,0.3,0.2,0.2,0.4C27.5,42.2,27.4,42.3,27.2,42.3z"/>
	</g>
	<g>
		<path class="st2" d="M30.3,46.7C30.3,46.7,30.3,46.7,30.3,46.7l-9.9-2.4c-0.2,0-0.3-0.2-0.2-0.4c0-0.2,0.2-0.3,0.4-0.2l9.8,2.4
			c0.2,0,0.3,0.2,0.2,0.4C30.6,46.6,30.5,46.7,30.3,46.7z"/>
	</g>
	<g>
		<path class="st3" d="M6.7,52.1c0,0.3,0.2,0.5,0.5,0.5c1.7,0,3.1,1.4,3.1,3.1c0,0.3,0.2,0.5,0.5,0.5c0.3,0,0.5-0.2,0.5-0.5
			c0,0,0,0,0-0.1c0-1.7,1.4-3.1,3.1-3.1c0.3,0,0.5-0.2,0.5-0.5c0-0.3-0.2-0.5-0.5-0.5c0,0,0,0-0.1,0c-1.7,0-3.1-1.4-3.1-3.1
			c0-0.3-0.3-0.5-0.5-0.5c-0.3,0-0.5,0.2-0.5,0.5c0,1.7-1.4,3.1-3.1,3.1C6.9,51.6,6.7,51.8,6.7,52.1C6.7,52.1,6.7,52.1,6.7,52.1z"/>
	</g>
	<g>
		<path class="st3" d="M87.4,36.9c-0.2,0.2-0.2,0.5,0,0.7c1.2,1.2,1.2,3.2,0,4.4c-0.2,0.2-0.2,0.5,0,0.7c0.2,0.2,0.5,0.2,0.7,0
			c0,0,0,0,0,0c1.2-1.2,3.2-1.2,4.4,0c0.2,0.2,0.5,0.2,0.7,0c0.2-0.2,0.2-0.5,0-0.7c-1.2-1.2-1.2-3.2,0-4.4c0.2-0.2,0.2-0.5,0-0.7
			c-0.2-0.2-0.5-0.2-0.7,0c-1.2,1.2-3.2,1.2-4.4,0C87.9,36.7,87.6,36.7,87.4,36.9z"/>
	</g>
	<g>
		<path class="st3" d="M57,74.3c0,0.3,0.2,0.5,0.5,0.5h0c1.7,0,3.1,1.4,3.1,3.1c0,0.3,0.3,0.5,0.5,0.5c0.3,0,0.5-0.2,0.5-0.5
			c0-1.7,1.4-3.1,3.1-3.1c0.3,0,0.5-0.3,0.5-0.5c0-0.3-0.2-0.5-0.5-0.5c-1.7,0-3.1-1.4-3.1-3.1c0-0.3-0.3-0.5-0.5-0.5
			c-0.3,0-0.5,0.2-0.5,0.5c0,1.7-1.4,3.1-3.1,3.1C57.3,73.8,57,74,57,74.3z"/>
	</g>
	<g>
		<path class="st1" d="M33.8,49.4l-2.4,0.4l0,0.2c-9.5,3.1-14.7,13.3-11.6,22.8c2.5,7.7,9.9,12.8,18,12.4l0,0.2l2.4-0.4
			c9.8-1.7,16.4-11.1,14.6-20.9c-1.7-9.8-11.1-16.4-20.9-14.6C33.9,49.4,33.8,49.4,33.8,49.4z"/>
	</g>
	<g>
		<path class="st2" d="M37.9,85.7c-0.1,0-0.2-0.1-0.3-0.2c-0.2,0-0.4,0-0.6,0c-7.9,0-15-5.1-17.5-12.7c-1.5-4.7-1.1-9.6,1.1-14
			c2.2-4.3,5.9-7.5,10.4-9.1c0,0,0-0.1,0.1-0.1c0-0.1,0.1-0.1,0.2-0.1l2.6-0.5c4.8-0.9,9.7,0.2,13.7,3c4,2.8,6.7,7,7.6,11.9
			c1.8,10-4.9,19.5-14.9,21.3L37.9,85.7C37.9,85.7,37.9,85.7,37.9,85.7z M37.8,84.9c0.1,0,0.2,0,0.2,0.1l2.1-0.4
			c4.7-0.8,8.7-3.4,11.4-7.3c2.7-3.9,3.8-8.6,2.9-13.3c-0.8-4.7-3.4-8.7-7.3-11.4c-3.9-2.7-8.6-3.8-13.3-2.9l-0.2,0c0,0,0,0,0,0
			l-2.1,0.4c0,0.1-0.1,0.2-0.2,0.2c-4.5,1.5-8.2,4.6-10.3,8.8c-2.1,4.2-2.5,9-1.1,13.5C22.6,80.3,29.9,85.3,37.8,84.9
			C37.8,84.9,37.8,84.9,37.8,84.9z M33.8,49.4L33.8,49.4L33.8,49.4z"/>
	</g>
	<g>
		<circle class="st0" cx="34.6" cy="67.7" r="18.1"/>
	</g>
	<g>
		<circle class="st1" cx="34.6" cy="67.7" r="15.4"/>
	</g>
	<g>
		<path class="st2" d="M34.6,86c-8.7,0-16.4-6.2-18.1-15.1c-0.9-4.8,0.2-9.7,3-13.7s7-6.7,11.8-7.6c4.8-0.9,9.7,0.2,13.7,3
			c4,2.8,6.7,7,7.6,11.8c0.9,4.8-0.2,9.7-3,13.7c-2.8,4-7,6.7-11.8,7.6C36.8,85.9,35.7,86,34.6,86z M34.7,49.9
			c-1.1,0-2.2,0.1-3.2,0.3c-4.7,0.9-8.7,3.5-11.4,7.4c-2.7,3.9-3.7,8.6-2.9,13.3c1.6,8.5,9,14.6,17.4,14.6c1.1,0,2.1-0.1,3.2-0.3
			c4.7-0.9,8.7-3.5,11.4-7.4c2.7-3.9,3.7-8.6,2.9-13.3c-0.9-4.7-3.5-8.7-7.4-11.4C41.7,51,38.2,49.9,34.7,49.9z"/>
	</g>
	<g>
		<circle class="st0" cx="34.6" cy="67.7" r="14.4"/>
	</g>
	<g>
		<path class="st2" d="M34.6,82.4c-7,0-13.2-5-14.5-12.1c-1.5-8,3.8-15.7,11.8-17.1l0,0C40,51.7,47.6,57,49.1,65
			c0.7,3.9-0.1,7.8-2.4,11c-2.2,3.2-5.6,5.4-9.5,6.1C36.4,82.3,35.5,82.4,34.6,82.4z M32.1,53.8c-7.6,1.4-12.7,8.7-11.3,16.4
			C22,77,28,81.7,34.6,81.7c0.8,0,1.7-0.1,2.5-0.2c3.7-0.7,6.9-2.8,9.1-5.8c2.1-3.1,2.9-6.8,2.3-10.5C47.1,57.5,39.7,52.4,32.1,53.8
			L32.1,53.8z"/>
	</g>
	<g>
		<path class="st2" d="M51.7,64.9c-0.1,0-0.3-0.1-0.3-0.3c0-0.2,0.1-0.3,0.3-0.4l3.1-0.6c0.2,0,0.3,0.1,0.4,0.3
			c0,0.2-0.1,0.3-0.3,0.4L51.7,64.9C51.7,64.9,51.7,64.9,51.7,64.9z"/>
	</g>
	<g>
		<path class="st2" d="M16.9,71.2c-0.1,0-0.3-0.1-0.3-0.3c0-0.2,0.1-0.3,0.3-0.4l0.7-0.1c0.2,0,0.3,0.1,0.4,0.3
			c0,0.2-0.1,0.3-0.3,0.4L16.9,71.2C16.9,71.2,16.9,71.2,16.9,71.2z"/>
	</g>
	<g>
		<path class="st2" d="M20.9,79.7c-0.1,0-0.2,0-0.2-0.1c-0.1-0.1-0.1-0.3,0-0.4l0.6-0.5c0.1-0.1,0.3-0.1,0.4,0
			c0.1,0.1,0.1,0.3,0,0.4l-0.6,0.5C21,79.6,20.9,79.7,20.9,79.7z"/>
	</g>
	<g>
		<path class="st2" d="M47.8,56.8c-0.1,0-0.2,0-0.2-0.1c-0.1-0.1-0.1-0.3,0-0.4l0.6-0.5c0,0,0.1-0.1,0.1-0.1l2.4-0.4
			c0.2,0,0.3,0.1,0.4,0.3c0,0.2-0.1,0.3-0.3,0.4l-2.3,0.4L48,56.7C48,56.7,47.9,56.8,47.8,56.8z"/>
	</g>
	<g>
		<path class="st2" d="M23.4,54.8c-0.1,0-0.2,0-0.2-0.1l-0.5-0.6c-0.1-0.1-0.1-0.3,0-0.4c0.1-0.1,0.3-0.1,0.4,0l0.5,0.6
			c0.1,0.1,0.1,0.3,0,0.4C23.6,54.8,23.5,54.8,23.4,54.8z"/>
	</g>
	<g>
		<path class="st2" d="M46.3,81.7c-0.1,0-0.2,0-0.2-0.1L45.6,81c-0.1-0.1-0.1-0.3,0-0.4c0.1-0.1,0.3-0.1,0.4,0l0.4,0.4l2.2-0.4
			c0.2,0,0.3,0.1,0.4,0.3c0,0.2-0.1,0.3-0.3,0.4L46.3,81.7C46.4,81.7,46.3,81.7,46.3,81.7z"/>
	</g>
	<g>
		<path class="st2" d="M51.6,74c0,0-0.1,0-0.1,0l-0.7-0.3c-0.2-0.1-0.2-0.2-0.2-0.4c0.1-0.2,0.2-0.3,0.4-0.2l0.6,0.2l2.2-0.4
			c0.2,0,0.3,0.1,0.4,0.3c0,0.2-0.1,0.3-0.3,0.4L51.6,74C51.7,74,51.7,74,51.6,74z"/>
	</g>
	<g>
		<path class="st2" d="M18.3,62.2c0,0-0.1,0-0.1,0l-0.7-0.3c-0.2-0.1-0.2-0.2-0.2-0.4c0.1-0.2,0.2-0.3,0.4-0.2l0.7,0.3
			c0.2,0.1,0.2,0.2,0.2,0.4C18.6,62.1,18.5,62.2,18.3,62.2z"/>
	</g>
	<g>
		<path class="st2" d="M40.4,51.7c0,0-0.1,0-0.1,0c-0.2-0.1-0.2-0.2-0.2-0.4l0.3-0.7c0-0.1,0.1-0.2,0.2-0.2l2.4-0.4
			c0.2,0,0.3,0.1,0.4,0.3c0,0.2-0.1,0.3-0.3,0.4l-2.2,0.4l-0.2,0.5C40.7,51.6,40.6,51.7,40.4,51.7z"/>
	</g>
	<g>
		<path class="st2" d="M28.6,85c0,0-0.1,0-0.1,0c-0.2-0.1-0.2-0.2-0.2-0.4l0.3-0.7c0.1-0.2,0.2-0.2,0.4-0.2c0.2,0.1,0.2,0.2,0.2,0.4
			l-0.3,0.7C28.8,84.9,28.7,85,28.6,85z"/>
	</g>
	<g>
		<circle class="st3" cx="34.6" cy="67.7" r="12.5"/>
	</g>
	<g>
		<path class="st2" d="M37.9,85.7c-0.1,0-0.3-0.1-0.3-0.3l-0.1-0.7c0-0.2,0.1-0.3,0.3-0.4c0.2,0,0.3,0.1,0.4,0.3l0.1,0.7
			C38.2,85.5,38.1,85.7,37.9,85.7C37.9,85.7,37.9,85.7,37.9,85.7z"/>
	</g>
	<g>
		<path class="st2" d="M31.5,50.9c-0.1,0-0.3-0.1-0.3-0.3l-0.1-0.7c0-0.2,0.1-0.3,0.3-0.4c0.2,0,0.3,0.1,0.4,0.3l0.1,0.7
			C31.9,50.7,31.7,50.9,31.5,50.9C31.5,50.9,31.5,50.9,31.5,50.9z"/>
	</g>
	<g>
		<path class="st0" d="M31.8,73.2c-0.1,0-0.3-0.1-0.3-0.3c0-0.2,0.1-0.3,0.3-0.4l5.7-1c1.1-0.2,1.8-1.2,1.6-2.3
			c-0.2-1.1-1.2-1.8-2.3-1.6l-4,0.7c-1.4,0.3-2.8-0.7-3.1-2.1c-0.3-1.4,0.7-2.8,2.1-3.1l5.7-1c0.2,0,0.3,0.1,0.4,0.3
			c0,0.2-0.1,0.3-0.3,0.4l-5.7,1c-1.1,0.2-1.8,1.2-1.6,2.3c0.2,1.1,1.2,1.8,2.3,1.6l4-0.7c1.4-0.3,2.8,0.7,3.1,2.1
			c0.3,1.4-0.7,2.8-2.1,3.1L31.8,73.2C31.8,73.2,31.8,73.2,31.8,73.2z"/>
	</g>
	<g>
		<path class="st0" d="M33.8,63.4c-0.1,0-0.3-0.1-0.3-0.3L33.1,61c0-0.2,0.1-0.3,0.3-0.4c0.2,0,0.3,0.1,0.4,0.3l0.4,2.2
			C34.1,63.2,34,63.4,33.8,63.4C33.8,63.4,33.8,63.4,33.8,63.4z"/>
	</g>
	<g>
		<path class="st0" d="M35.9,74.7c-0.1,0-0.3-0.1-0.3-0.3l-0.4-2.2c0-0.2,0.1-0.3,0.3-0.4c0.2,0,0.3,0.1,0.4,0.3l0.4,2.2
			C36.2,74.5,36.1,74.6,35.9,74.7C35.9,74.7,35.9,74.7,35.9,74.7z"/>
	</g>
</g>
</svg>
