<?xml version="1.0" encoding="utf-8"?>
<!-- Generator: Adobe Illustrator 24.0.1, SVG Export Plug-In . SVG Version: 6.00 Build 0)  -->
<svg version="1.1" id="Layer_1" xmlns="http://www.w3.org/2000/svg" xmlns:xlink="http://www.w3.org/1999/xlink" x="0px" y="0px"
	 viewBox="0 0 100.18 88.69" style="enable-background:new 0 0 100.18 88.69;" xml:space="preserve">
<style type="text/css">
	.st0{opacity:0.6;fill:url(#SVGID_3_);}
	.st1{fill:none;stroke:#FFFFFF;stroke-miterlimit:10;}
	.st2{fill:#00B4D0;}
	.st3{opacity:0.7;}
	.st4{fill:#381460;}
	.st5{fill:#F7FCFC;}
	.st6{opacity:0.1;fill:#FFFFFF;}
	.st7{fill:#FFFFFF;}
	.st8{opacity:0.5;fill:#FFFFFF;}
	.st9{opacity:0.1;}
	.st10{fill-rule:evenodd;clip-rule:evenodd;fill:#381460;}
	.st11{fill-rule:evenodd;clip-rule:evenodd;fill:#FFFFFF;}
	.st12{opacity:0.6;}
	.st13{fill:#58595B;}
	.st14{clip-path:url(#SVGID_9_);}
	.st15{opacity:0.95;}
	.st16{fill:none;stroke:#381460;stroke-width:3;stroke-miterlimit:10;}
	.st17{fill:none;stroke:#00B4D0;stroke-miterlimit:10;}
</style>
<g>
	<path class="st4" d="M54.73,3.57h-1.67c-0.09,0-0.17-0.08-0.17-0.17V1.73c0-0.09,0.08-0.17,0.17-0.17h1.67
		c0.09,0,0.17,0.08,0.17,0.17V3.4C54.9,3.49,54.82,3.57,54.73,3.57z"/>
	<path class="st4" d="M59.64,3.57h-1.67c-0.09,0-0.17-0.08-0.17-0.17V1.73c0-0.09,0.08-0.17,0.17-0.17h1.67
		c0.09,0,0.17,0.08,0.17,0.17V3.4C59.81,3.49,59.73,3.57,59.64,3.57z"/>
	<path class="st4" d="M64.52,3.57h-1.67c-0.09,0-0.17-0.08-0.17-0.17V1.73c0-0.09,0.08-0.17,0.17-0.17h1.67
		c0.09,0,0.17,0.08,0.17,0.17V3.4C64.7,3.49,64.62,3.57,64.52,3.57z"/>
	<path class="st4" d="M69.4,3.57h-1.67c-0.09,0-0.17-0.08-0.17-0.17V1.73c0-0.09,0.08-0.17,0.17-0.17h1.67
		c0.09,0,0.17,0.08,0.17,0.17V3.4C69.57,3.49,69.5,3.57,69.4,3.57z"/>
	<path class="st4" d="M74.87,46c0.53-0.38,1.03-0.74,1.54-1.08c0.04-0.02,0.17,0.03,0.21,0.08c0.35,0.48,0.69,0.97,1.06,1.49
		c-0.45,0.32-0.87,0.62-1.3,0.93c-0.34,0.24-0.35,0.24-0.6-0.12C75.48,46.88,75.19,46.45,74.87,46z"/>
	<path class="st4" d="M46.48,85.13c0.25,0,0.5,0.01,0.76,0c0.17,0,0.26,0.05,0.26,0.24c-0.01,0.5-0.01,1.01,0,1.51
		c0,0.18-0.08,0.25-0.25,0.25c-0.5,0-1.01,0-1.51,0c-0.19,0-0.27-0.07-0.27-0.27c0.01-0.49,0.01-0.99,0-1.48
		c0-0.2,0.08-0.27,0.27-0.26C45.98,85.13,46.23,85.12,46.48,85.13C46.48,85.13,46.48,85.13,46.48,85.13z"/>
	<path class="st4" d="M72.58,42.74c0.53-0.38,1.03-0.74,1.53-1.09c0.04-0.03,0.18,0.02,0.21,0.07c0.33,0.44,0.65,0.89,0.95,1.35
		c0.04,0.06,0,0.22-0.05,0.26c-0.44,0.33-0.89,0.65-1.35,0.95c-0.05,0.03-0.21-0.01-0.25-0.07C73.28,43.74,72.95,43.25,72.58,42.74z
		"/>
	<path class="st4" d="M36.69,87.13c-0.24,0-0.48-0.01-0.72,0c-0.19,0.01-0.28-0.05-0.27-0.25c0.01-0.5,0.01-1.01,0-1.51
		c0-0.18,0.06-0.25,0.24-0.25c0.5,0.01,1.01,0.01,1.51,0c0.17,0,0.26,0.04,0.26,0.24c-0.01,0.51-0.01,1.03,0,1.54
		c0,0.19-0.08,0.24-0.26,0.24C37.19,87.12,36.94,87.13,36.69,87.13C36.69,87.13,36.69,87.13,36.69,87.13z"/>
	<path class="st4" d="M31.77,85.13c0.26,0,0.52,0,0.78,0c0.18,0,0.25,0.06,0.25,0.25c-0.01,0.5-0.01,1.01,0,1.51
		c0,0.18-0.09,0.25-0.26,0.25c-0.5,0-1.01,0.01-1.51-0.01c-0.08,0-0.21-0.13-0.21-0.2c-0.02-0.53-0.01-1.07-0.01-1.6
		c0-0.16,0.08-0.2,0.23-0.2C31.29,85.13,31.53,85.13,31.77,85.13z"/>
	<path class="st4" d="M42.57,86.14c0,0.25,0,0.5,0,0.75c0,0.17-0.06,0.24-0.23,0.24c-0.5,0-1.01,0-1.51,0
		c-0.18,0-0.25-0.07-0.25-0.25c0.01-0.5,0.01-1.01,0-1.51c0-0.19,0.08-0.24,0.26-0.24c0.5,0,1.01,0.01,1.51,0
		c0.17,0,0.23,0.06,0.23,0.23C42.57,85.62,42.57,85.88,42.57,86.14z"/>
	<path class="st4" d="M50.09,1.72c0-0.06-0.16-0.16-0.24-0.16c-0.8,0.02-1.61,0.02-2.41,0.08c-1.29,0.11-2.59,0.23-3.87,0.42
		c-1.36,0.21-2.71,0.47-4.05,0.79c-1.18,0.28-2.34,0.67-3.5,1.03c-0.2,0.06-0.76,0.3-0.87,0.33c-0.26,0.07-0.52,0.16-0.76,0.27
		c-1.34,0.59-2.7,1.15-4,1.8c-2.02,1.01-3.94,2.21-5.77,3.54c-1.82,1.32-3.52,2.77-5.12,4.35c-1.47,1.45-2.84,2.99-4.06,4.66
		c-0.89,1.22-1.73,2.48-2.54,3.75c-0.55,0.87-1.04,1.78-1.51,2.7c0,0-0.17,0.29-0.45,0.84c-0.15,0.28-0.3,0.57-0.42,0.86
		c-0.02,0.04-0.03,0.07-0.05,0.11c-2.36,5.06-7.92,20.01-0.17,35.42c0.15,0.35,0.31,0.7,0.47,1.04c0.65,1.34,1.39,2.63,2.13,3.93
		c0.92,1.62,2.01,3.13,3.17,4.59c1.29,1.62,2.7,3.13,4.2,4.56c0.04,0.04,0.06,0.1,0.11,0.2c-2.95,0-5.84,0-8.74,0
		c0,0.68,0,1.33,0,1.99c4.19,0,8.35,0,12.53,0c0-1.98,0-3.96,0-5.93c0-1.35,0-2.7,0-4.06v-2.39c0-0.14-0.11-0.25-0.25-0.25h-1.45
		c-0.14,0-0.25,0.11-0.25,0.25v0.06c-0.01,0.04-0.01,0.09-0.01,0.14c0.01,1.12,0.01,2.24,0.01,3.37v2.87c0,0,0,0,0,0
		c0,0.78,0,1.56,0,2.35c0,0.11-0.01,0.22-0.02,0.35c-0.08-0.03-0.12-0.03-0.13-0.05c-1.81-1.71-3.5-3.53-5.01-5.52
		c-1.4-1.85-2.65-3.79-3.72-5.85c-1.05-2.02-1.97-4.1-2.62-6.29c-0.41-1.4-0.84-2.79-1.14-4.22c-0.33-1.58-0.51-3.2-0.75-4.8
		c-0.09-0.63-0.16-1.26-0.22-1.89c-0.03-0.31,0-0.62,0-0.93c-0.02,0.01-0.05,0.02-0.07,0.02c0-0.08-0.01-0.16-0.01-0.24
		c0.06-0.04,0.11-0.08,0.12-0.12c0.05-0.22,0.04-0.44-0.14-0.54c0-0.05,0-0.1,0-0.15c0.07-0.11,0.14-0.21,0.14-0.32
		c0.04-0.65,0.02-1.31,0.08-1.96c0.14-1.47,0.27-2.94,0.47-4.41c0.24-1.78,0.65-3.52,1.2-5.23c0.49-1.54,1.06-3.05,1.67-4.55
		c0.14-0.34,0.29-0.67,0.44-1.01c0,0,0,0,0,0c0.72-1.59,1.58-3.12,2.52-4.6c1.28-2.02,2.73-3.92,4.33-5.71
		c1.58-1.76,3.72-3.7,5.1-4.77c0.51-0.39,1.03-0.76,1.53-1.16c0.28-0.22,4.95-3.03,5.59-3.37c0.2-0.11,0.68-0.35,0.77-0.4
		c0.53-0.26,2.74-1.2,3.02-1.29c1.08-0.34,2.13-0.77,3.23-1.06C40,4.81,41.42,4.5,42.85,4.21c2-0.4,4.02-0.59,6.06-0.63
		c0.39-0.01,0.78-0.04,1.19-0.06C50.1,2.91,50.11,2.31,50.09,1.72z"/>
	<path class="st4" d="M93.29,37.17c0-0.09,0-0.18,0-0.27c-0.02-0.07-0.05-0.14-0.08-0.21c-0.55-3.24-1.25-5.3-1.25-5.3l0,0
		c-0.09-0.32-0.18-0.65-0.28-0.97c-0.25-0.85-0.6-1.68-0.91-2.51c-0.31-0.8-0.6-1.61-0.96-2.39c-0.78-1.68-1.65-3.31-2.64-4.87
		c-1.06-1.69-2.2-3.32-3.51-4.82c-1.14-1.3-2.36-2.52-3.55-3.78c-0.03-0.04-0.04-0.09-0.08-0.18c0.16,0,0.28,0,0.4,0
		c0.14,0,0.28,0,0.41,0c0,0,0,0,0,0h0.42c1.83,0,3.66,0,5.49,0c0.06,0,0.13,0,0.19,0h0.78c0.07,0.01,0.13,0.01,0.2,0h0.67
		c0.12,0,0.22-0.1,0.22-0.22v-1.57c0-0.12-0.1-0.22-0.22-0.22h-7.74c0,0,0,0,0,0c-1.43,0-2.86,0-4.29,0c-0.11,0-0.21,0-0.35,0
		c0,0.17,0,0.3,0,0.43c0,3.22,0,6.43,0,9.65c0,0.74,0.06,1.48,0.08,2.23c0.01,0.21,0.1,0.28,0.3,0.28c0.41-0.01,0.83-0.02,1.24,0
		c0.29,0.02,0.37-0.08,0.37-0.37c-0.01-2.86-0.01-5.73-0.01-8.59c0-0.11,0.01-0.23,0.02-0.38c0.09,0.05,0.14,0.07,0.17,0.11
		c1.87,1.75,3.6,3.63,5.13,5.68c1,1.34,1.91,2.74,2.75,4.19c1.02,1.76,1.9,3.59,2.64,5.49c0.45,1.14,0.81,2.31,1.17,3.48
		c0.62,1.98,1.02,4.02,1.3,6.07c0.13,0.95,0.22,1.9,0.27,2.85c0.05,0.95,0.19,1.89,0.1,2.85c-0.01,0.08-0.03,0.83,0.01,0.95
		c0.04,0.12,0.1,0.37-0.01,0.39c-0.58,11.09-4.72,20.6-12.71,28.32c-7.99,7.71-17.66,11.51-28.76,11.68c0,0.6,0.01,1.15,0,1.71
		c-0.01,0.22,0.08,0.28,0.28,0.27c0.42-0.02,0.84-0.03,1.27-0.05c1.16-0.08,2.33-0.16,3.49-0.26c1.85-0.16,3.67-0.5,5.46-0.97
		c1.49-0.39,2.96-0.9,4.43-1.37c0.45-0.14,0.89-0.33,1.31-0.52c1.42-0.64,2.85-1.24,4.23-1.95c1.99-1.03,3.87-2.26,5.66-3.62
		c2.18-1.66,4.2-3.49,6.05-5.53c1.46-1.62,2.81-3.33,4.02-5.14c1.3-1.95,2.47-3.96,3.38-6.12c0.58-1.37,1.13-2.76,1.64-4.16
		c0.35-0.97,0.65-1.95,0.9-2.94c0,0,0,0,0,0C94.38,48.11,94,41.63,93.29,37.17z"/>
	<g>
		<path class="st4" d="M26.68,43.88c0.35-0.49,0.68-0.98,1.05-1.51c-0.53-0.37-1.03-0.74-1.55-1.09c-0.04-0.02-0.15,0-0.18,0.04
			c-0.36,0.5-0.7,1.01-1.07,1.55c0.53,0.37,1.03,0.73,1.54,1.08C26.51,43.97,26.64,43.93,26.68,43.88z"/>
		<path class="st4" d="M22.91,46.33c0.41,0.28,0.82,0.57,1.23,0.84c0.06,0.04,0.22,0.02,0.26-0.03c0.35-0.48,0.69-0.98,1.05-1.51
			c-0.49-0.34-0.97-0.63-1.4-0.98c-0.23-0.18-0.32-0.1-0.44,0.08c-0.26,0.38-0.49,0.78-0.78,1.13
			C22.64,46.09,22.72,46.19,22.91,46.33z"/>
		<path class="st4" d="M85.7,44.1c-0.13-0.21-0.24-0.16-0.38-0.06c-1.07,0.76-2.14,1.5-3.2,2.27c-1.38,1-2.75,2.03-4.13,3.04
			c-0.44,0.32-0.89,0.65-1.37,0.9c-0.43,0.23-0.8,0.1-1.05-0.28c-0.28-0.41-0.55-0.83-0.83-1.24c-1.26-1.84-2.53-3.68-3.79-5.51
			c-1.54-2.24-3.08-4.48-4.63-6.73c-0.31-0.45-0.33-0.69-0.02-1.09c0.13-0.17,0.3-0.33,0.48-0.45c0.89-0.57,1.8-1.12,2.7-1.68
			c1.07-0.68,2.13-1.38,3.2-2.07c0.16-0.1,0.16-0.2,0.06-0.35c-0.29-0.41-0.58-0.82-0.84-1.25c-0.11-0.18-0.21-0.18-0.36-0.09
			c-0.57,0.37-1.13,0.75-1.71,1.12c-1.2,0.76-2.4,1.52-3.62,2.27c-0.67,0.41-1.32,0.85-1.7,1.56c-0.14,0.26-0.3,0.32-0.57,0.32
			c-7.21-0.01-14.42,0-21.62,0c-1.98,0-3.95,0-5.93,0c-0.22,0-0.36-0.04-0.48-0.26c-0.28-0.53-0.69-0.95-1.21-1.27
			c-0.84-0.52-1.68-1.05-2.52-1.58c-1.12-0.71-2.23-1.43-3.34-2.15c-0.15-0.1-0.25-0.11-0.36,0.08c-0.18,0.32-0.4,0.62-0.62,0.93
			c-0.39,0.54-0.39,0.54,0.18,0.9c1.84,1.16,3.68,2.31,5.51,3.49c0.27,0.18,0.48,0.48,0.67,0.75c0.15,0.2,0.11,0.43-0.04,0.65
			c-0.42,0.6-0.83,1.21-1.24,1.81c-0.95,1.38-1.89,2.75-2.84,4.13c-0.82,1.19-1.65,2.38-2.47,3.58c-0.12,0.18-0.24,0.36-0.36,0.54
			l-0.67,0.97c0,0.01-0.01,0.01-0.01,0.02c-0.22,0.32-0.44,0.64-0.66,0.96l-0.06,0.09l0,0c-0.35,0.51-0.69,1.01-1.03,1.52
			c-0.18,0.26-0.38,0.42-0.72,0.4c-0.41-0.02-0.72-0.22-1.03-0.45c-0.59-0.45-1.17-0.91-1.77-1.34c-1.99-1.44-3.98-2.86-5.97-4.29
			c-0.52-0.37-0.53-0.37-0.88,0.13c-0.27,0.38-0.52,0.77-0.78,1.16c1.06,0.75,2.09,1.47,3.1,2.21c1.71,1.25,3.42,2.52,5.12,3.78
			c0.79,0.59,1.66,0.9,2.64,0.79c0.74-0.08,1.35-0.4,1.78-1.03c0.2-0.29,0.42-0.57,0.64-0.87c0.05,0.04,0.09,0.06,0.12,0.08
			c0.05,0.04,0.09,0.08,0.14,0.12c0.71,0.66,1.3,1.4,1.68,2.31c0.11,0.26,0.1,0.36-0.11,0.54c-1.02,0.85-1.42,1.96-1.32,3.27
			c0.14,1.95,1.97,3.53,3.62,3.55c0.28,0,0.56,0.03,0.84,0.04c0.07,0.33,0.1,0.67,0.21,0.99c0.1,0.3,0.44,0.49,0.38,0.88
			c-0.01,0.09,0.12,0.21,0.2,0.29c0.28,0.29,0.53,0.61,0.85,0.84c0.84,0.62,1.79,0.88,2.84,0.72c0.21-0.03,0.3,0,0.34,0.24
			c0.18,1.1,0.73,1.98,1.65,2.62c0.85,0.59,1.8,0.78,2.81,0.64c0.32-0.04,0.45,0.06,0.51,0.37c0.09,0.5,0.34,0.94,0.67,1.33
			c1.31,1.59,3.68,1.74,5.19,0.32c0.17-0.16,0.29-0.21,0.54-0.08c1,0.51,2.06,0.59,3.11,0.2c1.52-0.56,2.46-1.65,2.7-3.28
			c0.01-0.09,0.05-0.18,0.1-0.32c1.33,1.14,2.77,1.57,4.41,1c1.64-0.58,2.48-1.83,2.72-3.53c2.65,1.62,6.01,0.09,6.39-3.13
			c0.15,0.09,0.28,0.17,0.41,0.25c0.72,0.44,1.5,0.56,2.34,0.59c0.88,0.03,1.53-0.49,2.25-0.81c0.33-0.15,0.57-0.51,0.82-0.81
			c0.38-0.48,0.6-1.03,0.74-1.63c0.34-1.43-0.27-3.2-1.46-4.05c-0.99-0.71-2.02-1.38-3.02-2.06c-1.65-1.12-3.29-2.24-4.94-3.36
			c-1.65-1.12-3.3-2.23-4.96-3.33c-0.12-0.08-0.29-0.13-0.44-0.14c-0.81-0.01-1.61-0.01-2.42,0c-0.83,0.01-1.62-0.16-2.36-0.54
			c-0.89-0.45-1.55-1.14-1.88-2.09c-0.17-0.5-0.26-1.02-0.4-1.57c-0.09,0-0.21-0.02-0.33-0.02c-2.12,0-4.23,0-6.35,0
			c-0.68,0-1.35,0.01-2.03,0c-0.23,0-0.3,0.08-0.33,0.31c-0.17,1.2-0.44,2.38-1.11,3.41c-0.49,0.76-1.15,1.33-2.11,1.43
			c-0.2,0.02-0.28-0.02-0.28-0.23c0-1.69,0-3.39,0.01-5.08c0-0.11,0.1-0.27,0.19-0.33c1.9-1.07,3.81-2.14,5.72-3.2
			c0.29-0.16,0.63-0.33,0.94-0.33c5.69-0.02,11.39-0.01,17.08-0.01c0.12,0,0.24-0.01,0.36,0.01c0.08,0.01,0.19,0.04,0.23,0.11
			c0.42,0.64,0.82,1.3,1.26,1.93c1.56,2.29,3.12,4.58,4.69,6.87c1.2,1.75,2.41,3.49,3.6,5.25c0.48,0.7,1.07,1.22,1.93,1.34
			c1.02,0.14,1.92-0.17,2.74-0.77c2.37-1.74,4.75-3.48,7.12-5.21c0.36-0.26,0.73-0.52,1.11-0.79C86.34,45.04,86,44.58,85.7,44.1z
			 M31.42,58.31c-1.02,0-1.94-0.93-1.93-1.96c0.01-1,0.86-1.85,1.87-1.85c1.02,0,1.98,0.96,1.98,1.96
			C33.32,57.36,32.47,58.34,31.42,58.31z M37.56,61.2c-0.42,0.55-0.95,0.88-1.84,0.87c-0.8,0-1.61-0.77-1.76-1.73
			c-0.09-0.6,0.17-1.01,0.5-1.43c0.12-0.15,0.19-0.34,0.28-0.51c0.03-0.05,0.04-0.12,0.08-0.16c0.37-0.42,0.71-0.87,1.11-1.26
			c0.72-0.71,1.82-0.7,2.59-0.03c0.73,0.65,0.86,1.77,0.29,2.56C38.4,60.08,37.98,60.64,37.56,61.2z M42.3,64.72
			c-0.44,0.6-0.95,0.86-2,0.86c-0.48-0.02-1.05-0.41-1.39-1.11c-0.32-0.67-0.25-1.33,0.19-1.93c0.82-1.12,1.66-2.23,2.48-3.35
			c0.83-1.14,2.68-0.96,3.28,0.31c0.36,0.77,0.24,1.47-0.26,2.14C43.82,62.66,43.06,63.69,42.3,64.72z M44.86,68.49
			c-1-0.17-1.6-1.36-1.07-2.23c0.24-0.4,0.56-0.78,0.93-1.07c0.46-0.36,1.02-0.34,1.53-0.05c0.52,0.3,0.83,0.75,0.82,1.27
			C47.08,67.64,45.93,68.67,44.86,68.49z M40.62,37.63c-0.92,0.51-1.84,1.02-2.75,1.55c-0.1,0.06-0.2,0.23-0.2,0.35
			c-0.01,2.62-0.01,5.24-0.01,7.86c0,0.19,0.08,0.26,0.24,0.33c2,0.79,4.45,0.04,5.67-1.72c0.61-0.89,1.04-1.85,1.28-2.9
			c0.04-0.18,0.14-0.27,0.34-0.27c1.72,0,3.45,0,5.17,0c0.16,0,0.26,0.05,0.33,0.23c0.48,1.25,1.28,2.26,2.42,2.98
			c1,0.63,2.1,0.95,3.27,1c0.75,0.04,1.51,0.01,2.27,0.03c0.15,0,0.32,0.05,0.44,0.13c1.76,1.18,3.52,2.37,5.28,3.56
			c1.38,0.94,2.76,1.87,4.14,2.81c0.9,0.61,1.81,1.22,2.71,1.83c0.73,0.5,1.07,1.2,0.94,2.07c-0.14,0.89-0.7,1.47-1.55,1.71
			c-0.64,0.18-1.25,0-1.8-0.38c-1.7-1.16-3.4-2.32-5.11-3.48l-0.96-0.66c-0.27-0.19-0.54-0.38-0.82-0.56l-1.45-1
			c-0.1-0.08-0.21-0.15-0.32-0.23c-1.02-0.71-2.05-1.4-3.07-2.11c-0.17-0.12-0.24-0.11-0.35,0.06c-0.32,0.48-0.66,0.95-1.01,1.46
			c0.53,0.37,1.04,0.73,1.56,1.08c0.52,0.36,1.04,0.72,1.56,1.07c1.54,1.05,3.09,2.1,4.63,3.16c0.54,0.37,1.09,0.75,1.55,1.21
			c0.6,0.59,0.65,1.56,0.23,2.29c-0.47,0.81-1.32,1.26-2.17,1.03c-0.43-0.11-0.86-0.34-1.23-0.59c-1.51-1.02-3.01-2.06-4.51-3.1
			c-1.26-0.87-2.53-1.73-3.79-2.6c-0.17-0.12-0.27-0.08-0.37,0.07c-0.29,0.44-0.59,0.88-0.89,1.32c-0.11,0.17-0.13,0.27,0.09,0.42
			c1.81,1.18,3.61,2.38,5.41,3.57c0.69,0.45,1.24,0.98,1.34,1.85c0.1,0.88-0.63,1.9-1.47,2.14c-0.77,0.22-1.41,0.01-2.03-0.43
			c-1.74-1.25-3.48-2.49-5.22-3.74c-0.18-0.13-0.3-0.15-0.44,0.07c-0.31,0.47-0.65,0.93-1,1.42c0.59,0.41,1.19,0.78,1.74,1.22
			c0.78,0.62,1.42,1.31,1.21,2.47c-0.21,1.15-1.45,1.93-2.57,1.6c-0.43-0.13-0.44-0.13-0.36-0.56c0.25-1.43-0.13-2.66-1.29-3.56
			c-0.45-0.34-1.02-0.52-1.54-0.78c0.15-0.26,0.38-0.59,0.54-0.94c0.41-0.89,0.45-1.83,0.18-2.77c-0.27-0.94-0.81-1.7-1.67-2.2
			c-1.32-0.78-2.67-0.75-4.03-0.08c-0.22,0.11-0.28,0.08-0.38-0.15c-0.51-1.15-1.38-1.9-2.61-2.19c-1-0.24-1.98-0.11-2.9,0.38
			c-0.19,0.1-0.26,0.05-0.34-0.12c-0.37-0.84-0.99-1.44-1.78-1.87c-0.58-0.31-1.21-0.45-1.86-0.42c-0.26,0.01-0.42-0.06-0.52-0.33
			c-0.54-1.35-1.42-2.46-2.53-3.38c-0.13-0.11-0.13-0.18-0.03-0.32c0.51-0.73,1.01-1.46,1.52-2.2c0.01-0.01,0.01-0.02,0.02-0.03
			l0.32-0.46c0.03-0.01,0.06-0.01,0.09-0.02c-0.01-0.02-0.03-0.04-0.04-0.05l0.39-0.57c0,0,0.01,0,0.01,0c0,0,0-0.01,0-0.01
			l0.21-0.3c0,0,0.01,0,0.01,0c0,0,0-0.01,0-0.01l2.13-3.09l0,0c0.63-0.91,1.25-1.82,1.87-2.73c0.47-0.7,0.91-1.41,1.38-2.11
			c0.06-0.09,0.24-0.14,0.36-0.14c0.93-0.01,1.85-0.01,2.78-0.01c0.76,0,1.53,0,2.29,0c0.1,0,0.21,0.02,0.31,0.03
			c0,0.03,0.01,0.05,0.01,0.08C41.47,37.16,41.04,37.39,40.62,37.63z"/>
	</g>
</g>
</svg>
