<?xml version="1.0" encoding="utf-8"?>
<!-- Generator: Adobe Illustrator 24.0.1, SVG Export Plug-In . SVG Version: 6.00 Build 0)  -->
<svg version="1.1" id="Layer_1" xmlns="http://www.w3.org/2000/svg" xmlns:xlink="http://www.w3.org/1999/xlink" x="0px" y="0px"
	 viewBox="0 0 100.18 88.69" style="enable-background:new 0 0 100.18 88.69;" xml:space="preserve">
<style type="text/css">
	.st0{opacity:0.6;fill:url(#SVGID_3_);}
	.st1{fill:none;stroke:#FFFFFF;stroke-miterlimit:10;}
	.st2{fill:#00B4D0;}
	.st3{opacity:0.7;}
	.st4{fill:#381460;}
	.st5{fill:#F7FCFC;}
	.st6{opacity:0.1;fill:#FFFFFF;}
	.st7{fill:#FFFFFF;}
	.st8{opacity:0.5;fill:#FFFFFF;}
	.st9{opacity:0.1;}
	.st10{fill-rule:evenodd;clip-rule:evenodd;fill:#381460;}
	.st11{fill-rule:evenodd;clip-rule:evenodd;fill:#FFFFFF;}
	.st12{opacity:0.6;}
	.st13{fill:#58595B;}
	.st14{clip-path:url(#SVGID_9_);}
	.st15{opacity:0.95;}
	.st16{fill:none;stroke:#381460;stroke-width:3;stroke-miterlimit:10;}
	.st17{fill:none;stroke:#00B4D0;stroke-miterlimit:10;}
</style>
<g>
	<path class="st4" d="M50,47.05c-12.79,0.15-23.31-10.4-23.18-23.18C26.96,10.57,37,0.76,49.89,0.69
		c12.78-0.07,23.1,9.88,23.21,23.23C73.2,36.44,62.87,47.17,50,47.05z M49.97,3.86c-10.94-0.19-20.12,9.08-20.09,20
		c0.04,11.08,8.95,20.12,19.98,20.12c10.91,0,20.03-8.46,20.17-19.92C70.16,12.59,60.72,3.72,49.97,3.86z"/>
	<path class="st4" d="M9.32,74.16c7.09,0.35,13.21,2.19,18.99,5.41c5.06,2.82,10.36,4.96,16.29,5.26c4.25,0.21,8.12-1.17,11.88-2.7
		c9.98-4.07,19.3-9.45,28.46-15.07c2.63-1.61,5.01-3.64,7.36-5.66c0.63-0.54,0.71-1.74,1.04-2.63c-0.92-0.31-1.96-1.06-2.75-0.86
		c-3.06,0.77-6.17,1.55-9.02,2.86c-4.91,2.26-9.63,4.93-14.46,7.38c-0.61,0.31-1.39,0.5-2.05,0.42c-0.44-0.05-1.06-0.62-1.15-1.05
		c-0.09-0.43,0.25-1.21,0.63-1.44c1.94-1.16,3.92-2.26,5.95-3.25c4.69-2.29,9.34-4.68,14.16-6.68c3-1.25,6.2-2.44,9.57-0.77
		c2.33,1.16,3.22,3.98,1.85,6.25c-2.2,3.65-5.71,5.87-9.22,7.89c-8.29,4.76-16.66,9.4-25.16,13.78c-4.66,2.4-9.69,4.3-14.95,4.65
		c-3.23,0.22-6.72-0.31-9.77-1.4c-5.26-1.88-10.2-4.62-15.41-6.68c-2.8-1.1-5.85-1.58-8.8-2.25c-1.39-0.32-2.86-0.3-4.22-0.69
		C7.88,76.76,7,76.03,6.94,75.48c-0.13-1.18,0.89-1.39,1.9-1.32C9.17,74.18,9.5,74.16,9.32,74.16z"/>
	<path class="st4" d="M25.73,48.37c4.87-0.02,8.77,2.18,12.74,4.54c4.43,2.63,9.17,4.76,13.68,7.27c4.3,2.4,8.6,4.87,11,9.51
		c1.78,3.44-0.36,7.11-4.21,7.18c-4.34,0.08-8.18-1.86-12.16-3.17c-5.59-1.84-11.07-4.11-17.06-4.36c-1.26-0.05-2.03-0.66-1.92-1.92
		c0.12-1.25,1.08-1.45,2.19-1.33c5.65,0.61,11.01,2.27,16.34,4.16c3.65,1.3,7.4,2.33,11.15,3.3c0.84,0.22,2.35-0.03,2.69-0.59
		c0.4-0.65,0.2-2.2-0.36-2.79c-1.74-1.88-3.57-3.8-5.72-5.13c-3.22-1.99-6.8-3.4-10.13-5.24c-3.44-1.9-6.77-4.01-10.15-6.02
		c-4.4-2.62-9.09-2.45-13.8-1.28c-4.64,1.16-9.2,2.6-13.83,3.82c-1.04,0.28-2.36,0.41-2.64-1.16c-0.27-1.52,0.91-1.74,2.03-2.03
		c3.81-1.01,7.58-2.16,11.41-3.09C19.85,49.34,22.8,48.91,25.73,48.37z"/>
	<path class="st4" d="M79.96,50.76c1.42,0.49,2.86,0.74,4,1.47c0.56,0.36,0.54,1.61,0.79,2.46c-0.74,0.07-1.63,0.43-2.2,0.14
		c-2.06-1.02-4.12-0.86-5.98,0.12c-4.85,2.55-9.61,5.25-14.36,7.99c-1.09,0.63-2.09,1.1-2.88-0.08c-0.88-1.32,0.29-2.02,1.23-2.57
		C65.02,57.68,69.44,55,74,52.6C75.78,51.66,77.9,51.37,79.96,50.76z"/>
	<path class="st4" d="M70.81,48.84c0.93,0.27,1.74,0.37,2.4,0.74c0.32,0.18,0.58,0.93,0.48,1.31c-0.12,0.47-0.68,1.21-1.01,1.19
		c-5.47-0.32-8.77,3.6-12.65,6.37c-0.79,0.56-1.49,1.35-2.36,1.67c-0.74,0.27-1.68,0.03-2.53,0.01c0.26-0.84,0.25-2.02,0.81-2.45
		c3.33-2.54,6.72-5.02,10.24-7.27C67.55,49.54,69.33,49.32,70.81,48.84z"/>
	<path class="st4" d="M64.08,50.06c-0.88,0.81-1.37,1.62-1.78,1.58c-3.76-0.36-5.63,2.49-8,4.5c-0.64,0.54-1.22,1.21-1.95,1.55
		c-0.47,0.22-1.38,0.19-1.72-0.13c-0.36-0.34-0.53-1.25-0.35-1.74c1.02-2.76,8.33-7.41,11.2-7.09C62.27,48.82,63,49.49,64.08,50.06z
		"/>
	<path class="st4" d="M79.61,14.01c0.97,1.44,1.73,2.39,2.22,3.46c0.09,0.21-1.26,1.36-1.33,1.31c-0.93-0.75-1.86-1.56-2.51-2.54
		C77.86,16.03,78.81,15.09,79.61,14.01z"/>
	<path class="st4" d="M88.39,22.88c-1.01,0.85-1.87,1.76-2.02,1.66c-0.97-0.68-1.84-1.53-2.57-2.47c-0.1-0.12,1.06-1.54,1.18-1.48
		C86.03,21.13,86.98,21.88,88.39,22.88z"/>
	<path class="st4" d="M88.38,16.62c-1.4,0.92-2.35,1.64-3.41,2.14c-0.15,0.07-1.26-1.32-1.17-1.44c0.74-0.96,1.62-1.81,2.58-2.55
		C86.48,14.7,87.37,15.68,88.38,16.62z"/>
	<path class="st4" d="M16.17,29.8c0.79,1.21,1.64,2.18,1.51,2.35c-0.74,0.91-1.72,1.61-2.62,2.39c-0.43-0.51-1.32-1.25-1.2-1.5
		C14.32,32.04,15.11,31.21,16.17,29.8z"/>
	<path class="st4" d="M82.72,22.09c-1.42,1.09-2.31,1.9-3.34,2.44c-0.19,0.1-1.44-1.28-1.39-1.35c0.74-0.95,1.56-1.88,2.52-2.6
		C80.68,20.45,81.56,21.28,82.72,22.09z"/>
	<path class="st4" d="M10.94,36.21c0.33,0.55,1.07,1.41,0.93,1.6c-0.71,0.94-1.66,1.7-2.53,2.52c-0.44-0.54-1.38-1.33-1.25-1.58
		c0.49-0.98,1.32-1.79,2.03-2.67C10.39,36.13,10.67,36.17,10.94,36.21z"/>
	<path class="st4" d="M10.47,35.4c-1.09-1.43-1.88-2.29-2.37-3.28c-0.11-0.22,0.78-1.28,1.34-1.4c1.13-0.26,2.63,1.24,2.46,2.42
		C11.81,33.72,11.23,34.23,10.47,35.4z"/>
	<path class="st4" d="M15.29,35.58c1.08,1.46,1.86,2.34,2.38,3.36c0.09,0.18-1.33,1.38-1.39,1.33c-0.91-0.76-1.78-1.59-2.44-2.56
		C13.71,37.52,14.5,36.71,15.29,35.58z"/>
	<path class="st4" d="M20.74,11.52c0.83,1.12,1.62,1.74,1.67,2.41c0.04,0.52-0.85,1.12-1.32,1.68c-0.65-0.57-1.56-1.03-1.83-1.74
		C19.1,13.46,19.99,12.66,20.74,11.52z"/>
	<path class="st4" d="M84.38,44c-0.77-1.05-1.7-1.8-1.58-2.27c0.18-0.67,1.06-1.31,1.79-1.6c0.27-0.11,1.42,0.93,1.35,1.25
		C85.76,42.18,85.1,42.87,84.38,44z"/>
	<path class="st4" d="M23.3,9.67c-1.19,0.94-1.81,1.73-2.57,1.89c-0.4,0.09-1.04-0.92-1.57-1.44c0.64-0.61,1.21-1.4,1.97-1.74
		C21.46,8.23,22.2,8.98,23.3,9.67z"/>
	<path class="st4" d="M86.74,37.59c-0.96,0.78-1.66,1.66-1.96,1.54c-0.79-0.31-1.4-1.07-2.09-1.65c0.55-0.55,1.1-1.54,1.64-1.53
		C84.99,35.96,85.64,36.8,86.74,37.59z"/>
	<path class="st4" d="M90.68,37.59c-1.05,0.73-1.7,1.52-2.37,1.53c-0.5,0.01-1.02-0.98-1.54-1.52c0.67-0.59,1.27-1.33,2.05-1.66
		C89.09,35.83,89.8,36.78,90.68,37.59z"/>
	<path class="st4" d="M90.76,41.73c-1.04,0.8-1.87,1.7-2.1,1.57c-0.75-0.45-1.28-1.26-1.9-1.93c0.54-0.44,1.13-1.28,1.62-1.23
		C89.07,40.22,89.68,40.96,90.76,41.73z"/>
	<path class="st4" d="M16.98,12.43c-0.74-1.29-1.38-2-1.51-2.8c-0.06-0.36,0.91-0.88,1.41-1.33c0.53,0.6,1.32,1.14,1.48,1.83
		C18.48,10.59,17.71,11.27,16.98,12.43z"/>
	<path class="st4" d="M17.39,12.03c0.36,0.57,1.12,1.28,0.99,1.7c-0.23,0.72-1.02,1.26-1.57,1.88c-0.47-0.51-1.35-1.05-1.31-1.51
		c0.06-0.72,0.74-1.38,1.16-2.07C16.9,12.02,17.15,12.03,17.39,12.03z"/>
	<g>
		<path class="st4" d="M49.59,36.05v-1.34c-1.64-0.12-2.91-0.74-3.81-1.87c-0.9-1.12-1.4-2.58-1.5-4.38l3.03-0.76
			c0.08,2.31,0.75,3.77,2.03,4.36l0.25,0.09v-6.57l-3.03-2.43c-0.69-0.56-1.25-1.26-1.66-2.09c-0.41-0.83-0.62-1.79-0.62-2.86
			c0-1.56,0.49-2.81,1.46-3.73s2.26-1.39,3.86-1.39v-1.3h1.52v1.43l0.49,0.11c2.49,0.68,3.85,2.44,4.06,5.28l-3.03,0.76
			c-0.07-1.48-0.5-2.55-1.28-3.19l-0.24-0.18v6.7l1.52,1.21c0.89,0.69,1.62,1.53,2.19,2.52c0.56,0.98,0.85,2.1,0.85,3.35
			c0,1.43-0.41,2.57-1.23,3.42c-0.82,0.85-1.93,1.35-3.32,1.5v1.34H49.59z M49.59,21.49v-5.91c-0.73,0-1.29,0.21-1.68,0.62
			c-0.39,0.41-0.59,0.98-0.59,1.69c0,1.2,0.51,2.2,1.52,3L49.59,21.49z M51.11,32.18c1.01-0.23,1.52-0.96,1.52-2.2
			c0-0.62-0.11-1.15-0.33-1.6c-0.22-0.45-0.54-0.88-0.95-1.29l-0.24-0.24V32.18z"/>
	</g>
</g>
</svg>
