<?xml version="1.0" encoding="utf-8"?>
<!-- Generator: Adobe Illustrator 24.0.1, SVG Export Plug-In . SVG Version: 6.00 Build 0)  -->
<svg version="1.1" id="Layer_1" xmlns="http://www.w3.org/2000/svg" xmlns:xlink="http://www.w3.org/1999/xlink" x="0px" y="0px"
	 viewBox="0 0 100.18 88.69" style="enable-background:new 0 0 100.18 88.69;" xml:space="preserve">
<style type="text/css">
	.st0{opacity:0.6;fill:url(#SVGID_3_);}
	.st1{fill:none;stroke:#FFFFFF;stroke-miterlimit:10;}
	.st2{fill:#00B4D0;}
	.st3{opacity:0.7;}
	.st4{fill:#381460;}
	.st5{fill:#F7FCFC;}
	.st6{opacity:0.1;fill:#FFFFFF;}
	.st7{fill:#FFFFFF;}
	.st8{opacity:0.5;fill:#FFFFFF;}
	.st9{opacity:0.1;}
	.st10{fill-rule:evenodd;clip-rule:evenodd;fill:#381460;}
	.st11{fill-rule:evenodd;clip-rule:evenodd;fill:#FFFFFF;}
	.st12{opacity:0.6;}
	.st13{fill:#58595B;}
	.st14{clip-path:url(#SVGID_9_);}
	.st15{opacity:0.95;}
	.st16{fill:none;stroke:#381460;stroke-width:3;stroke-miterlimit:10;}
	.st17{fill:none;stroke:#00B4D0;stroke-miterlimit:10;}
</style>
<g>
	<path class="st4" d="M87.59,77.68c-1.43,0-2.86,0-4.28-0.01c-3.51-0.02-5.47-1.96-5.53-5.48l0-0.26c-0.01-1.03-0.01-2.05-0.1-2.45
		c-0.4-0.08-1.37-0.08-2.32-0.08l-52.74,0v2.84c0,0.43-0.06,0.85-0.18,1.33c-0.4,2.17-2.12,3.75-4.39,4.03
		c-0.27,0.05-0.57,0.08-0.87,0.08H6.92c-3,0-5.43-2.44-5.43-5.43v-2.77c-0.06-0.38-0.04-0.74-0.03-1.03c0-0.1,0.01-0.21,0.01-0.31
		c0-2.23,0-4.45,0.01-6.68C1.49,56.81,1.49,52,1.44,47.28c-0.05-3.83,1.49-6.89,4.68-9.37c0.33-0.25,0.65-0.51,0.98-0.79
		c-1.06-0.41-2-0.76-2.97-1.07c-2.12-0.68-3.37-2.31-3.53-4.57c-0.24-3.43,1.37-5.01,2.76-5.73c1.08-0.56,2.32-0.89,3.5-0.93
		c2.67-0.1,5.44-0.1,8.47-0.01c0.22,0.01,0.31-0.01,0.36-0.02c0-0.02,0.05-0.12,0.1-0.31c0.69-2.29,1.44-4.6,2.17-6.83l0.74-2.27
		c0.81-2.51,2.78-4.07,5.4-4.27c0.48-0.04,0.96-0.04,1.45-0.03l0.34,0c4.46,0,8.92,0,13.38,0.01c11.44,0.01,23.26,0.03,34.89-0.07
		c0.04,0,0.09,0,0.13,0c4.67,0,7.34,2.11,8.65,6.82c0.35,1.27,0.76,2.57,1.16,3.82c0.33,1.04,0.66,2.07,0.96,3.12
		c0,0.01,0.01,0.02,0.01,0.03c0.02,0,0.04,0,0.06,0l0.75-0.01c2.52-0.04,5.12-0.08,7.7,0.02c2.8,0.1,4.25,1.31,4.97,2.31
		c1.12,1.54,1.36,3.69,0.69,6.05l0,0c-0.61,2.14-2.48,2.75-3.85,3.2c-0.32,0.1-0.63,0.2-0.92,0.33c-0.42,0.18-0.84,0.33-1.28,0.48
		c0.24,0.2,0.46,0.39,0.7,0.57c3.37,2.53,4.97,5.93,4.88,10.37c-0.11,5.42-0.09,10.94-0.07,16.28c0.01,2.43,0.02,4.87,0.02,7.3
		c0,4.19-1.78,5.98-5.95,5.99l-0.79,0C90.52,77.68,89.05,77.68,87.59,77.68z M75.36,66.4c4.74,0,5.4,0.66,5.43,5.46l0,0.28
		c0.03,1.88,0.67,2.52,2.54,2.53c2.88,0.01,5.76,0.01,8.65,0l0.79,0c2.48,0,2.95-0.48,2.95-2.99c0-2.43-0.01-4.86-0.02-7.28
		c-0.02-5.36-0.04-10.9,0.07-16.35c0.07-3.51-1.06-5.95-3.68-7.92c-0.65-0.49-1.24-1.03-1.87-1.61c-0.3-0.27-0.61-0.56-0.94-0.86
		l-1.93-1.71l2.45-0.83c0.48-0.16,0.92-0.3,1.33-0.44c0.82-0.26,1.53-0.49,2.18-0.77c0.37-0.15,0.76-0.28,1.15-0.41
		c1.2-0.39,1.74-0.62,1.9-1.17l0,0c0.41-1.44,0.33-2.7-0.23-3.47c-0.48-0.66-1.37-1.02-2.65-1.07c-2.5-0.09-5.06-0.05-7.54-0.02
		l-0.75,0.01c-0.02,0-0.04,0-0.07,0c-1.49,0-2.5-0.75-2.92-2.19c-0.3-1.02-0.62-2.03-0.94-3.05c-0.41-1.28-0.83-2.6-1.19-3.93
		c-0.96-3.48-2.46-4.68-5.86-4.62c-11.64,0.09-23.47,0.08-34.92,0.07c-4.46,0-8.92-0.01-13.37-0.01l-0.36,0
		c-0.4,0-0.8-0.01-1.2,0.02c-1.4,0.11-2.34,0.85-2.78,2.21l-0.74,2.27c-0.72,2.21-1.47,4.51-2.15,6.77
		c-0.51,1.71-1.63,2.54-3.43,2.46c-2.96-0.09-5.67-0.08-8.28,0.01c-0.73,0.03-1.54,0.24-2.22,0.59c-0.65,0.33-1.29,0.94-1.15,2.86
		c0.08,1.06,0.5,1.62,1.46,1.93c1.21,0.39,2.39,0.85,3.65,1.33c0.59,0.23,1.2,0.46,1.86,0.71l2.43,0.91l-3.06,2.53
		c-0.7,0.59-1.33,1.11-1.98,1.61c-2.44,1.89-3.55,4.1-3.52,6.96c0.06,4.74,0.05,9.56,0.04,14.21c0,2.22-0.01,4.44-0.01,6.66
		c0,0.15-0.01,0.31-0.01,0.46c-0.01,0.14-0.02,0.36,0,0.43l0.03,0.32v2.9c0,1.34,1.09,2.43,2.43,2.43h10.26
		c0.14,0,0.28-0.02,0.42-0.05c1.07-0.13,1.73-0.73,1.89-1.64l0.03-0.13c0.07-0.25,0.1-0.44,0.1-0.62V66.4L75.36,66.4z M84.43,53.38
		c-0.6,0-1.19-0.01-1.77-0.02c-0.6-0.01-1.18-0.02-1.79-0.02c-0.58,0-1.17,0-1.75-0.01c-1.34-0.01-2.72-0.02-4.07,0.03
		c-2.18,0.08-3.66-1.11-4.01-3.16c-0.31-1.84,0.82-3.34,2.95-3.92c1.84-0.49,3.71-0.85,5.53-1.19l0.65-0.12
		c1.01-0.19,2.03-0.36,3.04-0.53c1.17-0.2,2.34-0.39,3.51-0.62c1.02-0.2,1.94-0.04,2.66,0.46c0.64,0.45,1.06,1.15,1.19,1.97
		c0.27,1.69,0.25,3.23-0.05,4.57l0,0c-0.31,1.38-2.1,2.36-3.25,2.45C86.32,53.36,85.37,53.38,84.43,53.38z M80.92,50.35
		c0.59,0,1.18,0.01,1.78,0.02c1.5,0.02,2.92,0.04,4.33-0.07c0.14-0.02,0.45-0.18,0.61-0.31c0.17-0.92,0.16-2.04-0.02-3.24
		c-0.06-0.01-0.17-0.01-0.32,0.02c-1.19,0.23-2.39,0.44-3.59,0.64c-1,0.17-1.99,0.33-2.98,0.52l-0.65,0.12
		c-1.76,0.33-3.58,0.67-5.31,1.14c-0.54,0.15-0.8,0.32-0.77,0.52c0.07,0.43,0.17,0.69,0.94,0.66c1.41-0.05,2.82-0.04,4.19-0.03
		C79.74,50.34,80.33,50.33,80.92,50.35z M87.6,50.18C87.6,50.18,87.6,50.18,87.6,50.18L87.6,50.18C87.6,50.18,87.6,50.18,87.6,50.18
		z M26.23,53.36c-0.09,0-0.18-0.01-0.27-0.02H14.03c-3.52,0-4.54-1.02-4.55-4.57l0-0.36c0-0.42-0.01-0.84,0.02-1.26
		c0.03-0.47,0.12-1.92,1.2-2.77c1.06-0.83,2.43-0.59,2.88-0.51l1.13,0.2c3.55,0.63,7.21,1.29,10.81,2.03
		c3.09,0.64,3.33,2.1,3.45,4.42l0.01,0.24c0.06,1.06-0.54,1.97-1.57,2.36C27.2,53.21,26.74,53.36,26.23,53.36z M12.58,50.25
		c0.17,0.04,0.55,0.09,1.45,0.09h11.91c-0.03-0.46-0.06-0.91-0.13-1.05c0.01,0.02-0.17-0.09-0.92-0.25
		c-3.56-0.74-7.2-1.39-10.73-2.02l-1.13-0.2c-0.23-0.04-0.39-0.05-0.47-0.05c-0.03,0.1-0.06,0.27-0.08,0.57
		c-0.02,0.35-0.02,0.69-0.01,1.04l0,0.38C12.48,49.69,12.54,50.09,12.58,50.25z M12.47,46.8L12.47,46.8L12.47,46.8z M79.66,34.27
		H20.13l0.47-1.87c0.29-1.14,0.57-2.26,0.84-3.37c0.66-2.66,1.28-5.17,1.97-7.69l0,0c0.67-2.43,2.79-3.88,5.67-3.88
		c8.49-0.01,16.99,0,25.48,0l6.95,0l8.97,0c3.83,0,5.71,1.4,6.7,5c0.59,2.12,1.09,4.29,1.58,6.39l0.48,2.06
		c0.09,0.39,0.13,0.76,0.16,1.14c0.02,0.17,0.03,0.34,0.06,0.54L79.66,34.27z M23.98,31.27h52.27l-0.41-1.74
		c-0.48-2.07-0.98-4.2-1.55-6.27c-0.64-2.3-1.31-2.8-3.81-2.8H54.57c-8.49,0-16.99,0-25.48,0c-1.06,0-2.39,0.29-2.78,1.68h0
		c-0.69,2.48-1.3,4.97-1.95,7.61C24.23,30.26,24.1,30.77,23.98,31.27z"/>
</g>
</svg>
