<?xml version="1.0" encoding="utf-8"?>
<!-- Generator: Adobe Illustrator 24.0.1, SVG Export Plug-In . SVG Version: 6.00 Build 0)  -->
<svg version="1.1" id="Layer_1" xmlns="http://www.w3.org/2000/svg" xmlns:xlink="http://www.w3.org/1999/xlink" x="0px" y="0px"
	 viewBox="0 0 100 100" style="enable-background:new 0 0 100 100;" xml:space="preserve">
<style type="text/css">
	.st0{fill:#FFFFFF;}
	.st1{fill:#E2E2E2;}
	.st2{fill:#361260;}
	.st3{fill:#03B5D0;}
	.st4{fill:#0074BD;}
	.st5{clip-path:url(#SVGID_2_);}
	.st6{opacity:0.2;enable-background:new    ;}
	.st7{clip-path:url(#SVGID_4_);}
	.st8{clip-path:url(#SVGID_6_);}
	.st9{clip-path:url(#SVGID_8_);}
	.st10{fill:#FFAE0B;}
</style>
<g>
	<g>
		<path class="st0" d="M51,18.4l1.3,2.6c0.1,0.3,0.4,0.5,0.7,0.5l2.9,0.4c0.5,0.1,0.9,0.6,0.8,1.1c0,0.2-0.1,0.4-0.3,0.6l-2.1,2
			c-0.2,0.2-0.3,0.5-0.3,0.9l0.5,2.9c0.1,0.5-0.3,1-0.8,1.1c-0.2,0-0.4,0-0.6-0.1l-2.6-1.4c-0.3-0.1-0.6-0.1-0.9,0l-2.6,1.4
			c-0.5,0.2-1.1,0.1-1.3-0.4c-0.1-0.2-0.1-0.4-0.1-0.6l0.5-2.9c0.1-0.3,0-0.6-0.3-0.9l-2.1-2c-0.4-0.4-0.4-1,0-1.4
			c0.1-0.2,0.3-0.3,0.6-0.3l2.9-0.4c0.3,0,0.6-0.2,0.7-0.5l1.3-2.6c0.2-0.5,0.8-0.7,1.3-0.4C50.7,18.1,50.9,18.2,51,18.4z"/>
		<path class="st2" d="M46.6,30.9c-0.5,0-0.9-0.2-1.1-0.7c-0.1-0.2-0.2-0.5-0.1-0.8l0.5-2.9c0-0.2,0-0.4-0.2-0.6l-2.1-2
			c-0.2-0.2-0.4-0.6-0.4-0.9c0-0.3,0.1-0.7,0.4-0.9c0.2-0.2,0.5-0.3,0.7-0.4l2.9-0.4c0.2,0,0.4-0.2,0.5-0.4l1.3-2.6
			c0.2-0.3,0.4-0.5,0.7-0.6c0.3-0.1,0.7-0.1,1,0.1c0.3,0.1,0.5,0.3,0.6,0.6c0,0,0,0,0,0l1.3,2.6c0.1,0.2,0.3,0.3,0.5,0.4l2.9,0.4
			c0.7,0.1,1.2,0.8,1.1,1.5c0,0.3-0.2,0.5-0.4,0.7l-2.1,2c-0.2,0.1-0.2,0.4-0.2,0.6l0.5,2.9c0.1,0.3,0,0.7-0.2,1
			c-0.2,0.3-0.5,0.5-0.8,0.5c-0.3,0-0.6,0-0.8-0.1l-2.6-1.4c-0.2-0.1-0.4-0.1-0.6,0l-2.6,1.4C47,30.8,46.8,30.9,46.6,30.9z
			 M50.1,18.2c-0.1,0-0.1,0-0.2,0c-0.2,0.1-0.3,0.2-0.4,0.3l-1.3,2.6c-0.2,0.4-0.5,0.6-1,0.7l-2.9,0.4c-0.1,0-0.3,0.1-0.4,0.2
			c-0.1,0.1-0.2,0.3-0.2,0.5c0,0.2,0.1,0.3,0.2,0.5l2.1,2c0.3,0.3,0.4,0.7,0.4,1.1L46,29.5c0,0.1,0,0.3,0.1,0.4
			c0.2,0.3,0.6,0.4,0.9,0.3l2.6-1.4c0.4-0.2,0.8-0.2,1.2,0l2.6,1.4c0.1,0.1,0.3,0.1,0.4,0.1c0.2,0,0.3-0.1,0.4-0.3s0.1-0.3,0.1-0.5
			l-0.5-2.9c-0.1-0.4,0.1-0.8,0.4-1.1l2.1-2c0.1-0.1,0.2-0.2,0.2-0.4c0.1-0.4-0.2-0.7-0.6-0.7L53,21.9c-0.4-0.1-0.8-0.3-1-0.7
			l-1.3-2.6c-0.1-0.1-0.2-0.2-0.3-0.3C50.3,18.2,50.2,18.2,50.1,18.2z"/>
	</g>
	<g>
		<path class="st0" d="M51,18.4l1.3,2.6c0.1,0.3,0.4,0.5,0.7,0.5l2.9,0.4c0.5,0.1,0.9,0.6,0.8,1.1c0,0.2-0.1,0.4-0.3,0.6l-2.1,2
			c-0.2,0.2-0.3,0.5-0.3,0.9l0.5,2.9c0.1,0.5-0.3,1-0.8,1.1c-0.2,0-0.4,0-0.6-0.1l-2.6-1.4c-0.3-0.1-0.6-0.1-0.9,0l-2.6,1.4
			c-0.5,0.2-1.1,0.1-1.3-0.4c-0.1-0.2-0.1-0.4-0.1-0.6l0.5-2.9c0.1-0.3,0-0.6-0.3-0.9l-2.1-2c-0.4-0.4-0.4-1,0-1.4
			c0.1-0.2,0.3-0.3,0.6-0.3l2.9-0.4c0.3,0,0.6-0.2,0.7-0.5l1.3-2.6c0.2-0.5,0.8-0.7,1.3-0.4C50.7,18.1,50.9,18.2,51,18.4z"/>
		<path class="st2" d="M46.6,30.9c-0.5,0-0.9-0.2-1.1-0.7c-0.1-0.2-0.2-0.5-0.1-0.8l0.5-2.9c0-0.2,0-0.4-0.2-0.6l-2.1-2
			c-0.2-0.2-0.4-0.6-0.4-0.9c0-0.3,0.1-0.7,0.4-0.9c0.2-0.2,0.5-0.3,0.7-0.4l2.9-0.4c0.2,0,0.4-0.2,0.5-0.4l1.3-2.6
			c0.2-0.3,0.4-0.5,0.7-0.6c0.3-0.1,0.7-0.1,1,0.1c0.3,0.1,0.5,0.3,0.6,0.6c0,0,0,0,0,0l1.3,2.6c0.1,0.2,0.3,0.3,0.5,0.4l2.9,0.4
			c0.7,0.1,1.2,0.8,1.1,1.5c0,0.3-0.2,0.5-0.4,0.7l-2.1,2c-0.2,0.1-0.2,0.4-0.2,0.6l0.5,2.9c0.1,0.3,0,0.7-0.2,1
			c-0.2,0.3-0.5,0.5-0.8,0.5c-0.3,0-0.6,0-0.8-0.1l-2.6-1.4c-0.2-0.1-0.4-0.1-0.6,0l-2.6,1.4C47,30.8,46.8,30.9,46.6,30.9z
			 M50.1,18.2c-0.1,0-0.1,0-0.2,0c-0.2,0.1-0.3,0.2-0.4,0.3l-1.3,2.6c-0.2,0.4-0.5,0.6-1,0.7l-2.9,0.4c-0.1,0-0.3,0.1-0.4,0.2
			c-0.1,0.1-0.2,0.3-0.2,0.5c0,0.2,0.1,0.3,0.2,0.5l2.1,2c0.3,0.3,0.4,0.7,0.4,1.1L46,29.5c0,0.1,0,0.3,0.1,0.4
			c0.2,0.3,0.6,0.4,0.9,0.3l2.6-1.4c0.4-0.2,0.8-0.2,1.2,0l2.6,1.4c0.1,0.1,0.3,0.1,0.4,0.1c0.2,0,0.3-0.1,0.4-0.3s0.1-0.3,0.1-0.5
			l-0.5-2.9c-0.1-0.4,0.1-0.8,0.4-1.1l2.1-2c0.1-0.1,0.2-0.2,0.2-0.4c0.1-0.4-0.2-0.7-0.6-0.7L53,21.9c-0.4-0.1-0.8-0.3-1-0.7
			l-1.3-2.6c-0.1-0.1-0.2-0.2-0.3-0.3C50.3,18.2,50.2,18.2,50.1,18.2z"/>
	</g>
	<g>
		<path class="st3" d="M80.8,27c0,0.3,0.2,0.5,0.5,0.5l0,0c1.7,0,3.1,1.4,3.1,3.1c0,0.3,0.3,0.5,0.5,0.5c0.3,0,0.5-0.2,0.5-0.5
			c0-1.7,1.4-3.1,3.1-3.1c0.3,0,0.5-0.3,0.5-0.5c0-0.3-0.2-0.5-0.5-0.5c-1.7,0-3.1-1.4-3.1-3.1c0,0,0,0,0,0c0-0.3-0.3-0.5-0.5-0.5
			c-0.3,0-0.5,0.2-0.5,0.5c0,1.7-1.4,3.1-3.1,3.1C81,26.5,80.8,26.7,80.8,27z"/>
	</g>
	<g>
		<path class="st0" d="M4.3,34.9l41.8-4.6c1.2-0.1,2.3,0.7,2.5,2L51.7,61c0.1,1.2-0.7,2.3-2,2.5L8,68.1c-1.2,0.1-2.3-0.7-2.5-2
			L2.3,37.4C2.2,36.2,3.1,35.1,4.3,34.9z"/>
	</g>
	<g>
		<path class="st1" d="M4.7,59.1l0.8,7c0.1,1.2,1.2,2.1,2.5,2c0,0,0,0,0,0l41.8-4.6c1.2-0.1,2.1-1.2,2-2.5c0,0,0,0,0,0l0,0
			c-0.4-3.9-3.9-6.6-7.8-6.2c0,0,0,0,0,0L4.7,59.1z"/>
	</g>
	<g>
		<path class="st2" d="M7.7,68.4c-1.3,0-2.4-1-2.5-2.3L2,37.4c-0.1-0.7,0.1-1.3,0.5-1.9c0.4-0.5,1-0.9,1.7-0.9L46,30
			c0.7-0.1,1.3,0.1,1.9,0.5s0.9,1,0.9,1.7l3.2,28.7c0.2,1.4-0.9,2.7-2.3,2.8L8,68.4C7.9,68.4,7.8,68.4,7.7,68.4z M4.3,35.2
			c-0.5,0.1-1,0.3-1.3,0.7c-0.3,0.4-0.5,0.9-0.4,1.4l3.2,28.7c0.1,1.1,1.1,1.8,2.1,1.7l41.8-4.6c1.1-0.1,1.8-1.1,1.7-2.1l-3.2-28.7
			c-0.1-0.5-0.3-1-0.7-1.3c-0.4-0.3-0.9-0.5-1.4-0.4L4.3,35.2z"/>
	</g>
	<g>
		<path class="st2" d="M27.8,50.7c-0.1-1.5,1.3-4,1.3-4s0.4-0.1,1-0.1c1.8-0.1,4,1.4,4.2,3.6c0.2,2.1-1.7,4.1-3.5,4.2l-1,0.1
			C28.7,54,28,52.2,27.8,50.7z"/>
		<path class="st2" d="M29.8,54.8c0,0-0.1,0-0.1,0c-1.3-0.6-2-2.5-2.2-4c0,0,0,0,0,0c-0.1-1.6,1.3-4.1,1.3-4.2
			c0-0.1,0.1-0.1,0.2-0.2c0,0,0.4-0.1,1-0.1c1.9-0.2,4.3,1.5,4.5,3.8c0.1,1.1-0.3,2.1-1,3c-0.7,0.9-1.8,1.4-2.7,1.5L29.8,54.8
			C29.8,54.8,29.8,54.8,29.8,54.8z M28.1,50.7c0.1,1.3,0.8,2.9,1.7,3.5l0.9-0.1c0.8-0.1,1.7-0.5,2.3-1.3c0.6-0.8,1-1.7,0.9-2.6
			c-0.2-2-2.2-3.4-3.8-3.3c-0.3,0-0.6,0.1-0.8,0.1C29,47.6,28,49.5,28.1,50.7z"/>
	</g>
	<g>
		<path class="st2" d="M26.3,50.9c-0.2-2.1,1.1-4,2.8-4.1c1.8-0.2,3.4,1.5,3.6,3.6c0.2,2.1-1.1,4-2.8,4.1C28,54.7,26.4,53,26.3,50.9
			z"/>
		<path class="st2" d="M29.6,54.8c-1.8,0-3.4-1.7-3.6-3.9l0,0c-0.1-1.2,0.2-2.4,1-3.3c0.6-0.7,1.3-1.1,2.2-1.2
			c1.9-0.2,3.7,1.6,3.9,3.9c0.1,1.2-0.2,2.5-1,3.3c-0.6,0.7-1.3,1.1-2.2,1.2C29.8,54.8,29.7,54.8,29.6,54.8z M29.3,47.1
			c-0.1,0-0.1,0-0.2,0c-0.7,0.1-1.3,0.4-1.7,0.9c-0.6,0.7-0.9,1.8-0.8,2.9l0,0c0.2,2,1.6,3.5,3.2,3.3c0.7-0.1,1.3-0.4,1.7-0.9
			c0.6-0.7,0.9-1.8,0.8-2.9C32.2,48.5,30.8,47.1,29.3,47.1z"/>
	</g>
	<g>
		<path class="st0" d="M29.7,53.2c1.2-0.1,2-1.3,1.9-2.7c-0.1-1.4-1.2-2.5-2.3-2.4c-1.2,0.1-2,1.3-1.9,2.7
			C27.5,52.2,28.5,53.3,29.7,53.2z"/>
	</g>
	<g>
		<path class="st1" d="M29.6,51.9c0.6,0,0.9-0.6,0.9-1.3c-0.1-0.7-0.6-1.2-1.1-1.1c-0.6,0-0.9,0.6-0.9,1.3
			C28.5,51.4,29,51.9,29.6,51.9z"/>
	</g>
	<g>
		<path class="st2" d="M36.7,49.7c-0.1-1.5,1.3-4,1.3-4s0.4-0.1,1-0.1c1.8-0.1,3.4,1.5,3.6,3.6s-1.1,4-2.8,4.1l-0.9,0.1
			C37.6,53,36.9,51.3,36.7,49.7z"/>
		<path class="st2" d="M38.7,53.9c0,0-0.1,0-0.1,0c-1.3-0.7-2-2.6-2.2-4.1c-0.1-1.6,1.3-4.1,1.3-4.2c0-0.1,0.1-0.1,0.2-0.2
			c0,0,0.4-0.1,1-0.1c1.9-0.2,3.7,1.6,3.9,3.9c0.1,1.2-0.2,2.5-1,3.3c-0.6,0.7-1.3,1.1-2.2,1.2L38.7,53.9
			C38.8,53.9,38.8,53.9,38.7,53.9z M38.2,46.1c-0.3,0.5-1.3,2.5-1.2,3.7c0,0,0,0,0,0c0.1,1.3,0.8,2.9,1.7,3.5l0.8-0.1
			c0.7-0.1,1.3-0.4,1.8-0.9c0.6-0.7,0.9-1.8,0.8-2.9c-0.2-2-1.6-3.5-3.2-3.3C38.7,46,38.4,46,38.2,46.1z"/>
	</g>
	<g>
		<path class="st2" d="M35.2,49.9c-0.2-2.1,1.1-4,2.8-4.1c1.8-0.2,3.4,1.5,3.6,3.6c0.2,2.1-1.1,4-2.8,4.1
			C37,53.7,35.4,52.1,35.2,49.9z"/>
		<path class="st2" d="M38.5,53.9c-1.8,0-3.4-1.7-3.6-3.9c0,0,0,0,0,0c-0.1-1.2,0.2-2.4,1-3.3c0.6-0.7,1.3-1.1,2.2-1.2
			c1.9-0.2,3.7,1.6,3.9,3.9c0.1,1.2-0.2,2.5-1,3.3c-0.6,0.7-1.3,1.1-2.2,1.2C38.7,53.9,38.6,53.9,38.5,53.9z M35.5,49.9
			c0.2,2,1.6,3.5,3.2,3.3c0.7-0.1,1.3-0.4,1.7-0.9c0.6-0.7,0.9-1.8,0.8-2.9c-0.2-2-1.6-3.5-3.2-3.3c-0.7,0.1-1.3,0.4-1.7,0.9
			C35.7,47.8,35.4,48.8,35.5,49.9z"/>
	</g>
	<g>
		<path class="st2" d="M38.6,52.2c1.2-0.1,2-1.3,1.9-2.7c-0.1-1.4-1.2-2.5-2.3-2.4c-1.2,0.1-2,1.3-1.9,2.7S37.5,52.3,38.6,52.2z"/>
		<path class="st2" d="M38.5,52.5c-1.3,0-2.4-1.2-2.5-2.7c-0.1-0.8,0.2-1.7,0.7-2.3c0.4-0.5,0.9-0.8,1.5-0.8
			c1.3-0.1,2.5,1.1,2.7,2.7c0.1,0.8-0.2,1.7-0.7,2.2c-0.4,0.5-0.9,0.8-1.5,0.8c0,0,0,0,0,0C38.6,52.5,38.5,52.5,38.5,52.5z
			 M38.6,52.2L38.6,52.2L38.6,52.2z M38.3,47.4c0,0-0.1,0-0.1,0c-0.4,0-0.8,0.2-1.1,0.6c-0.4,0.5-0.6,1.1-0.5,1.8
			c0.1,1.2,1,2.2,2,2.1l0,0c0.4,0,0.8-0.2,1.1-0.6c0.4-0.5,0.6-1.1,0.5-1.8C40,48.3,39.2,47.4,38.3,47.4z"/>
	</g>
	<g>
		<path class="st2" d="M38.5,50.9c0.6,0,0.9-0.6,0.9-1.3c-0.1-0.7-0.6-1.2-1.1-1.1s-0.9,0.6-0.9,1.3C37.4,50.4,37.9,50.9,38.5,50.9z
			"/>
		<path class="st2" d="M38.4,51.2c-0.7,0-1.3-0.6-1.4-1.4c0-0.4,0.1-0.9,0.4-1.2c0.2-0.3,0.5-0.4,0.8-0.4c0.7-0.1,1.4,0.6,1.4,1.4
			c0,0.4-0.1,0.9-0.4,1.2C39.1,51,38.8,51.1,38.4,51.2L38.4,51.2C38.5,51.2,38.5,51.2,38.4,51.2z M38.3,48.8
			C38.3,48.8,38.3,48.8,38.3,48.8c-0.2,0-0.4,0.1-0.4,0.2c-0.2,0.2-0.2,0.5-0.2,0.7c0,0.5,0.4,0.9,0.8,0.8c0,0,0,0,0,0
			c0.2,0,0.3-0.1,0.4-0.2c0.2-0.2,0.2-0.5,0.2-0.7C39,49.1,38.7,48.8,38.3,48.8z"/>
	</g>
	<g>
		<path class="st2" d="M17.7,51.9c-0.1-1.5,1.3-4,1.3-4s0.4-0.1,1-0.1c1.8-0.1,3.4,1.5,3.6,3.6c0.2,2.1-1.1,4-2.8,4.1l-1,0.1
			C18.5,55.1,17.8,53.4,17.7,51.9z"/>
		<path class="st2" d="M19.6,56c0,0-0.1,0-0.1,0c-1.3-0.6-2-2.5-2.2-4c-0.1-1.6,1.3-4.1,1.3-4.2c0-0.1,0.1-0.1,0.2-0.2
			c0,0,0.4-0.1,1-0.1c1.9-0.2,3.7,1.6,3.9,3.9c0.1,1.2-0.2,2.5-1,3.3c-0.6,0.7-1.3,1.1-2.2,1.2L19.6,56C19.7,56,19.7,56,19.6,56z
			 M19.1,48.2c-0.3,0.5-1.3,2.5-1.2,3.7l0,0c0.1,1.3,0.8,2.9,1.7,3.5l0.9-0.1c0.7-0.1,1.3-0.4,1.8-0.9c0.6-0.7,0.9-1.8,0.8-2.9
			c-0.2-2-1.6-3.5-3.2-3.3C19.6,48.1,19.3,48.2,19.1,48.2z"/>
	</g>
	<g>
		<path class="st2" d="M16.1,52c-0.2-2.1,1.1-4,2.8-4.1s3.4,1.5,3.6,3.6c0.2,2.1-1.1,4-2.8,4.1C17.9,55.8,16.3,54.2,16.1,52z"/>
		<path class="st2" d="M19.4,56c-1.8,0-3.4-1.7-3.6-3.9l0,0c-0.1-1.2,0.2-2.4,1-3.3c0.6-0.7,1.3-1.1,2.2-1.2
			c1.9-0.2,3.7,1.6,3.9,3.9c0.1,1.2-0.2,2.5-1,3.3c-0.6,0.7-1.3,1.1-2.2,1.2C19.6,56,19.5,56,19.4,56z M16.4,52
			c0.2,2,1.6,3.5,3.2,3.3c0.7-0.1,1.3-0.4,1.7-0.9c0.6-0.7,0.9-1.8,0.8-2.9c-0.2-2-1.6-3.5-3.2-3.3c-0.7,0.1-1.3,0.4-1.7,0.9
			C16.6,49.9,16.3,50.9,16.4,52L16.4,52z"/>
	</g>
	<g>
		<path class="st2" d="M19.5,54.3c1.2-0.1,2-1.3,1.9-2.7c-0.1-1.4-1.2-2.5-2.3-2.4s-2,1.3-1.9,2.7S18.4,54.4,19.5,54.3z"/>
		<path class="st2" d="M19.4,54.6c-1.3,0-2.4-1.2-2.5-2.7c-0.1-0.8,0.2-1.7,0.7-2.3c0.4-0.5,0.9-0.8,1.5-0.8
			c1.3-0.1,2.5,1.1,2.7,2.7c0.1,0.8-0.2,1.7-0.7,2.2c-0.4,0.5-0.9,0.8-1.5,0.8C19.5,54.6,19.4,54.6,19.4,54.6z M19.2,49.5
			c0,0-0.1,0-0.1,0c-0.4,0-0.8,0.2-1.1,0.6c-0.4,0.5-0.6,1.1-0.5,1.8c0.1,1.2,1,2.2,2,2.1l0,0c0.4,0,0.8-0.2,1.1-0.6
			c0.4-0.5,0.6-1.1,0.5-1.8C21,50.5,20.1,49.5,19.2,49.5z"/>
	</g>
	<g>
		<path class="st2" d="M19.4,53c0.6,0,0.9-0.6,0.9-1.3c-0.1-0.7-0.6-1.2-1.1-1.1c-0.6,0-0.9,0.6-0.9,1.3C18.4,52.5,18.9,53,19.4,53z
			"/>
		<path class="st2" d="M19.3,53.3c-0.7,0-1.3-0.6-1.4-1.4c0-0.4,0.1-0.9,0.4-1.2c0.2-0.3,0.5-0.4,0.8-0.4c0.7-0.1,1.4,0.6,1.4,1.4
			c0,0.4-0.1,0.9-0.4,1.2C20,53.1,19.7,53.3,19.3,53.3L19.3,53.3C19.4,53.3,19.4,53.3,19.3,53.3z M19.4,53L19.4,53L19.4,53z
			 M19.3,50.9C19.2,50.9,19.2,50.9,19.3,50.9c-0.2,0-0.4,0.1-0.4,0.2c-0.2,0.2-0.2,0.5-0.2,0.7c0,0.5,0.4,0.9,0.8,0.8
			c0.2,0,0.3-0.1,0.4-0.2c0.2-0.2,0.2-0.5,0.2-0.7C19.9,51.3,19.6,50.9,19.3,50.9z"/>
	</g>
	<g>
		<path class="st2" d="M9.3,52.8c-0.1-1.5,1.3-4,1.3-4s0.4-0.1,1-0.1c1.8-0.1,3.4,1.5,3.6,3.6c0.2,2.1-1.1,4-2.8,4.1l-1,0.1
			C10.1,56,9.4,54.3,9.3,52.8z"/>
		<path class="st2" d="M11.2,56.9c0,0-0.1,0-0.1,0c-1.3-0.6-2-2.5-2.2-4v0c-0.1-1.6,1.3-4.1,1.3-4.2c0-0.1,0.1-0.1,0.2-0.2
			c0,0,0.4-0.1,1-0.1c1.9-0.2,3.7,1.6,3.9,3.9c0.1,1.2-0.2,2.5-1,3.3c-0.6,0.7-1.3,1.1-2.2,1.2L11.2,56.9
			C11.3,56.9,11.3,56.9,11.2,56.9z M10.7,49.1c-0.3,0.5-1.3,2.5-1.2,3.7c0,0,0,0,0,0c0.1,1.3,0.8,2.9,1.7,3.5l0.9-0.1
			c0.7-0.1,1.3-0.4,1.8-0.9c0.6-0.7,0.9-1.8,0.8-2.9c-0.2-2-1.6-3.5-3.2-3.3C11.2,49.1,10.9,49.1,10.7,49.1z"/>
	</g>
	<g>
		<path class="st2" d="M7.7,53c-0.2-2.1,1.1-4,2.8-4.1s3.4,1.5,3.6,3.6c0.2,2.1-1.1,4-2.8,4.1C9.5,56.7,7.9,55.1,7.7,53z"/>
		<path class="st2" d="M11,56.9c-1.8,0-3.4-1.7-3.6-3.9c-0.1-1.2,0.2-2.4,1-3.3c0.6-0.7,1.3-1.1,2.2-1.2c1.9-0.2,3.7,1.6,3.9,3.9
			c0.1,1.2-0.2,2.5-1,3.3c-0.6,0.7-1.3,1.1-2.2,1.2C11.2,56.9,11.1,56.9,11,56.9z M10.8,49.1c-0.1,0-0.1,0-0.2,0
			c-0.7,0.1-1.3,0.4-1.7,0.9c-0.6,0.7-0.9,1.8-0.8,2.9l0,0c0.2,2,1.6,3.5,3.2,3.3c0.7-0.1,1.3-0.4,1.7-0.9c0.6-0.7,0.9-1.8,0.8-2.9
			C13.6,50.6,12.3,49.1,10.8,49.1z"/>
	</g>
	<g>
		<path class="st0" d="M11.1,55.2c1.2-0.1,2-1.3,1.9-2.7c-0.1-1.4-1.2-2.5-2.3-2.4s-2,1.3-1.9,2.7C8.9,54.3,10,55.3,11.1,55.2z"/>
	</g>
	<g>
		<path class="st1" d="M11,53.9c0.6,0,0.9-0.6,0.9-1.3c-0.1-0.7-0.6-1.2-1.1-1.1c-0.6,0-0.9,0.6-0.9,1.3C10,53.4,10.5,54,11,53.9z"
			/>
	</g>
	<g>
		<path class="st0" d="M45.4,43.3c-1.1-0.9-5.7-1.3-5.7-1.3l-3.5-2.1c-1.5-0.9-3.3-1.3-5.1-1.1l-6.2,0.7l-10.9,1.2
			c0,0-1.5,0.3-2.9,1.9S8,45.5,7.5,45.6l0,0c-0.4,0.1-0.7,0.5-0.6,0.9l0.5,4.7c0.2-1,1.1-2.4,2.9-2.5c2.1-0.1,3.9,1.7,4.1,4.2
			c0,0.2,0,0.4,0,0.6l11.8-1.3c-0.1-0.3-0.1-0.6-0.1-0.9c-0.2-2.5,1.3-4.6,3.3-4.8s3.9,1.7,4.1,4.2c0,0.2,0,0.4,0,0.6L47.1,50
			C47.1,50,46.6,44.2,45.4,43.3z"/>
		<path class="st2" d="M14.4,54c-0.1,0-0.2,0-0.2-0.1c-0.1-0.1-0.1-0.1-0.1-0.2c0-0.2,0-0.4,0-0.6c-0.2-2.3-1.9-4-3.8-3.9
			c-2.1,0.1-2.6,1.9-2.6,2.2c0,0.2-0.2,0.3-0.3,0.2c-0.2,0-0.3-0.1-0.3-0.3l-0.5-4.7c-0.1-0.6,0.3-1.1,0.8-1.3l0,0
			c0.5-0.2,2.1-1.4,3.5-3c1.5-1.7,3-2,3.1-2c0,0,0,0,0,0l10.9-1.2l6.2-0.7c1.8-0.2,3.7,0.2,5.3,1.2l3.5,2.1c0.7,0.1,4.7,0.4,5.8,1.3
			c0,0,0,0,0,0c1.2,0.9,1.7,6.3,1.8,6.9c0,0.2-0.1,0.3-0.3,0.3l-13.6,1.5c-0.1,0-0.2,0-0.2-0.1c-0.1-0.1-0.1-0.1-0.1-0.2
			c0-0.2,0-0.4,0-0.6c-0.2-2.3-1.9-4.1-3.8-3.9c-0.8,0.1-1.5,0.4-2,1.1c-0.7,0.9-1.1,2.1-1,3.3c0,0.3,0.1,0.5,0.1,0.8
			c0,0.1,0,0.2,0,0.3c-0.1,0.1-0.1,0.1-0.2,0.1L14.4,54C14.4,54,14.4,54,14.4,54z M10.4,48.5c2.2,0,4.1,1.9,4.3,4.5
			c0,0.1,0,0.2,0,0.3l11.1-1.2c0-0.2-0.1-0.4-0.1-0.6c-0.1-1.4,0.3-2.8,1.1-3.8c0.7-0.8,1.5-1.2,2.5-1.3c2.2-0.2,4.2,1.8,4.5,4.5
			c0,0.1,0,0.2,0,0.3l13-1.4c-0.2-2.2-0.8-5.6-1.5-6.2c-0.9-0.7-4.3-1.1-5.6-1.2c0,0-0.1,0-0.1,0L36,40.2c-1.5-0.9-3.2-1.3-4.9-1.1
			L25,39.8L14.1,41c-0.1,0-1.4,0.4-2.8,1.8c-1.5,1.6-3.1,3-3.8,3.2l0,0c-0.3,0.1-0.4,0.3-0.4,0.6l0.4,3.5c0.5-0.8,1.4-1.5,2.8-1.6
			C10.3,48.5,10.3,48.5,10.4,48.5z"/>
	</g>
	<g>
		<path class="st3" d="M37.7,44.2c-0.4-0.1-1.7-0.1-2.4,0c-0.2,0-0.3,0.2-0.3,0.4c0,0.1,0,0.1,0.1,0.1l0.6,1
			c0.1,0.2,0.3,0.3,0.5,0.3l0,0l2.2-0.2c0.1,0,0.2-0.1,0.2-0.2l0.2-0.4c0.1-0.2,0-0.4-0.2-0.5C38.4,44.5,38,44.3,37.7,44.2z"/>
	</g>
	<g>
		<path class="st1" d="M28.1,43.3l-15.9,1.8c0,0-1,0.1-0.8-1.5c0.1-0.5,2.1-2.4,2.4-2.4L25.3,40L28.1,43.3z"/>
	</g>
	<g>
		<defs>
			<path id="SVGID_1_" d="M28.1,43.3l-15.9,1.8c0,0-1,0.1-0.8-1.5c0.1-0.5,2.1-2.4,2.4-2.4L25.3,40L28.1,43.3z"/>
		</defs>
		<clipPath id="SVGID_2_">
			<use xlink:href="#SVGID_1_"  style="overflow:visible;"/>
		</clipPath>
		<g class="st5">
			<g class="st6">
				<path class="st1" d="M28.1,43.3l-15.9,1.8c0,0-1,0.1-0.8-1.5c0.1-0.5,2.1-2.4,2.4-2.4L25.3,40L28.1,43.3z"/>
			</g>
		</g>
	</g>
	<g>
		<path class="st3" d="M36.1,40.5l2.7,1.7l-10.8,1.2L25.3,40l5.6-0.6C32.8,39.1,34.6,39.5,36.1,40.5z"/>
	</g>
	<g>
		<path class="st2" d="M44.6,45l0,0.2c0,0.2-0.1,0.4-0.2,0.6L44,46.1c-0.1,0.1-0.3,0.2-0.4,0.2l-2.3,0.3c-0.1,0-0.2,0-0.3,0
			l-1.1-0.3c-0.3-0.1-0.5-0.3-0.5-0.6l0,0c0-0.4,0.2-0.7,0.6-0.8l3.8-0.4C44.2,44.3,44.5,44.6,44.6,45C44.6,45,44.6,45,44.6,45z"/>
		<path class="st2" d="M41.2,46.9c-0.1,0-0.2,0-0.3,0l-1.1-0.3c-0.4-0.1-0.7-0.5-0.7-0.9c-0.1-0.6,0.3-1.1,0.9-1.1l3.8-0.4
			c0.3,0,0.5,0,0.8,0.2c0.2,0.2,0.4,0.4,0.4,0.7c0,0,0,0,0,0c0,0,0,0,0,0l0,0.2c0,0.3-0.1,0.6-0.3,0.9l-0.4,0.3
			c-0.2,0.1-0.4,0.2-0.6,0.3l-2.3,0.3C41.3,46.8,41.2,46.9,41.2,46.9z M43.8,44.7C43.8,44.7,43.8,44.7,43.8,44.7L40,45.1
			c-0.2,0-0.4,0.2-0.4,0.4c0,0.2,0.1,0.3,0.3,0.3l1.1,0.3c0.1,0,0.1,0,0.2,0l2.3-0.3c0.1,0,0.2,0,0.2-0.1l0.4-0.3
			c0.1-0.1,0.1-0.2,0.1-0.3l0-0.2v0c0-0.1-0.1-0.2-0.1-0.3C44,44.7,43.9,44.7,43.8,44.7z M44.9,45L44.9,45L44.9,45z"/>
	</g>
	<g>
		<path class="st2" d="M37.5,47.9l8.9-1l0-1c0.2,0.9,0.2,1.2,0.3,1.9l0,0.2l-0.3-0.6l-1.7,0.2l0.7,0.6l-5.9,0.7l0.2-0.7l-2.2,0.2
			L37,49l-0.4,0l-0.3-2.4L37.5,47.9z"/>
		<path class="st2" d="M36.6,49.4c-0.2,0-0.3-0.1-0.3-0.3L36,46.7c0-0.1,0.1-0.3,0.2-0.3c0.1-0.1,0.3,0,0.4,0.1l1.1,1.1l8.4-0.9
			l0-0.7c0-0.2,0.1-0.3,0.3-0.3c0.2,0,0.3,0.1,0.3,0.3l0,0.1c0.1,0.8,0.2,1.1,0.3,1.8c0,0,0,0,0,0.1l0,0.2c0,0.1-0.1,0.3-0.3,0.3
			c-0.1,0-0.3,0-0.3-0.2l-0.2-0.4l-0.8,0.1l0.1,0.1c0.1,0.1,0.1,0.2,0.1,0.3c0,0.1-0.1,0.2-0.3,0.2l-5.9,0.7c-0.1,0-0.2,0-0.3-0.1
			c-0.1-0.1-0.1-0.2-0.1-0.3l0.1-0.2l-1.6,0.2l-0.5,0.5c-0.1,0-0.1,0.1-0.2,0.1L36.6,49.4C36.6,49.4,36.6,49.4,36.6,49.4z
			 M36.7,47.5l0.1,1.2l0,0l0.5-0.5c0,0,0,0,0.1-0.1c-0.1,0-0.1,0-0.2-0.1L36.7,47.5z M39.9,47.9c0,0,0.1,0.1,0.1,0.1
			c0.1,0.1,0.1,0.2,0.1,0.3L40,48.5l4.7-0.5l-0.1-0.1c-0.1-0.1-0.1-0.2-0.1-0.3c0-0.1,0.1-0.1,0.1-0.2L39.9,47.9z"/>
	</g>
	<g>
		<path class="st1" d="M7.3,46.2c0.2,0,0.5,0.1,0.6,0.3C8,46.7,8,46.9,7.9,47.1l-0.5,1.2c0,0.1-0.1,0.1-0.2,0.1
			c-0.1,0-0.1-0.1-0.1-0.1L7,46.5l0,0C7,46.4,7.1,46.3,7.3,46.2L7.3,46.2z"/>
	</g>
	<g>
		<path class="st0" d="M25.9,44.4l-1.6,0.2c-0.4,0-0.8-0.3-0.8-0.7l0,0c0-0.4,0.2-0.7,0.6-0.8l1.6-0.3c0.4-0.1,0.8,0.2,0.9,0.6
			c0,0,0,0.1,0,0.1v0C26.6,44,26.3,44.4,25.9,44.4z"/>
		<path class="st2" d="M24.2,44.9c-0.5,0-1-0.4-1.1-0.9c-0.1-0.6,0.3-1.1,0.9-1.2l1.6-0.3c0.3-0.1,0.6,0,0.8,0.2
			c0.2,0.2,0.4,0.4,0.5,0.7c0,0.1,0,0.1,0,0.2l0,0c0,0.6-0.4,1.1-1,1.1c0,0,0,0,0,0l-1.6,0.2C24.2,44.9,24.2,44.9,24.2,44.9z
			 M25.9,44.4L25.9,44.4L25.9,44.4z M25.8,43.1C25.7,43.1,25.7,43.1,25.8,43.1l-1.7,0.3c-0.2,0-0.4,0.3-0.4,0.5
			c0,0.2,0.2,0.4,0.5,0.4l1.6-0.2c0.2,0,0.4-0.2,0.4-0.5l0,0c0,0,0,0,0-0.1c0-0.1-0.1-0.2-0.2-0.3C26,43.1,25.9,43.1,25.8,43.1z"/>
	</g>
	<g>
		<path class="st2" d="M15.2,51.6c-0.1,0-0.2-0.1-0.3-0.2c-0.8-1.6-1.9-2.7-3.3-3.3c-0.1,0-0.2-0.1-0.2-0.3l-0.3-2.4
			c0-0.2,0.1-0.3,0.3-0.3c0.2,0,0.3,0.1,0.3,0.3l0.3,2.3c1.4,0.7,2.6,1.9,3.4,3.5c0.1,0.2,0,0.3-0.1,0.4
			C15.3,51.6,15.3,51.6,15.2,51.6z"/>
	</g>
	<g>
		<path class="st2" d="M35.5,48.1c-0.1,0-0.3-0.1-0.3-0.3c-0.4-2.4-0.9-2.9-1-3.1c-0.8-0.7-4.3-1.1-5.6-1.2c0,0-0.1,0-0.1,0
			l-3.5-2.2c-1.4-0.9-3.2-1.3-4.9-1.1c-0.2,0-0.3-0.1-0.3-0.3c0-0.2,0.1-0.3,0.3-0.3c1.8-0.2,3.7,0.2,5.3,1.2l3.5,2.1
			c0.7,0.1,4.7,0.4,5.8,1.3c0.2,0.1,0.7,0.6,1.3,3.5C35.8,47.9,35.7,48.1,35.5,48.1C35.5,48.1,35.5,48.1,35.5,48.1z"/>
	</g>
	<g>
		<path class="st1" d="M33.4,50.9c0,0.2,0,0.4,0,0.6l13.6-1.5c0,0,0-0.4-0.1-1.1l-13.6,1.5C33.4,50.6,33.4,50.8,33.4,50.9z"/>
	</g>
	<g>
		<path class="st1" d="M14.3,52.6c0,0.1,0,0.3,0.1,0.5c0,0.2,0,0.4,0,0.6l11.8-1.3c-0.1-0.3-0.1-0.6-0.1-0.9c0-0.1,0-0.2,0-0.2
			L14.3,52.6z"/>
	</g>
	<g>
		<path class="st3" d="M45.6,43.5c-0.3,0.2-0.5,0.3-0.6,0.4c-0.1,0.1-0.2,0.3-0.1,0.5l0.3,0.4c0.1,0.1,0.2,0.1,0.3,0.1l0.7-0.1
			C46.1,44.4,45.9,43.9,45.6,43.5z"/>
	</g>
	<g>
		<path class="st2" d="M14.4,54c-0.1,0-0.2,0-0.2-0.1c-0.1-0.1-0.1-0.1-0.1-0.2c0-0.2,0-0.4,0-0.6c-0.2-2.3-1.9-4-3.8-3.9
			c-2.1,0.1-2.6,1.9-2.6,2.2c0,0.2-0.2,0.3-0.3,0.2c-0.2,0-0.3-0.1-0.3-0.3l-0.5-4.7c-0.1-0.6,0.3-1.1,0.8-1.3l0,0
			c0.5-0.2,2.1-1.4,3.5-3c1.5-1.7,3-2,3.1-2c0,0,0,0,0,0l10.9-1.2l6.2-0.7c1.8-0.2,3.7,0.2,5.3,1.2l3.5,2.1c0.7,0.1,4.7,0.4,5.8,1.3
			c0,0,0,0,0,0c1.2,0.9,1.7,6.3,1.8,6.9c0,0.2-0.1,0.3-0.3,0.3l-13.6,1.5c-0.1,0-0.2,0-0.2-0.1c-0.1-0.1-0.1-0.1-0.1-0.2
			c0-0.2,0-0.4,0-0.6c-0.2-2.3-1.9-4.1-3.8-3.9c-0.8,0.1-1.5,0.4-2,1.1c-0.7,0.9-1.1,2.1-1,3.3c0,0.3,0.1,0.5,0.1,0.8
			c0,0.1,0,0.2,0,0.3c-0.1,0.1-0.1,0.1-0.2,0.1L14.4,54C14.4,54,14.4,54,14.4,54z M10.4,48.5c2.2,0,4.1,1.9,4.3,4.5
			c0,0.1,0,0.2,0,0.3l11.1-1.2c0-0.2-0.1-0.4-0.1-0.6c-0.1-1.4,0.3-2.8,1.1-3.8c0.7-0.8,1.5-1.2,2.5-1.3c2.2-0.2,4.2,1.8,4.5,4.5
			c0,0.1,0,0.2,0,0.3l13-1.4c-0.2-2.2-0.8-5.6-1.5-6.2c-0.9-0.7-4.3-1.1-5.6-1.2c0,0-0.1,0-0.1,0L36,40.2c-1.5-0.9-3.2-1.3-4.9-1.1
			L25,39.8L14.1,41c-0.1,0-1.4,0.4-2.8,1.8c-1.5,1.6-3.1,3-3.8,3.2l0,0c-0.3,0.1-0.4,0.3-0.4,0.6l0.4,3.5c0.5-0.8,1.4-1.5,2.8-1.6
			C10.3,48.5,10.3,48.5,10.4,48.5z"/>
	</g>
	<g>
		<path class="st2" d="M19.9,53.2c-0.2,0-0.3-0.1-0.3-0.3l-0.9-8.6c0,0,0,0,0-0.1l0.5-4.3c0-0.2,0.2-0.3,0.4-0.3
			c0.2,0,0.3,0.2,0.3,0.4l-0.5,4.3l0.9,8.5C20.2,53.1,20.1,53.2,19.9,53.2C19.9,53.2,19.9,53.2,19.9,53.2z"/>
	</g>
	<g>
		<path class="st0" d="M9.6,61.4c-0.2,0-0.3-0.1-0.3-0.3c0-0.2,0.1-0.3,0.3-0.3L25.3,59c0.2,0,0.3,0.1,0.3,0.3
			c0,0.2-0.1,0.3-0.3,0.3L9.6,61.4C9.6,61.4,9.6,61.4,9.6,61.4z"/>
	</g>
	<g>
		<path class="st0" d="M9.8,63.4c-0.2,0-0.3-0.1-0.3-0.3c0-0.2,0.1-0.3,0.3-0.3l31.5-3.5c0.2,0,0.3,0.1,0.3,0.3
			c0,0.2-0.1,0.3-0.3,0.3L9.8,63.4C9.8,63.4,9.8,63.4,9.8,63.4z"/>
	</g>
	<g>
		<path class="st0" d="M10,65.4c-0.2,0-0.3-0.1-0.3-0.3c0-0.2,0.1-0.3,0.3-0.3l6.7-0.7c0.2,0,0.3,0.1,0.3,0.3s-0.1,0.3-0.3,0.3
			L10,65.4C10,65.4,10,65.4,10,65.4z"/>
	</g>
	<g>
		<path class="st0" d="M53.8,30.6l41.8,4c1.2,0.1,2.1,1.2,2,2.4l-2.8,28.8c-0.1,1.2-1.2,2.1-2.4,2l-41.8-4c-1.2-0.1-2.1-1.2-2-2.4
			l2.8-28.8C51.5,31.3,52.6,30.4,53.8,30.6z"/>
	</g>
	<g>
		<path class="st1" d="M49.3,54.3l-0.7,7c-0.1,1.2,0.8,2.3,2,2.4l41.8,4c1.2,0.1,2.3-0.8,2.4-2l0,0c0.4-3.9-2.4-7.3-6.3-7.7
			L49.3,54.3z"/>
	</g>
	<g>
		<path class="st2" d="M92.7,68.1c-0.1,0-0.2,0-0.2,0l-41.8-4c-1.4-0.1-2.4-1.4-2.3-2.8l2.8-28.8c0.1-0.7,0.4-1.3,0.9-1.7
			c0.5-0.4,1.2-0.6,1.9-0.6l41.8,4c0.7,0.1,1.3,0.4,1.7,0.9c0.4,0.5,0.6,1.2,0.6,1.9l-2.8,28.8C95.1,67.1,94,68.1,92.7,68.1z
			 M53.6,30.9c-0.4,0-0.9,0.2-1.2,0.4c-0.4,0.3-0.6,0.8-0.7,1.3l-2.8,28.8c-0.1,1.1,0.7,2,1.7,2.1l41.8,4c1.1,0.1,2-0.7,2.1-1.7
			L97.4,37c0-0.5-0.1-1-0.4-1.4c-0.3-0.4-0.8-0.6-1.3-0.7l-41.8-4l0,0C53.7,30.9,53.7,30.9,53.6,30.9z"/>
	</g>
	<g>
		<path class="st2" d="M73.6,50.9c0.2-1.5,2.1-3.6,2.1-3.6s0.4,0,1,0.1c1.8,0.2,3.6,2.2,3.4,4.3c-0.2,2.1-2.5,3.6-4.3,3.4l-1-0.1
			C73.8,54.2,73.4,52.4,73.6,50.9z"/>
		<path class="st2" d="M76.1,55.4c-0.1,0-0.3,0-0.4,0l-0.9-0.1c-0.1,0-0.1,0-0.2-0.1c-1.1-0.9-1.5-2.9-1.3-4.4c0,0,0,0,0,0
			c0.2-1.6,2.1-3.7,2.2-3.8c0.1-0.1,0.2-0.1,0.3-0.1c0,0,0.4,0,1,0.1c1.9,0.2,3.9,2.3,3.6,4.7c-0.1,1-0.7,2-1.6,2.7
			C77.9,55.1,76.9,55.4,76.1,55.4z M74.9,54.7l0.9,0.1c0.8,0.1,1.8-0.2,2.5-0.8c0.8-0.6,1.3-1.4,1.4-2.3c0.2-2-1.5-3.8-3.1-4
			c-0.3,0-0.6-0.1-0.8-0.1c-0.4,0.5-1.8,2.1-1.9,3.3C73.7,52.2,74,53.9,74.9,54.7z"/>
	</g>
	<g>
		<path class="st2" d="M72,50.7c0.3-2.1,1.9-3.7,3.6-3.5s3,2.1,2.7,4.3c-0.3,2.1-1.9,3.7-3.6,3.5C73,54.8,71.8,52.8,72,50.7z"/>
		<path class="st2" d="M75.1,55.3c-0.1,0-0.2,0-0.4,0c-1.9-0.2-3.3-2.3-3-4.6l0,0c0.1-1.2,0.7-2.4,1.6-3.1c0.7-0.5,1.5-0.8,2.4-0.7
			c1.9,0.2,3.3,2.3,3,4.6c-0.1,1.2-0.7,2.4-1.6,3.1C76.5,55.1,75.8,55.3,75.1,55.3z M72.3,50.7c-0.2,2,0.9,3.7,2.5,3.9
			c0.7,0.1,1.3-0.1,1.9-0.6c0.8-0.6,1.3-1.6,1.4-2.6c0.2-2-0.9-3.7-2.5-3.9c-0.7-0.1-1.3,0.1-1.9,0.6C73,48.7,72.5,49.7,72.3,50.7
			L72.3,50.7z"/>
	</g>
	<g>
		<path class="st0" d="M74.9,53.6c1.1,0.1,2.2-0.9,2.4-2.3s-0.6-2.6-1.8-2.8c-1.2-0.1-2.2,0.9-2.4,2.3S73.8,53.5,74.9,53.6z"/>
	</g>
	<g>
		<path class="st1" d="M75.1,52.3c0.5,0.1,1.1-0.4,1.1-1.1s-0.3-1.3-0.9-1.3c-0.5-0.1-1.1,0.4-1.1,1.1
			C74.1,51.6,74.5,52.2,75.1,52.3z"/>
	</g>
	<g>
		<path class="st2" d="M82.5,51.7c0.2-1.5,2.1-3.6,2.1-3.6s0.4,0,1,0.1c1.8,0.2,3,2.1,2.7,4.3c-0.3,2.1-1.9,3.7-3.6,3.5l-1-0.1
			C82.7,55.1,82.3,53.2,82.5,51.7z"/>
		<path class="st2" d="M85,56.3c-0.1,0-0.2,0-0.4,0l-0.9-0.1c-0.1,0-0.1,0-0.2-0.1c-1.1-0.9-1.5-2.9-1.3-4.4l0,0
			c0.2-1.6,2.1-3.7,2.2-3.8c0.1-0.1,0.2-0.1,0.3-0.1c0,0,0.4,0,1,0.1c1.9,0.2,3.3,2.3,3,4.6c-0.1,1.2-0.7,2.4-1.6,3.1
			C86.4,56,85.7,56.3,85,56.3z M83.8,55.5l0.9,0.1c0.7,0.1,1.3-0.1,1.9-0.6c0.8-0.6,1.3-1.6,1.4-2.6c0.2-2-0.9-3.7-2.5-3.9
			c-0.3,0-0.6-0.1-0.8-0.1c-0.4,0.5-1.8,2.1-1.9,3.3c0,0,0,0,0,0C82.7,53.1,83,54.8,83.8,55.5z M82.5,51.7L82.5,51.7L82.5,51.7z"/>
	</g>
	<g>
		<path class="st2" d="M81,51.6c0.3-2.1,1.9-3.7,3.6-3.5s3,2.1,2.7,4.3c-0.3,2.1-1.9,3.7-3.6,3.5C81.9,55.6,80.7,53.7,81,51.6z"/>
		<path class="st2" d="M84,56.2c-0.1,0-0.2,0-0.4,0c-1.9-0.2-3.3-2.3-3-4.6c0,0,0,0,0,0c0.1-1.2,0.7-2.4,1.6-3.1
			c0.7-0.5,1.5-0.8,2.4-0.7c1.9,0.2,3.3,2.3,3,4.6c-0.1,1.1-0.6,2.1-1.3,2.8C85.6,55.9,84.8,56.2,84,56.2z M81.3,51.6
			c-0.2,2,0.9,3.7,2.5,3.9c0.8,0.1,1.5-0.2,2.1-0.8c0.6-0.6,1-1.5,1.2-2.4c0.2-2-0.9-3.7-2.5-3.9c-0.7-0.1-1.3,0.1-1.9,0.6
			C81.9,49.6,81.4,50.5,81.3,51.6L81.3,51.6z"/>
	</g>
	<g>
		<path class="st2" d="M83.9,54.5c1.1,0.1,2.2-0.9,2.4-2.3s-0.6-2.6-1.8-2.8c-1.2-0.1-2.2,0.9-2.4,2.3S82.7,54.4,83.9,54.5z"/>
		<path class="st2" d="M84.1,54.8c-0.1,0-0.2,0-0.3,0c0,0,0,0,0,0c-1.3-0.2-2.2-1.6-2.1-3.1c0.1-0.8,0.5-1.6,1.1-2.1
			c0.5-0.4,1.1-0.5,1.6-0.5c1.3,0.2,2.2,1.6,2.1,3.1c-0.1,0.8-0.5,1.6-1.1,2.1C85,54.7,84.5,54.8,84.1,54.8z M83.9,54.2
			c0.4,0.1,0.8-0.1,1.2-0.3c0.5-0.4,0.8-1,0.9-1.6c0.1-1.2-0.5-2.3-1.5-2.4c-0.4-0.1-0.8,0.1-1.2,0.3c-0.5,0.4-0.8,1-0.9,1.6
			C82.2,53,82.9,54.1,83.9,54.2L83.9,54.2z"/>
	</g>
	<g>
		<path class="st2" d="M84,53.2c0.5,0.1,1.1-0.4,1.1-1.1s-0.3-1.3-0.9-1.3c-0.5-0.1-1.1,0.4-1.1,1.1C83.1,52.5,83.5,53.1,84,53.2z"
			/>
		<path class="st2" d="M84.1,53.5c0,0-0.1,0-0.1,0l0,0c-0.7-0.1-1.2-0.8-1.1-1.7c0.1-0.4,0.3-0.8,0.6-1.1c0.3-0.2,0.6-0.3,0.9-0.3
			c0.7,0.1,1.2,0.8,1.1,1.7c-0.1,0.4-0.3,0.8-0.6,1.1C84.6,53.4,84.4,53.5,84.1,53.5z M84,52.9c0.2,0,0.3-0.1,0.4-0.1
			c0.2-0.2,0.3-0.4,0.4-0.7c0.1-0.5-0.2-0.9-0.6-1c-0.2,0-0.3,0.1-0.4,0.1c-0.2,0.2-0.3,0.4-0.4,0.7C83.4,52.4,83.7,52.8,84,52.9
			L84,52.9z"/>
	</g>
	<g>
		<path class="st2" d="M63.4,49.9c0.2-1.5,2.1-3.6,2.1-3.6s0.4,0,1,0.1c1.8,0.2,3,2.1,2.7,4.3c-0.3,2.1-1.9,3.7-3.6,3.5l-1-0.1
			C63.6,53.2,63.2,51.4,63.4,49.9z"/>
		<path class="st2" d="M65.9,54.4c-0.1,0-0.2,0-0.4,0l-0.9-0.1c-0.1,0-0.1,0-0.2-0.1c-1.1-0.9-1.5-2.9-1.3-4.4c0,0,0,0,0,0
			c0.2-1.6,2.1-3.7,2.2-3.8c0.1-0.1,0.2-0.1,0.3-0.1c0,0,0.4,0,1,0.1c1.9,0.2,3.3,2.3,3,4.6c-0.1,1.2-0.7,2.4-1.6,3.1
			C67.3,54.2,66.6,54.4,65.9,54.4z M64.7,53.7l0.9,0.1c0.7,0.1,1.3-0.1,1.9-0.6c0.8-0.6,1.3-1.6,1.4-2.6c0.2-2-0.9-3.7-2.5-3.9
			c-0.3,0-0.6-0.1-0.8-0.1c-0.4,0.5-1.8,2.1-1.9,3.3C63.6,51.2,63.9,52.9,64.7,53.7z"/>
	</g>
	<g>
		<path class="st2" d="M61.8,49.7c0.3-2.1,1.9-3.7,3.6-3.5c1.8,0.2,3,2.1,2.7,4.3c-0.3,2.1-1.9,3.7-3.6,3.5S61.6,51.9,61.8,49.7z"/>
		<path class="st2" d="M64.9,54.3c-0.1,0-0.2,0-0.4,0c-1.9-0.2-3.3-2.3-3-4.6l0,0c0.1-1.2,0.7-2.4,1.6-3.1c0.7-0.5,1.5-0.8,2.4-0.7
			c1.9,0.2,3.3,2.3,3,4.6c-0.1,1.2-0.7,2.4-1.6,3.1C66.3,54.1,65.6,54.3,64.9,54.3z M62.2,49.8c-0.2,2,0.9,3.7,2.5,3.9
			c0.7,0.1,1.3-0.1,1.9-0.6c0.8-0.6,1.3-1.6,1.4-2.6c0.2-2-0.9-3.7-2.5-3.9c-0.7-0.1-1.3,0.1-1.9,0.6C62.8,47.7,62.3,48.7,62.2,49.8
			L62.2,49.8z"/>
	</g>
	<g>
		<path class="st2" d="M64.7,52.7c1.1,0.1,2.2-0.9,2.4-2.3c0.2-1.4-0.6-2.6-1.8-2.8c-1.2-0.1-2.2,0.9-2.4,2.3S63.6,52.5,64.7,52.7z"
			/>
		<path class="st2" d="M65,53c-0.1,0-0.2,0-0.3,0l0,0c-1.3-0.2-2.3-1.6-2.1-3.1c0.1-0.8,0.5-1.6,1.1-2.1c0.5-0.4,1.1-0.5,1.6-0.5
			c1.3,0.2,2.2,1.6,2.1,3.1c-0.1,0.8-0.5,1.6-1.1,2.1C65.9,52.8,65.4,53,65,53z M65.1,47.9c-0.3,0-0.7,0.1-1,0.4
			c-0.5,0.4-0.8,1-0.9,1.7c-0.1,1.2,0.5,2.3,1.5,2.4l0,0c0.4,0.1,0.8-0.1,1.2-0.3c0.5-0.4,0.8-1,0.9-1.6c0.1-1.2-0.5-2.3-1.5-2.4
			C65.2,47.9,65.2,47.9,65.1,47.9z"/>
	</g>
	<g>
		<path class="st2" d="M64.9,51.3c0.5,0.1,1.1-0.4,1.1-1.1s-0.3-1.3-0.9-1.3c-0.5-0.1-1.1,0.4-1.1,1.1C64,50.7,64.3,51.3,64.9,51.3z
			"/>
		<path class="st2" d="M65,51.7c0,0-0.1,0-0.1,0c-0.7-0.1-1.2-0.8-1.1-1.7c0.1-0.4,0.3-0.8,0.6-1.1c0.3-0.2,0.6-0.3,0.9-0.3
			c0.7,0.1,1.2,0.8,1.1,1.7c-0.1,0.4-0.3,0.8-0.6,1.1C65.5,51.6,65.3,51.7,65,51.7z M65.1,49.2c-0.2,0-0.3,0.1-0.4,0.1
			c-0.2,0.2-0.3,0.4-0.4,0.7c-0.1,0.5,0.2,0.9,0.6,1c0.2,0,0.3-0.1,0.4-0.1c0.2-0.2,0.3-0.4,0.4-0.7C65.8,49.7,65.5,49.3,65.1,49.2
			C65.1,49.2,65.1,49.2,65.1,49.2z"/>
	</g>
	<g>
		<path class="st2" d="M55,49.1c0.2-1.5,2.1-3.6,2.1-3.6s0.4,0,1,0.1c1.8,0.2,3,2.1,2.7,4.3c-0.3,2.1-1.9,3.7-3.6,3.5l-1-0.1
			C55.2,52.4,54.8,50.6,55,49.1z"/>
		<path class="st2" d="M57.4,53.6c-0.1,0-0.2,0-0.4,0l-0.9-0.1c-0.1,0-0.1,0-0.2-0.1c-1.1-0.9-1.5-2.9-1.3-4.4
			c0.2-1.6,2.1-3.7,2.2-3.8c0.1-0.1,0.2-0.1,0.3-0.1c0,0,0.4,0,1,0.1c1.9,0.2,3.3,2.3,3,4.6c-0.1,1.2-0.7,2.4-1.6,3.1
			C58.8,53.4,58.1,53.6,57.4,53.6z M56.3,52.9l0.9,0.1c0.7,0.1,1.3-0.1,1.9-0.6c0.8-0.6,1.3-1.6,1.4-2.6c0.2-2-0.9-3.7-2.5-3.9
			c-0.3,0-0.6-0.1-0.8-0.1c-0.4,0.5-1.8,2.1-1.9,3.3c0,0,0,0,0,0C55.2,50.4,55.4,52.1,56.3,52.9z M55,49.1L55,49.1L55,49.1z"/>
	</g>
	<g>
		<path class="st2" d="M53.4,48.9c0.3-2.1,1.9-3.7,3.6-3.5c1.8,0.2,3,2.1,2.7,4.3c-0.3,2.1-1.9,3.7-3.6,3.5
			C54.4,53,53.2,51,53.4,48.9z"/>
		<path class="st2" d="M56.5,53.5c-0.1,0-0.2,0-0.4,0c-1.9-0.2-3.3-2.3-3-4.6c0.1-1.2,0.7-2.4,1.6-3.1c0.7-0.5,1.5-0.8,2.4-0.7
			c1.9,0.2,3.3,2.3,3,4.6c-0.1,1.2-0.7,2.4-1.6,3.1C57.9,53.3,57.2,53.5,56.5,53.5z M56.7,45.7c-0.6,0-1.1,0.2-1.6,0.6
			c-0.8,0.6-1.3,1.6-1.4,2.6c0,0,0,0,0,0c-0.2,2,0.9,3.7,2.5,3.9c0.7,0.1,1.3-0.1,1.9-0.6c0.8-0.6,1.3-1.6,1.4-2.6
			c0.2-2-0.9-3.7-2.5-3.9C56.9,45.7,56.8,45.7,56.7,45.7z M53.4,48.9L53.4,48.9L53.4,48.9z"/>
	</g>
	<g>
		<path class="st0" d="M56.3,51.8c1.1,0.1,2.2-0.9,2.4-2.3c0.2-1.4-0.6-2.6-1.8-2.8c-1.2-0.1-2.2,0.9-2.4,2.3
			C54.4,50.4,55.2,51.7,56.3,51.8z"/>
	</g>
	<g>
		<path class="st1" d="M56.5,50.5c0.5,0.1,1.1-0.4,1.1-1.1c0.1-0.7-0.3-1.3-0.9-1.3c-0.5-0.1-1.1,0.4-1.1,1.1
			C55.5,49.8,55.9,50.4,56.5,50.5z"/>
	</g>
	<g>
		<path class="st0" d="M92.4,47.2c-0.9-1.1-5.4-2.4-5.4-2.4L84,42c-1.3-1.2-3-2-4.7-2.1l-6.2-0.6l-10.9-1.1c0,0-1.5,0-3.3,1.2
			c-1.8,1.3-3.6,2.2-4.2,2.3h0c-0.4,0-0.8,0.4-0.8,0.8l-0.5,4.7c0.4-0.9,1.5-2.1,3.4-1.8c2,0.3,3.5,2.5,3.2,4.9
			c0,0.2-0.1,0.4-0.1,0.6l11.8,1.1c0-0.3,0-0.6,0-0.9c0.3-2.5,2.2-4.3,4.2-4c2,0.3,3.5,2.5,3.2,4.9c0,0.2-0.1,0.4-0.1,0.6l13.6,1.3
			C92.6,54.1,93.3,48.3,92.4,47.2z"/>
		<path class="st2" d="M92.6,54.5C92.6,54.5,92.6,54.5,92.6,54.5l-13.7-1.3c-0.1,0-0.2-0.1-0.2-0.1s-0.1-0.2,0-0.3
			c0-0.2,0.1-0.4,0.1-0.6c0.3-2.3-1-4.4-2.9-4.6c-0.8-0.1-1.6,0.1-2.2,0.7c-0.9,0.7-1.5,1.8-1.6,3.1c0,0.3,0,0.5,0,0.8
			c0,0.1,0,0.2-0.1,0.2c-0.1,0.1-0.2,0.1-0.2,0.1l-11.8-1.1c-0.1,0-0.2-0.1-0.2-0.1s-0.1-0.2,0-0.3c0-0.2,0.1-0.4,0.1-0.6
			c0.3-2.3-1-4.3-2.9-4.6c-2.1-0.4-2.9,1.3-3.1,1.6c-0.1,0.1-0.2,0.2-0.4,0.2c-0.1,0-0.2-0.2-0.2-0.3l0.5-4.7c0.1-0.6,0.5-1,1.1-1.1
			c0,0,0,0,0,0h0c0.5-0.1,2.3-1,4.1-2.2c1.9-1.3,3.4-1.3,3.5-1.3c0,0,0,0,0,0l10.9,1.1l6.2,0.6c1.8,0.2,3.6,1,4.9,2.2l3,2.8
			c0.7,0.2,4.5,1.4,5.4,2.5c1,1.2,0.4,6.5,0.3,7.1C92.9,54.3,92.7,54.5,92.6,54.5z M79.3,52.5l13,1.3c0.2-2.2,0.4-5.7-0.2-6.4l0,0
			c-0.7-0.8-4-2-5.2-2.3c0,0-0.1,0-0.1-0.1l-3-2.8c-1.2-1.2-2.9-1.9-4.5-2.1L73,39.6l-10.9-1c-0.1,0-1.5,0.1-3.1,1.2
			c-1.8,1.2-3.7,2.3-4.4,2.3c0,0,0,0,0,0h0c-0.3,0-0.5,0.2-0.5,0.5L53.8,46c0.7-0.7,1.7-1.2,3-0.9c2.2,0.4,3.7,2.7,3.4,5.3
			c0,0.1,0,0.2,0,0.3l11.1,1.1c0-0.2,0-0.4,0-0.6c0.2-1.4,0.8-2.7,1.9-3.5c0.8-0.6,1.8-0.9,2.7-0.8c2.2,0.3,3.7,2.7,3.4,5.3
			C79.3,52.3,79.3,52.4,79.3,52.5z"/>
	</g>
	<g>
		<path class="st1" d="M84.6,46.5c-0.3-0.2-1.6-0.4-2.3-0.5c-0.2,0-0.4,0.2-0.3,0.5c0.1,0.4,0.3,0.8,0.4,1.1
			c0.1,0.2,0.3,0.4,0.5,0.4l0,0l2.2,0.2c0.1,0,0.2,0,0.3-0.1l0.3-0.4c0.1-0.2,0.1-0.4-0.1-0.5C85.2,46.9,84.9,46.7,84.6,46.5z"/>
	</g>
	<g>
		<path class="st3" d="M75.4,43.7l-15.9-1.5c0,0-1-0.1-0.5-1.6c0.2-0.5,2.5-1.9,2.9-1.8l11.5,1.1L75.4,43.7z"/>
	</g>
	<g>
		<defs>
			<path id="SVGID_3_" d="M75.4,43.7l-15.9-1.5c0,0-1-0.1-0.5-1.6c0.2-0.5,2.5-1.9,2.9-1.8l11.5,1.1L75.4,43.7z"/>
		</defs>
		<clipPath id="SVGID_4_">
			<use xlink:href="#SVGID_3_"  style="overflow:visible;"/>
		</clipPath>
		<g class="st7">
			<g class="st6">
				<path class="st3" d="M75.4,43.7l-15.9-1.5c0,0-1-0.1-0.5-1.6c0.2-0.5,2.5-1.9,2.9-1.8l11.5,1.1L75.4,43.7z"/>
			</g>
		</g>
	</g>
	<g>
		<path class="st1" d="M83.8,42.5l2.3,2.2l-10.8-1.1l-2-3.9l5.6,0.5C80.8,40.5,82.5,41.3,83.8,42.5z"/>
	</g>
	<g>
		<path class="st2" d="M91.2,48.7l0,0.2c0,0.2-0.1,0.4-0.3,0.5l-0.4,0.3c-0.1,0.1-0.3,0.1-0.4,0.1l-2.3-0.2c-0.1,0-0.2,0-0.3-0.1
			l-1.1-0.6c-0.2-0.1-0.4-0.4-0.4-0.7l0,0c0-0.4,0.4-0.7,0.8-0.6l3.8,0.4C90.9,47.9,91.2,48.3,91.2,48.7
			C91.2,48.7,91.2,48.7,91.2,48.7z"/>
		<path class="st2" d="M90,50.1C90,50.1,89.9,50.1,90,50.1l-2.4-0.2c-0.1,0-0.3-0.1-0.4-0.1l-1-0.6c-0.4-0.2-0.6-0.6-0.5-1
			c0.1-0.6,0.6-1,1.1-0.9l3.8,0.4c0.3,0,0.5,0.2,0.7,0.4c0.2,0.2,0.3,0.5,0.2,0.8c0,0,0,0,0,0l0,0.2c0,0.3-0.2,0.6-0.5,0.8l-0.4,0.3
			C90.4,50,90.2,50.1,90,50.1z M86.6,47.8c-0.2,0-0.4,0.2-0.4,0.4c0,0.2,0.1,0.3,0.2,0.4l1,0.6c0,0,0.1,0,0.2,0l2.3,0.2
			c0.1,0,0.2,0,0.2-0.1l0.4-0.3c0.1-0.1,0.2-0.2,0.2-0.3l0-0.2c0,0,0,0,0,0c0-0.2-0.1-0.4-0.4-0.4L86.6,47.8
			C86.7,47.8,86.6,47.8,86.6,47.8z"/>
	</g>
	<g>
		<path class="st2" d="M83.7,50l8.9,0.9l0.2-1c0,0.9,0,1.2-0.1,2l-0.1,0.2l-0.2-0.6l-1.7-0.2l0.5,0.7l-5.9-0.6l0.4-0.6l-2.2-0.2
			L83,51.1l-0.4,0l0.2-2.4L83.7,50z"/>
		<path class="st2" d="M92.7,52.4C92.7,52.4,92.7,52.4,92.7,52.4c-0.1,0-0.3-0.1-0.3-0.2l-0.1-0.4l-0.8-0.1l0.1,0.1
			c0.1,0.1,0.1,0.2,0,0.3c-0.1,0.1-0.2,0.2-0.3,0.2l-5.9-0.6c-0.1,0-0.2-0.1-0.3-0.2c0-0.1,0-0.2,0-0.3l0.1-0.2L83.7,51l-0.6,0.4
			c-0.1,0-0.1,0.1-0.2,0l-0.4,0c-0.1,0-0.2,0-0.2-0.1c-0.1-0.1-0.1-0.1-0.1-0.2l0.2-2.4c0-0.1,0.1-0.2,0.2-0.3c0.1,0,0.3,0,0.3,0.1
			l0.8,1.3l8.5,0.8l0.2-0.7c0-0.2,0.2-0.3,0.3-0.2c0.2,0,0.3,0.2,0.3,0.3l0,0.3c0,0.7,0,1-0.1,1.7c0,0,0,0,0,0.1L93,52.2
			C92.9,52.3,92.8,52.4,92.7,52.4z M86,51.2l4.7,0.5l-0.1-0.1c-0.1-0.1-0.1-0.2,0-0.3c0-0.1,0.1-0.1,0.2-0.1L86,50.6
			c0,0,0.1,0.1,0.1,0.1c0,0.1,0,0.2,0,0.3L86,51.2z M82.9,50.7L82.9,50.7l0.6-0.4c0,0,0.1,0,0.1,0c-0.1,0-0.1-0.1-0.1-0.1L83,49.5
			L82.9,50.7z"/>
	</g>
	<g>
		<path class="st3" d="M54.4,42.2c0.2,0,0.4,0.2,0.5,0.4c0.1,0.2,0.1,0.4-0.1,0.6l-0.7,1.1c-0.1,0.1-0.1,0.1-0.2,0
			c0,0-0.1-0.1-0.1-0.1l0.2-1.7l0,0C54.1,42.3,54.2,42.2,54.4,42.2L54.4,42.2z"/>
	</g>
	<g>
		<path class="st0" d="M73,44.3l-1.6-0.2c-0.4,0-0.7-0.4-0.7-0.8c0,0,0,0,0,0l0,0c0-0.4,0.4-0.7,0.8-0.7l1.6,0
			c0.4,0,0.8,0.4,0.8,0.8c0,0,0,0.1,0,0.1v0C73.8,44,73.4,44.3,73,44.3z"/>
		<path class="st2" d="M73.1,44.6c0,0-0.1,0-0.1,0l-1.6-0.2c-0.3,0-0.5-0.2-0.7-0.4c-0.2-0.2-0.3-0.5-0.2-0.8c0,0,0,0,0,0
			c0.1-0.5,0.5-1,1.1-1l1.6,0c0.6,0,1.1,0.5,1.1,1.1c0,0,0,0.1,0,0.1v0c0,0,0,0,0,0.1C74.1,44.2,73.6,44.6,73.1,44.6z M71,43.3
			c0,0.1,0,0.2,0.1,0.3c0.1,0.1,0.2,0.1,0.3,0.2L73,44c0,0,0,0,0,0c0.2,0,0.5-0.1,0.5-0.4v0c0,0,0,0,0-0.1c0,0,0,0,0-0.1
			c0-0.3-0.2-0.5-0.5-0.5l-1.6,0C71.2,42.9,71,43.1,71,43.3C71,43.3,71,43.3,71,43.3z"/>
	</g>
	<g>
		<path class="st2" d="M61.2,49.1c-0.1,0-0.3-0.1-0.3-0.2c-0.5-1.7-1.4-3-2.6-3.9c-0.1-0.1-0.1-0.2-0.1-0.3l0.2-2.5
			c0-0.2,0.2-0.3,0.3-0.3c0.2,0,0.3,0.2,0.3,0.3l-0.2,2.3c1.2,1,2.1,2.4,2.6,4.2C61.5,48.9,61.4,49,61.2,49.1
			C61.2,49.1,61.2,49.1,61.2,49.1z"/>
	</g>
	<g>
		<path class="st2" d="M81.7,49.9C81.7,49.9,81.7,49.9,81.7,49.9c-0.2,0-0.3-0.1-0.3-0.3c0.1-2.4-0.3-3.1-0.4-3.2
			c-0.7-0.8-4-2-5.2-2.3c0,0-0.1,0-0.1-0.1l-3-2.8c-1.2-1.2-2.9-1.9-4.5-2.1c-0.2,0-0.3-0.2-0.3-0.3c0-0.2,0.2-0.3,0.3-0.3
			c1.8,0.2,3.6,1,4.9,2.2l3,2.8c0.7,0.2,4.5,1.4,5.4,2.5c0.4,0.5,0.6,1.7,0.5,3.6C82,49.8,81.8,49.9,81.7,49.9z"/>
	</g>
	<g>
		<path class="st1" d="M79.1,52.2c0,0.2-0.1,0.4-0.1,0.6l13.6,1.3c0,0,0.1-0.4,0.1-1.1l-13.6-1.3C79.1,51.9,79.1,52,79.1,52.2z"/>
	</g>
	<g>
		<path class="st1" d="M60,49.9c0,0.2,0,0.3,0,0.5c0,0.2-0.1,0.4-0.1,0.6l11.8,1.1c0-0.3,0-0.6,0-0.9c0-0.1,0-0.2,0-0.2L60,49.9z"/>
	</g>
	<g>
		<path class="st1" d="M92.5,47.4c-0.3,0.1-0.5,0.2-0.7,0.3c-0.2,0.1-0.2,0.3-0.2,0.5l0.2,0.4c0,0.1,0.1,0.2,0.2,0.2l0.7,0.1
			C92.8,48.4,92.7,47.9,92.5,47.4z"/>
	</g>
	<g>
		<path class="st2" d="M92.6,54.5C92.6,54.5,92.6,54.5,92.6,54.5l-13.7-1.3c-0.1,0-0.2-0.1-0.2-0.1s-0.1-0.2,0-0.3
			c0-0.2,0.1-0.4,0.1-0.6c0.3-2.3-1-4.4-2.9-4.6c-0.8-0.1-1.6,0.1-2.2,0.7c-0.9,0.7-1.5,1.8-1.6,3.1c0,0.3,0,0.5,0,0.8
			c0,0.1,0,0.2-0.1,0.2c-0.1,0.1-0.2,0.1-0.2,0.1l-11.8-1.1c-0.1,0-0.2-0.1-0.2-0.1s-0.1-0.2,0-0.3c0-0.2,0.1-0.4,0.1-0.6
			c0.3-2.3-1-4.3-2.9-4.6c-2.1-0.4-2.9,1.3-3.1,1.6c-0.1,0.1-0.2,0.2-0.4,0.2c-0.1,0-0.2-0.2-0.2-0.3l0.5-4.7c0.1-0.6,0.5-1,1.1-1.1
			c0,0,0,0,0,0h0c0.5-0.1,2.3-1,4.1-2.2c1.9-1.3,3.4-1.3,3.5-1.3c0,0,0,0,0,0l10.9,1.1l6.2,0.6c1.8,0.2,3.6,1,4.9,2.2l3,2.8
			c0.7,0.2,4.5,1.4,5.4,2.5c1,1.2,0.4,6.5,0.3,7.1C92.9,54.3,92.7,54.5,92.6,54.5z M79.3,52.5l13,1.3c0.2-2.2,0.4-5.7-0.2-6.4l0,0
			c-0.7-0.8-4-2-5.2-2.3c0,0-0.1,0-0.1-0.1l-3-2.8c-1.2-1.2-2.9-1.9-4.5-2.1L73,39.6l-10.9-1c-0.1,0-1.5,0.1-3.1,1.2
			c-1.8,1.2-3.7,2.3-4.4,2.3c0,0,0,0,0,0h0c-0.3,0-0.5,0.2-0.5,0.5L53.8,46c0.7-0.7,1.7-1.2,3-0.9c2.2,0.4,3.7,2.7,3.4,5.3
			c0,0.1,0,0.2,0,0.3l11.1,1.1c0-0.2,0-0.4,0-0.6c0.2-1.4,0.8-2.7,1.9-3.5c0.8-0.6,1.8-0.9,2.7-0.8c2.2,0.3,3.7,2.7,3.4,5.3
			C79.3,52.3,79.3,52.4,79.3,52.5z"/>
	</g>
	<g>
		<path class="st2" d="M65.4,51.7C65.3,51.7,65.3,51.7,65.4,51.7c-0.2,0-0.3-0.2-0.3-0.3l0.8-8.6c0,0,0,0,0-0.1l1.4-4.1
			c0.1-0.2,0.2-0.3,0.4-0.2c0.2,0.1,0.3,0.2,0.2,0.4l-1.4,4.1l-0.8,8.5C65.7,51.6,65.5,51.7,65.4,51.7z"/>
	</g>
	<g>
		<path class="st2" d="M69.4,59C69.4,59,69.4,59,69.4,59l-15.8-1.5c-0.2,0-0.3-0.2-0.3-0.3c0-0.2,0.2-0.3,0.3-0.3l15.8,1.5
			c0.2,0,0.3,0.2,0.3,0.3C69.7,58.9,69.5,59,69.4,59z"/>
	</g>
	<g>
		<path class="st2" d="M84.9,62.6C84.9,62.6,84.9,62.6,84.9,62.6l-31.5-3c-0.2,0-0.3-0.2-0.3-0.3c0-0.2,0.2-0.3,0.3-0.3l31.5,3
			c0.2,0,0.3,0.2,0.3,0.3C85.2,62.5,85.1,62.6,84.9,62.6z"/>
	</g>
	<g>
		<path class="st2" d="M81.3,64.3C81.3,64.3,81.3,64.3,81.3,64.3l-28.1-2.7c-0.2,0-0.3-0.2-0.3-0.3c0-0.2,0.2-0.3,0.3-0.3l28.1,2.7
			c0.2,0,0.3,0.2,0.3,0.3C81.6,64.2,81.5,64.3,81.3,64.3z"/>
	</g>
	<g>
		<ellipse class="st1" cx="50.1" cy="75.7" rx="29.4" ry="2.5"/>
	</g>
	<g>
		<path class="st0" d="M24.6,28.3h50.9c1.5,0,2.7,1.2,2.7,2.7v35c0,1.5-1.2,2.7-2.7,2.7H24.6c-1.5,0-2.7-1.2-2.7-2.7V31
			C21.9,29.5,23.1,28.3,24.6,28.3z"/>
	</g>
	<g>
		<path class="st3" d="M59.1,29.3c0-0.4,0-0.7,0-1.1H24.6c-1.5,0-2.7,1.2-2.7,2.7v14.7c9,8.3,23.1,7.7,31.4-1.3
			C57.1,40.2,59.1,34.9,59.1,29.3L59.1,29.3z"/>
	</g>
	<g>
		<path class="st3" d="M21.9,57.5V66c0,1.5,1.2,2.7,2.7,2.7c0,0,0,0,0,0h50.9c1.5,0,2.7-1.2,2.7-2.7l0,0c0-4.7-3.8-8.5-8.5-8.5l0,0
			H21.9z"/>
	</g>
	<g>
		<path class="st2" d="M75.5,69H24.6c-1.7,0-3-1.4-3-3V31c0-1.7,1.4-3,3-3h50.9c1.7,0,3,1.4,3,3v35C78.6,67.6,77.2,69,75.5,69z
			 M24.6,28.6c-1.3,0-2.4,1.1-2.4,2.4v35c0,1.3,1.1,2.4,2.4,2.4h50.9c1.3,0,2.4-1.1,2.4-2.4V31c0-1.3-1.1-2.4-2.4-2.4H24.6z"/>
	</g>
	<g>
		<path class="st2" d="M50.8,50.4c0-1.8,2.1-4.6,2.1-4.6s0.5,0,1.2,0c2.1,0.1,4.6,2.2,4.5,4.8c-0.1,2.6-2.6,4.7-4.7,4.6h-1.2
			C51.5,54.4,50.8,52.3,50.8,50.4z"/>
		<path class="st2" d="M54,55.6c0,0-0.1,0-0.1,0l-1.2,0c-0.1,0-0.1,0-0.2-0.1c-1.4-0.9-2.1-3.3-2-5.1c0-1.9,2.1-4.7,2.1-4.8
			c0.1-0.1,0.1-0.1,0.2-0.1c0,0,0.5,0,1.2,0c2.3,0.1,4.9,2.3,4.9,5.2c0,1.3-0.6,2.5-1.6,3.5C56.4,55,55.1,55.6,54,55.6z M52.8,54.9
			h1.1c1,0,2.1-0.5,3-1.3c0.9-0.8,1.4-1.9,1.4-3c0-2.4-2.3-4.5-4.2-4.5c-0.4,0-0.8,0-1,0c-0.4,0.6-1.9,2.8-1.9,4.3c0,0,0,0,0,0
			C51.1,52.1,51.7,54.1,52.8,54.9z M50.8,50.4L50.8,50.4L50.8,50.4z"/>
	</g>
	<g>
		<path class="st2" d="M48.9,50.4c0.1-2.6,1.8-4.7,4-4.6c2.2,0.1,3.8,2.2,3.8,4.8c-0.1,2.6-1.8,4.7-4,4.6
			C50.6,55.2,48.9,53,48.9,50.4z"/>
		<path class="st2" d="M52.8,55.6c0,0-0.1,0-0.1,0c-2.3-0.1-4.2-2.4-4.1-5.2l0,0c0-1.5,0.6-2.9,1.6-3.8c0.8-0.7,1.7-1.1,2.7-1.1
			c2.3,0.1,4.2,2.4,4.1,5.2c0,1.5-0.6,2.9-1.6,3.8C54.7,55.2,53.8,55.6,52.8,55.6z M49.2,50.4c0,2.4,1.5,4.5,3.5,4.5
			c0.8,0,1.6-0.3,2.3-0.9c0.9-0.8,1.4-2,1.4-3.4c0-2.4-1.5-4.5-3.5-4.5c-0.8,0-1.6,0.3-2.3,0.9C49.8,47.9,49.3,49.1,49.2,50.4
			L49.2,50.4z"/>
	</g>
	<g>
		<path class="st0" d="M52.7,53.6c1.4,0,2.6-1.3,2.6-3c0-1.7-1.1-3.1-2.5-3.2c-1.4,0-2.6,1.3-2.6,3C50.2,52.2,51.3,53.6,52.7,53.6z"
			/>
	</g>
	<g>
		<path class="st1" d="M52.8,52c0.7,0,1.2-0.6,1.2-1.4c0-0.8-0.5-1.5-1.2-1.5c-0.7,0-1.2,0.6-1.2,1.4C51.6,51.3,52.1,52,52.8,52z"/>
	</g>
	<g>
		<path class="st2" d="M61.7,50.4c0-1.8,2.1-4.6,2.1-4.6s0.5,0,1.2,0c2.1,0.1,3.8,2.2,3.8,4.8c-0.1,2.6-1.8,4.7-4,4.6h-1.2
			C62.3,54.4,61.7,52.3,61.7,50.4z"/>
		<path class="st2" d="M64.8,55.6c0,0-0.1,0-0.1,0l-1.2,0c-0.1,0-0.1,0-0.2-0.1c-1.4-0.9-2.1-3.3-2-5.1c0-1.9,2.1-4.7,2.1-4.8
			c0.1-0.1,0.1-0.1,0.2-0.1c0,0,0.5,0,1.2,0c2.3,0.1,4.2,2.4,4.1,5.2c0,1.5-0.6,2.9-1.6,3.8C66.7,55.2,65.8,55.6,64.8,55.6z
			 M63.7,54.9h1.1c0.8,0,1.6-0.3,2.3-0.9c0.9-0.8,1.4-2,1.4-3.4c0-2.4-1.5-4.5-3.5-4.5c-0.4,0-0.8,0-1,0c-0.4,0.6-1.9,2.8-1.9,4.3
			c0,0,0,0,0,0C62,52.1,62.5,54.1,63.7,54.9z M61.7,50.4L61.7,50.4L61.7,50.4z"/>
	</g>
	<g>
		<path class="st2" d="M59.8,50.4c0.1-2.6,1.8-4.7,4-4.6c2.2,0.1,3.8,2.2,3.8,4.8c-0.1,2.6-1.8,4.7-4,4.6S59.7,53,59.8,50.4z"/>
		<path class="st2" d="M63.7,55.6c0,0-0.1,0-0.1,0c-2.3-0.1-4.2-2.4-4.1-5.2l0,0c0-1.5,0.6-2.9,1.6-3.8c0.8-0.7,1.7-1.1,2.7-1.1
			c2.3,0.1,4.2,2.4,4.1,5.2c0,1.5-0.6,2.9-1.6,3.8C65.6,55.2,64.6,55.6,63.7,55.6z M60.1,50.4c0,2.4,1.5,4.5,3.5,4.5
			c0.8,0,1.6-0.3,2.3-0.9c0.9-0.8,1.4-2,1.4-3.4c0-2.4-1.5-4.5-3.5-4.5c-0.8,0-1.6,0.3-2.3,0.9C60.6,47.9,60.1,49.1,60.1,50.4
			L60.1,50.4z"/>
	</g>
	<g>
		<path class="st2" d="M63.6,53.6c1.4,0,2.6-1.3,2.6-3c0-1.7-1.1-3.1-2.5-3.2c-1.4,0-2.6,1.3-2.6,3C61.1,52.2,62.2,53.6,63.6,53.6z"
			/>
		<path class="st2" d="M63.7,53.9C63.7,53.9,63.6,53.9,63.7,53.9c-1.6,0-2.9-1.6-2.9-3.5c0-1,0.4-1.9,1.1-2.6
			c0.5-0.5,1.2-0.8,1.9-0.8c1.6,0,2.8,1.6,2.8,3.5c0,1-0.4,1.9-1.1,2.6C65,53.7,64.3,53.9,63.7,53.9z M63.7,47.8
			c-0.5,0-1,0.2-1.4,0.6c-0.5,0.5-0.9,1.3-0.9,2.1c0,1.5,0.9,2.8,2.2,2.8c0,0,0,0,0,0c0.5,0,1-0.2,1.4-0.6c0.5-0.5,0.9-1.3,0.9-2.1
			C65.9,49.1,65,47.8,63.7,47.8C63.7,47.8,63.7,47.8,63.7,47.8z"/>
	</g>
	<g>
		<path class="st2" d="M63.6,52c0.7,0,1.2-0.6,1.2-1.4c0-0.8-0.5-1.5-1.2-1.5c-0.7,0-1.2,0.6-1.2,1.4C62.5,51.3,63,52,63.6,52z"/>
		<path class="st2" d="M63.7,52.3C63.7,52.3,63.7,52.3,63.7,52.3L63.7,52.3c-0.9,0-1.5-0.8-1.5-1.8c0-0.5,0.2-1,0.6-1.3
			c0.3-0.3,0.6-0.4,1-0.4c0.8,0,1.5,0.8,1.5,1.8c0,0.5-0.2,1-0.6,1.3C64.4,52.2,64,52.3,63.7,52.3z M63.7,51.7
			c0.3,0,0.4-0.1,0.5-0.2c0.2-0.2,0.4-0.5,0.4-0.9c0-0.6-0.4-1.2-0.9-1.2c-0.2,0-0.4,0.1-0.5,0.2c-0.2,0.2-0.4,0.5-0.4,0.9
			C62.8,51.1,63.2,51.7,63.7,51.7L63.7,51.7z"/>
	</g>
	<g>
		<path class="st2" d="M38.4,50.4c0-1.8,2.1-4.6,2.1-4.6s0.5,0,1.2,0c2.1,0.1,3.8,2.2,3.8,4.8c-0.1,2.6-1.8,4.7-4,4.6h-1.2
			C39.1,54.4,38.4,52.3,38.4,50.4z"/>
		<path class="st2" d="M41.6,55.6c0,0-0.1,0-0.1,0l-1.2,0c-0.1,0-0.1,0-0.2-0.1c-1.4-0.9-2.1-3.3-2-5.1l0,0c0-1.9,2.1-4.7,2.1-4.8
			c0.1-0.1,0.1-0.1,0.2-0.1c0,0,0.5,0,1.2,0c2.3,0.1,4.2,2.4,4.1,5.2c0,1.5-0.6,2.9-1.6,3.8C43.5,55.2,42.5,55.6,41.6,55.6z
			 M40.4,54.9h1.1c0.8,0,1.6-0.3,2.3-0.9c0.9-0.8,1.4-2,1.4-3.4c0-2.4-1.5-4.5-3.5-4.5c-0.4,0-0.8,0-1,0c-0.4,0.6-1.9,2.8-1.9,4.3
			C38.7,52.1,39.3,54.1,40.4,54.9z"/>
	</g>
	<g>
		<path class="st2" d="M36.5,50.4c0.1-2.6,1.8-4.7,4-4.6c2.2,0.1,3.8,2.2,3.8,4.8c-0.1,2.6-1.8,4.7-4,4.6S36.5,53,36.5,50.4z"/>
		<path class="st2" d="M40.4,55.6c0,0-0.1,0-0.1,0c-2.3-0.1-4.2-2.4-4.1-5.2l0,0c0-1.5,0.6-2.9,1.6-3.8c0.8-0.7,1.7-1.1,2.7-1.1
			c2.3,0.1,4.2,2.4,4.1,5.2c0,1.5-0.6,2.9-1.6,3.8C42.3,55.2,41.4,55.6,40.4,55.6z M36.8,50.4c0,2.4,1.5,4.5,3.5,4.5
			c0.8,0,1.6-0.3,2.3-0.9c0.9-0.8,1.4-2,1.4-3.4c0-2.4-1.5-4.5-3.5-4.5c-0.8,0-1.6,0.3-2.3,0.9C37.4,47.9,36.9,49.1,36.8,50.4
			L36.8,50.4z"/>
	</g>
	<g>
		<path class="st2" d="M40.4,53.6c1.4,0,2.6-1.3,2.6-3c0-1.7-1.1-3.1-2.5-3.2c-1.4,0-2.6,1.3-2.6,3C37.8,52.2,39,53.6,40.4,53.6z"/>
		<path class="st2" d="M40.4,53.9C40.4,53.9,40.4,53.9,40.4,53.9c-1.6,0-2.9-1.6-2.9-3.5c0-1,0.4-1.9,1.1-2.6
			c0.5-0.5,1.2-0.8,1.9-0.7c1.6,0,2.8,1.6,2.8,3.5c0,1-0.4,1.9-1.1,2.6C41.7,53.7,41.1,53.9,40.4,53.9z M40.4,47.8
			c-0.5,0-1,0.2-1.3,0.6c-0.5,0.5-0.9,1.3-0.9,2.1c0,1.5,0.9,2.8,2.2,2.8c0,0,0,0,0,0c0.5,0,1-0.2,1.4-0.6c0.5-0.5,0.9-1.3,0.9-2.1
			C42.7,49.1,41.7,47.8,40.4,47.8C40.5,47.8,40.4,47.8,40.4,47.8z"/>
	</g>
	<g>
		<path class="st2" d="M40.4,52c0.7,0,1.2-0.6,1.2-1.4c0-0.8-0.5-1.5-1.2-1.5c-0.7,0-1.2,0.6-1.2,1.4C39.2,51.3,39.7,52,40.4,52z"/>
		<path class="st2" d="M40.4,52.3C40.4,52.3,40.4,52.3,40.4,52.3c-0.9,0-1.5-0.8-1.5-1.8c0-0.5,0.2-1,0.6-1.3c0.3-0.3,0.6-0.4,1-0.4
			c0.8,0,1.5,0.8,1.5,1.8c0,0.5-0.2,1-0.6,1.3C41.1,52.2,40.8,52.3,40.4,52.3z M40.4,49.4c-0.2,0-0.4,0.1-0.5,0.2
			c-0.2,0.2-0.4,0.5-0.4,0.9c0,0.6,0.4,1.2,0.9,1.2l0,0c0.2,0,0.4-0.1,0.5-0.2c0.2-0.2,0.4-0.5,0.4-0.9
			C41.3,49.9,40.9,49.4,40.4,49.4C40.4,49.4,40.4,49.4,40.4,49.4z"/>
	</g>
	<g>
		<path class="st2" d="M28.2,50.4c0-1.8,2.1-4.6,2.1-4.6s0.5,0,1.2,0c2.1,0.1,3.8,2.2,3.8,4.8c-0.1,2.6-1.8,4.7-4,4.6h-1.2
			C28.8,54.4,28.2,52.3,28.2,50.4z"/>
		<path class="st2" d="M31.3,55.6c0,0-0.1,0-0.1,0l-1.2,0c-0.1,0-0.1,0-0.2-0.1c-1.4-0.9-2.1-3.3-2-5.1c0-1.9,2.1-4.7,2.1-4.8
			c0.1-0.1,0.1-0.1,0.2-0.1c0,0,0.5,0,1.2,0c2.3,0.1,4.2,2.4,4.1,5.2c0,1.5-0.6,2.9-1.6,3.8C33.2,55.2,32.3,55.6,31.3,55.6z
			 M30.2,54.9h1.1c0.8,0,1.6-0.3,2.3-0.9c0.9-0.8,1.4-2,1.4-3.4c0-2.4-1.5-4.5-3.5-4.5c-0.4,0-0.8,0-1,0c-0.4,0.6-1.9,2.8-1.9,4.3
			c0,0,0,0,0,0C28.5,52.1,29,54.1,30.2,54.9z M28.2,50.4L28.2,50.4L28.2,50.4z"/>
	</g>
	<g>
		<path class="st2" d="M26.3,50.4c0.1-2.6,1.8-4.7,4-4.6c2.2,0.1,3.8,2.2,3.8,4.8c-0.1,2.6-1.8,4.7-4,4.6S26.2,53,26.3,50.4z"/>
		<path class="st2" d="M30.2,55.6c0,0-0.1,0-0.1,0c-2.3-0.1-4.2-2.4-4.1-5.2l0,0c0-1.5,0.6-2.9,1.6-3.8c0.8-0.7,1.7-1.1,2.7-1.1
			c2.3,0.1,4.2,2.4,4.1,5.2c0,1.5-0.6,2.9-1.6,3.8C32.1,55.2,31.1,55.6,30.2,55.6z M26.6,50.4c0,2.4,1.5,4.5,3.5,4.5
			c0.8,0,1.6-0.3,2.3-0.9c0.9-0.8,1.4-2,1.4-3.4c0-2.4-1.5-4.5-3.5-4.5c-0.8,0-1.6,0.3-2.3,0.9C27.1,47.9,26.6,49.1,26.6,50.4
			L26.6,50.4z"/>
	</g>
	<g>
		<path class="st0" d="M30.1,53.6c1.4,0,2.6-1.3,2.6-3c0-1.7-1.1-3.1-2.5-3.2c-1.4,0-2.6,1.3-2.6,3C27.6,52.2,28.7,53.6,30.1,53.6z"
			/>
	</g>
	<g>
		<path class="st1" d="M30.2,52c0.7,0,1.2-0.6,1.2-1.4c0-0.8-0.5-1.5-1.2-1.5c-0.7,0-1.2,0.6-1.2,1.4C29,51.3,29.5,52,30.2,52z"/>
	</g>
	<g>
		<path class="st0" d="M73,43.9c-1.2-1.2-6.7-2.3-6.7-2.3l-4-3.1c-1.7-1.3-3.8-2-5.9-2H35.6c0,0-1.8,0.1-3.8,1.9
			c-2,1.7-4.1,3.1-4.8,3.2h0c-0.5,0.1-0.9,0.5-0.9,1.1v5.8c0.4-1.2,1.6-2.8,3.9-2.6c2.5,0.2,4.4,2.6,4.4,5.6c0,0.3,0,0.5-0.1,0.8
			h14.4c0-0.3-0.1-0.7-0.1-1.1c0.1-3,2.1-5.4,4.6-5.3c2.5,0.1,4.4,2.6,4.4,5.6c0,0.3,0,0.5-0.1,0.8h16.6
			C74.1,52.2,74.3,45.1,73,43.9z"/>
		<path class="st2" d="M48.6,52.5H34.3c-0.1,0-0.2,0-0.2-0.1c-0.1-0.1-0.1-0.2-0.1-0.3c0-0.2,0.1-0.5,0.1-0.7
			c0.1-2.8-1.7-5.1-4.1-5.3c-2.6-0.2-3.4,2-3.6,2.4c0,0.1-0.2,0.2-0.3,0.2c-0.2,0-0.3-0.2-0.3-0.3v-5.8c0-0.7,0.5-1.2,1.1-1.4
			c0,0,0,0,0.1,0h0c0.7-0.2,2.7-1.4,4.7-3.1c2.1-1.8,3.9-1.9,4-1.9c0,0,0,0,0,0h20.8c2.2,0,4.4,0.7,6.1,2.1l3.9,3
			c0.7,0.1,5.6,1.2,6.8,2.4c1.3,1.3,1.2,7.8,1.2,8.5c0,0.2-0.1,0.3-0.3,0.3H57.5c-0.1,0-0.2,0-0.2-0.1c-0.1-0.1-0.1-0.2-0.1-0.3
			c0-0.2,0.1-0.5,0.1-0.7c0.1-2.8-1.8-5.2-4.1-5.3c-1,0-1.9,0.4-2.7,1.1c-1,1-1.6,2.4-1.6,3.9c0,0.3,0,0.7,0.1,1
			c0,0.1,0,0.2-0.1,0.3C48.8,52.4,48.7,52.5,48.6,52.5z M34.6,51.9h13.7c0-0.2,0-0.5,0-0.7c0-1.7,0.7-3.3,1.8-4.4
			c0.9-0.8,2-1.3,3.1-1.2c2.7,0.1,4.8,2.7,4.7,5.9c0,0.2,0,0.3,0,0.5h15.9c0-2.8-0.2-7-1-7.8c0,0,0,0,0,0c-0.9-0.9-5.1-1.9-6.6-2.2
			c0,0-0.1,0-0.1-0.1l-4-3.1c-1.6-1.3-3.7-2-5.8-2H35.6c-0.1,0-1.8,0.2-3.6,1.8c-2,1.7-4.2,3.1-5,3.3c0,0,0,0-0.1,0h0
			c-0.3,0.1-0.6,0.4-0.6,0.7v4.5c0.7-1,1.9-1.7,3.6-1.6c2.7,0.2,4.7,2.8,4.7,5.9C34.6,51.5,34.6,51.7,34.6,51.9z"/>
	</g>
	<g>
		<path class="st3" d="M63.6,43.9c-0.4-0.2-2-0.3-2.9-0.4c-0.3,0-0.5,0.3-0.3,0.6c0.2,0.4,0.5,0.9,0.6,1.2c0.1,0.2,0.3,0.4,0.6,0.4
			l0,0h2.7c0.1,0,0.2-0.1,0.3-0.2l0.3-0.5c0.1-0.2,0-0.4-0.1-0.6C64.4,44.3,64,44.1,63.6,43.9z"/>
	</g>
	<g>
		<path class="st3" d="M52.2,41.6H32.8c0,0-1.2,0-0.8-1.9c0.1-0.6,2.8-2.6,3.3-2.6h14L52.2,41.6z"/>
	</g>
	<g>
		<defs>
			<path id="SVGID_5_" d="M52.2,41.6H32.8c0,0-1.2,0-0.8-1.9c0.1-0.6,2.8-2.6,3.3-2.6h14L52.2,41.6z"/>
		</defs>
		<clipPath id="SVGID_6_">
			<use xlink:href="#SVGID_5_"  style="overflow:visible;"/>
		</clipPath>
		<g class="st8">
			<g class="st6">
				<path class="st3" d="M52.2,41.6H32.8c0,0-1.2,0-0.8-1.9c0.1-0.6,2.8-2.6,3.3-2.6h13.9L52.2,41.6z"/>
			</g>
		</g>
	</g>
	<g>
		<path class="st3" d="M62.2,39.2l3.1,2.4H52.2l-2.9-4.4h6.9C58.3,37.1,60.5,37.9,62.2,39.2z"/>
	</g>
	<g>
		<path class="st2" d="M71.7,45.7v0.2c0,0.3-0.1,0.5-0.4,0.7L70.9,47c-0.1,0.1-0.3,0.2-0.5,0.2h-2.8c-0.1,0-0.2,0-0.3-0.1l-1.3-0.6
			c-0.3-0.1-0.5-0.4-0.5-0.8l0,0c0-0.5,0.4-0.9,0.9-0.9h4.6C71.3,44.9,71.7,45.3,71.7,45.7z"/>
		<path class="st2" d="M67.6,47.5c-0.2,0-0.3,0-0.5-0.1l-1.3-0.6c-0.4-0.2-0.7-0.6-0.7-1.1c0-0.6,0.5-1.2,1.2-1.2h4.6
			c0.6,0,1.2,0.5,1.2,1.2c0,0,0,0,0,0v0.2c0,0.4-0.2,0.7-0.5,1l-0.5,0.4c-0.2,0.1-0.4,0.2-0.7,0.2H67.6
			C67.6,47.5,67.6,47.5,67.6,47.5z M70.9,45.2h-4.6c-0.3,0-0.5,0.2-0.5,0.5c0,0.2,0.1,0.4,0.3,0.5l1.3,0.6c0.1,0,0.1,0,0.2,0h2.8
			c0.1,0,0.2,0,0.3-0.1l0.5-0.4c0.1-0.1,0.2-0.3,0.2-0.4v-0.2C71.4,45.4,71.2,45.2,70.9,45.2z"/>
	</g>
	<g>
		<path class="st2" d="M62.9,48.3h10.8l0.2-1.2c0.1,1.1,0.1,1.5,0.1,2.4l0,0.3L73.7,49h-2l0.7,0.8h-7.2l0.4-0.8h-2.7l-0.7,0.6h-0.5
			v-2.9L62.9,48.3z"/>
		<path class="st2" d="M72.4,50.1h-7.2c-0.1,0-0.2-0.1-0.3-0.1c-0.1-0.1-0.1-0.2,0-0.3l0.2-0.3H63l-0.7,0.5c-0.1,0-0.1,0.1-0.2,0.1
			h-0.5c-0.2,0-0.3-0.1-0.3-0.3v-2.9c0-0.1,0.1-0.3,0.2-0.3c0.1,0,0.3,0,0.4,0.1l1.2,1.5h10.4l0.1-0.9c0-0.2,0.2-0.3,0.3-0.3
			c0.2,0,0.3,0.1,0.3,0.3l0,0.3c0.1,0.8,0.1,1.3,0.1,2.1c0,0,0,0,0,0.1l0,0.3c0,0.1-0.1,0.2-0.3,0.3c-0.1,0-0.3-0.1-0.3-0.2
			l-0.2-0.5h-1.1l0.2,0.2c0.1,0.1,0.1,0.2,0.1,0.3C72.6,50,72.5,50.1,72.4,50.1z M65.7,49.4h6l-0.2-0.2c-0.1-0.1-0.1-0.2-0.1-0.3
			c0.1-0.1,0.2-0.2,0.3-0.2h2c0,0,0-0.1,0-0.1H62.9c-0.1,0-0.2,0-0.2-0.1l-0.7-0.9v1.7H62l0.7-0.5c0.1,0,0.1-0.1,0.2-0.1h2.7
			c0.1,0,0.2,0.1,0.3,0.1c0.1,0.1,0.1,0.2,0,0.3L65.7,49.4z"/>
	</g>
	<g>
		<path class="st3" d="M26.7,42.3c0.3,0,0.6,0.1,0.7,0.4c0.1,0.2,0.1,0.5,0,0.7l-0.7,1.4c0,0.1-0.2,0.1-0.3,0.1
			c-0.1,0-0.1-0.1-0.1-0.2v-2l0,0C26.3,42.4,26.5,42.3,26.7,42.3L26.7,42.3z"/>
	</g>
	<g>
		<path class="st0" d="M49.3,42.6h-2c-0.5,0-0.9-0.4-0.9-0.9l0,0l0,0c0-0.5,0.4-0.9,0.8-0.9l2-0.1c0.5,0,1,0.4,1,0.9
			c0,0,0,0.1,0,0.1v0C50.2,42.2,49.8,42.6,49.3,42.6z"/>
		<path class="st2" d="M49.3,42.9C49.3,42.9,49.3,42.9,49.3,42.9h-2c-0.7,0-1.2-0.5-1.2-1.2c0-0.6,0.5-1.2,1.1-1.2l2-0.1
			c0.3,0,0.7,0.1,0.9,0.3c0.3,0.2,0.4,0.5,0.4,0.9c0,0.1,0,0.1,0,0.2v0c0,0,0,0,0,0C50.5,42.3,50,42.9,49.3,42.9z M49.3,40.9
			C49.3,40.9,49.3,40.9,49.3,40.9l-2,0.1c-0.3,0-0.5,0.3-0.5,0.6c0,0.3,0.3,0.6,0.6,0.6h2c0,0,0,0,0,0c0.3,0,0.6-0.3,0.6-0.6v0
			c0,0,0,0,0,0c0,0,0-0.1,0-0.1c0-0.2-0.1-0.3-0.2-0.4C49.6,41,49.5,40.9,49.3,40.9z"/>
	</g>
	<g>
		<path class="st2" d="M35.6,49.7c-0.1,0-0.2-0.1-0.3-0.2c-0.8-2-2-3.5-3.6-4.5c-0.1-0.1-0.2-0.2-0.2-0.3v-3c0-0.2,0.1-0.3,0.3-0.3
			c0.2,0,0.3,0.1,0.3,0.3v2.8c1.6,1,2.9,2.6,3.7,4.7c0.1,0.2,0,0.3-0.2,0.4C35.7,49.7,35.6,49.7,35.6,49.7z"/>
	</g>
	<g>
		<path class="st2" d="M60.4,48.3c-0.2,0-0.3-0.1-0.3-0.3c-0.2-2.8-0.6-3.7-0.9-3.9c-0.9-0.9-5.1-1.9-6.6-2.2c0,0-0.1,0-0.1-0.1
			l-4-3.1c-1.6-1.3-3.7-2-5.8-2c-0.2,0-0.3-0.1-0.3-0.3c0-0.2,0.1-0.3,0.3-0.3c2.2,0,4.4,0.7,6.1,2.1l3.9,3c0.7,0.1,5.6,1.2,6.8,2.4
			c0.5,0.5,0.9,1.9,1,4.3C60.7,48.1,60.6,48.3,60.4,48.3C60.4,48.3,60.4,48.3,60.4,48.3z"/>
	</g>
	<g>
		<path class="st1" d="M57.6,51.4c0,0.3,0,0.5-0.1,0.8h16.6c0,0,0-0.5,0-1.3H57.6C57.6,51,57.6,51.2,57.6,51.4z"/>
	</g>
	<g>
		<path class="st1" d="M34.3,50.8c0,0.2,0,0.4,0,0.6c0,0.3,0,0.5-0.1,0.8h14.4c0-0.3-0.1-0.7-0.1-1.1c0-0.1,0-0.2,0-0.3L34.3,50.8z"
			/>
	</g>
	<g>
		<path class="st3" d="M73.2,44.1c-0.3,0.2-0.6,0.3-0.8,0.4c-0.2,0.1-0.2,0.4-0.1,0.6l0.3,0.5c0.1,0.1,0.2,0.2,0.3,0.2h0.9
			C73.6,45.1,73.4,44.4,73.2,44.1z"/>
	</g>
	<g>
		<path class="st2" d="M48.6,52.5H34.3c-0.1,0-0.2,0-0.2-0.1c-0.1-0.1-0.1-0.2-0.1-0.3c0-0.2,0.1-0.5,0.1-0.7
			c0.1-2.8-1.7-5.1-4.1-5.3c-2.6-0.2-3.4,2-3.6,2.4c0,0.1-0.2,0.2-0.3,0.2c-0.2,0-0.3-0.2-0.3-0.3v-5.8c0-0.7,0.5-1.2,1.1-1.4
			c0,0,0,0,0.1,0h0c0.7-0.2,2.7-1.4,4.7-3.1c2.1-1.8,3.9-1.9,4-1.9c0,0,0,0,0,0h20.8c2.2,0,4.4,0.7,6.1,2.1l3.9,3
			c0.7,0.1,5.6,1.2,6.8,2.4c1.3,1.3,1.2,7.8,1.2,8.5c0,0.2-0.1,0.3-0.3,0.3H57.5c-0.1,0-0.2,0-0.2-0.1c-0.1-0.1-0.1-0.2-0.1-0.3
			c0-0.2,0.1-0.5,0.1-0.7c0.1-2.8-1.8-5.2-4.1-5.3c-1,0-1.9,0.4-2.7,1.1c-1,1-1.6,2.4-1.6,3.9c0,0.3,0,0.7,0.1,1
			c0,0.1,0,0.2-0.1,0.3C48.8,52.4,48.7,52.5,48.6,52.5z M34.6,51.9h13.7c0-0.2,0-0.5,0-0.7c0-1.7,0.7-3.3,1.8-4.4
			c0.9-0.8,2-1.3,3.1-1.2c2.7,0.1,4.8,2.7,4.7,5.9c0,0.2,0,0.3,0,0.5h15.9c0-2.8-0.2-7-1-7.8c0,0,0,0,0,0c-0.9-0.9-5.1-1.9-6.6-2.2
			c0,0-0.1,0-0.1-0.1l-4-3.1c-1.6-1.3-3.7-2-5.8-2H35.6c-0.1,0-1.8,0.2-3.6,1.8c-2,1.7-4.2,3.1-5,3.3c0,0,0,0-0.1,0h0
			c-0.3,0.1-0.6,0.4-0.6,0.7v4.5c0.7-1,1.9-1.7,3.6-1.6c2.7,0.2,4.7,2.8,4.7,5.9C34.6,51.5,34.6,51.7,34.6,51.9z"/>
	</g>
	<g>
		<path class="st2" d="M41,52.3c-0.2,0-0.3-0.1-0.3-0.3V41.6c0,0,0,0,0-0.1l1.2-5.1c0-0.2,0.2-0.3,0.4-0.2c0.2,0,0.3,0.2,0.2,0.4
			l-1.2,5.1V52C41.3,52.2,41.1,52.3,41,52.3z"/>
	</g>
	<g>
		<path class="st0" d="M46.7,60.7H27.5c-0.2,0-0.3-0.1-0.3-0.3c0-0.2,0.1-0.3,0.3-0.3h19.2c0.2,0,0.3,0.1,0.3,0.3
			C47,60.6,46.8,60.7,46.7,60.7z"/>
	</g>
	<g>
		<path class="st0" d="M65.8,63.2H27.5c-0.2,0-0.3-0.1-0.3-0.3c0-0.2,0.1-0.3,0.3-0.3h38.3c0.2,0,0.3,0.1,0.3,0.3
			C66.1,63,66,63.2,65.8,63.2z"/>
	</g>
	<g>
		<path class="st0" d="M54,65.6H27.5c-0.2,0-0.3-0.1-0.3-0.3c0-0.2,0.1-0.3,0.3-0.3H54c0.2,0,0.3,0.1,0.3,0.3
			C54.3,65.5,54.2,65.6,54,65.6z"/>
	</g>
	<g>
		<path class="st0" d="M70.7,82.1c-0.8,0-1.5-0.4-1.9-1.1c-0.9-1.5-2.5-4.4-3.7-6.8c-1.8-3.3-1.2-3.8,0-4.3c0.7-0.3,2.2,1.3,2.9,2.2
			c0,0.1,0.1,0,0.1,0V61c0-0.7,0.6-1.3,1.6-1.3l0,0c0.7,0,1.3,0.6,1.3,1.3v5.5l0.5-0.5c0.4-0.4,0.9-0.6,1.4-0.6l0,0
			c0.5,0,1,0.2,1.4,0.6l0,0c0.2,0.2,0.3,0.5,0.3,0.8v1l0.4-0.4c0.3-0.3,0.7-0.4,1.1-0.4l0,0c0.4,0,0.8,0.2,1.1,0.4l0,0
			c0.3,0.3,0.5,0.7,0.5,1.1v1.3l0.3-0.3c0.3-0.3,0.7-0.5,1.1-0.5l0,0c0.4,0,0.8,0.2,1.1,0.5l0,0c0.3,0.3,0.4,0.6,0.4,1V77
			c0,0.9-0.2,1.7-0.6,2.5l-0.7,1.5c-0.4,0.7-1.1,1.2-1.9,1.2H70.7z"/>
	</g>
	<g>
		<path class="st1" d="M80,69.6c-0.2-0.2-0.4-0.3-0.6-0.4v6c0,0.9-0.2,1.7-0.6,2.5l-0.7,1.5c-0.4,0.7-1.1,1.2-1.9,1.2h-6.5
			c-0.8,0-1.5-0.4-1.8-1.1c0.4,0.7,0.7,1.3,1,1.7c0.4,0.7,1.1,1.1,1.9,1.1h6.5c0.8,0,1.6-0.5,1.9-1.2l0.7-1.5
			c0.4-0.8,0.6-1.6,0.6-2.5v-6.4C80.4,70.2,80.3,69.9,80,69.6z"/>
	</g>
	<g>
		<path class="st2" d="M77.2,82.4C77.2,82.4,77.2,82.4,77.2,82.4l-6.5,0c0,0,0,0,0,0c-0.9,0-1.7-0.5-2.1-1.2
			c-0.9-1.5-2.5-4.4-3.7-6.8c-1-1.9-1.3-3-1.1-3.7c0.2-0.6,0.7-0.8,1.3-1.1c0.2-0.1,0.9-0.4,2.8,1.7V61c0-0.9,0.8-1.6,1.9-1.6
			c0,0,0,0,0,0c0.9,0,1.6,0.7,1.6,1.6v4.8c0.4-0.4,1-0.6,1.6-0.6c0.6,0,1.2,0.2,1.6,0.7c0.3,0.3,0.4,0.6,0.4,1v0.3
			c0.3-0.3,0.7-0.4,1.1-0.4c0.5,0,0.9,0.2,1.3,0.5c0.4,0.4,0.6,0.8,0.6,1.3v0.6c0.3-0.2,0.7-0.3,1.1-0.3c0.5,0,1,0.2,1.3,0.6
			c0.3,0.3,0.5,0.7,0.5,1.2V77c0,0.9-0.2,1.8-0.6,2.7l-0.7,1.5C79,81.9,78.2,82.4,77.2,82.4z M70.7,81.8L70.7,81.8h6.5c0,0,0,0,0,0
			c0.7,0,1.3-0.4,1.6-1l0.7-1.5c0.4-0.7,0.6-1.6,0.6-2.4v-6.4c0-0.3-0.1-0.5-0.3-0.7c-0.2-0.2-0.6-0.4-0.9-0.4s-0.7,0.1-0.9,0.4
			l-0.3,0.3c-0.1,0.1-0.2,0.1-0.3,0.1c-0.1,0-0.2-0.2-0.2-0.3v-1.3c0-0.3-0.1-0.7-0.4-0.9c-0.2-0.2-0.5-0.3-0.8-0.3c0,0,0,0,0,0
			c-0.3,0-0.6,0.1-0.8,0.3l-0.4,0.4c-0.1,0.1-0.2,0.1-0.3,0.1c-0.1,0-0.2-0.2-0.2-0.3v-1c0-0.2-0.1-0.4-0.2-0.6
			c-0.3-0.3-0.7-0.5-1.2-0.5c-0.4,0-0.9,0.2-1.2,0.5l-0.5,0.5c-0.1,0.1-0.2,0.1-0.3,0.1c-0.1,0-0.2-0.2-0.2-0.3V61
			c0-0.5-0.4-0.9-1-0.9c0,0,0,0,0,0c-0.8,0-1.3,0.4-1.3,0.9v11.1c0,0.2-0.1,0.3-0.2,0.4c-0.1,0-0.3,0-0.4-0.1
			c-1.5-1.9-2.3-2.2-2.6-2.1c-0.5,0.2-0.8,0.4-0.9,0.7c-0.2,0.5,0.1,1.5,1,3.2c1.2,2.3,2.9,5.2,3.7,6.7C69.4,81.5,70,81.8,70.7,81.8
			C70.7,81.8,70.7,81.8,70.7,81.8z M68.3,71.9C68.3,71.9,68.3,71.9,68.3,71.9C68.3,71.9,68.3,71.9,68.3,71.9z"/>
	</g>
	<g>
		<path class="st2" d="M77.5,71.2c-0.2,0-0.3-0.1-0.3-0.3v-1.1c0-0.2,0.1-0.3,0.3-0.3c0.2,0,0.3,0.1,0.3,0.3v1.1
			C77.9,71.1,77.7,71.2,77.5,71.2z"/>
	</g>
	<g>
		<path class="st2" d="M74.6,70.7c-0.2,0-0.3-0.1-0.3-0.3v-2.6c0-0.2,0.1-0.3,0.3-0.3c0.2,0,0.3,0.1,0.3,0.3v2.6
			C74.9,70.6,74.8,70.7,74.6,70.7z"/>
	</g>
	<g>
		<path class="st2" d="M71,70.2c-0.2,0-0.3-0.1-0.3-0.3v-3.3c0-0.2,0.1-0.3,0.3-0.3c0.2,0,0.3,0.1,0.3,0.3v3.3
			C71.3,70,71.2,70.2,71,70.2z"/>
	</g>
	<g>
		<path class="st0" d="M51,18.4l1.3,2.6c0.1,0.3,0.4,0.5,0.7,0.5l2.9,0.4c0.5,0.1,0.9,0.6,0.8,1.1c0,0.2-0.1,0.4-0.3,0.6l-2.1,2
			c-0.2,0.2-0.3,0.5-0.3,0.9l0.5,2.9c0.1,0.5-0.3,1-0.8,1.1c-0.2,0-0.4,0-0.6-0.1l-2.6-1.4c-0.3-0.1-0.6-0.1-0.9,0l-2.6,1.4
			c-0.5,0.2-1.1,0.1-1.3-0.4c-0.1-0.2-0.1-0.4-0.1-0.6l0.5-2.9c0.1-0.3,0-0.6-0.3-0.9l-2.1-2c-0.4-0.4-0.4-1,0-1.4
			c0.1-0.2,0.3-0.3,0.6-0.3l2.9-0.4c0.3,0,0.6-0.2,0.7-0.5l1.3-2.6c0.2-0.5,0.8-0.7,1.3-0.4C50.7,18.1,50.9,18.2,51,18.4z"/>
		<path class="st2" d="M46.6,30.9c-0.5,0-0.9-0.2-1.1-0.7c-0.1-0.2-0.2-0.5-0.1-0.8l0.5-2.9c0-0.2,0-0.4-0.2-0.6l-2.1-2
			c-0.2-0.2-0.4-0.6-0.4-0.9c0-0.3,0.1-0.7,0.4-0.9c0.2-0.2,0.5-0.3,0.7-0.4l2.9-0.4c0.2,0,0.4-0.2,0.5-0.4l1.3-2.6
			c0.2-0.3,0.4-0.5,0.7-0.6c0.3-0.1,0.7-0.1,1,0.1c0.3,0.1,0.5,0.3,0.6,0.6c0,0,0,0,0,0l1.3,2.6c0.1,0.2,0.3,0.3,0.5,0.4l2.9,0.4
			c0.7,0.1,1.2,0.8,1.1,1.5c0,0.3-0.2,0.5-0.4,0.7l-2.1,2c-0.2,0.1-0.2,0.4-0.2,0.6l0.5,2.9c0.1,0.3,0,0.7-0.2,1
			c-0.2,0.3-0.5,0.5-0.8,0.5c-0.3,0-0.6,0-0.8-0.1l-2.6-1.4c-0.2-0.1-0.4-0.1-0.6,0l-2.6,1.4C47,30.8,46.8,30.9,46.6,30.9z
			 M50.1,18.2c-0.1,0-0.1,0-0.2,0c-0.2,0.1-0.3,0.2-0.4,0.3l-1.3,2.6c-0.2,0.4-0.5,0.6-1,0.7l-2.9,0.4c-0.1,0-0.3,0.1-0.4,0.2
			c-0.1,0.1-0.2,0.3-0.2,0.5c0,0.2,0.1,0.3,0.2,0.5l2.1,2c0.3,0.3,0.4,0.7,0.4,1.1L46,29.5c0,0.1,0,0.3,0.1,0.4
			c0.2,0.3,0.6,0.4,0.9,0.3l2.6-1.4c0.4-0.2,0.8-0.2,1.2,0l2.6,1.4c0.1,0.1,0.3,0.1,0.4,0.1c0.2,0,0.3-0.1,0.4-0.3s0.1-0.3,0.1-0.5
			l-0.5-2.9c-0.1-0.4,0.1-0.8,0.4-1.1l2.1-2c0.1-0.1,0.2-0.2,0.2-0.4c0.1-0.4-0.2-0.7-0.6-0.7L53,21.9c-0.4-0.1-0.8-0.3-1-0.7
			l-1.3-2.6c-0.1-0.1-0.2-0.2-0.3-0.3C50.3,18.2,50.2,18.2,50.1,18.2z"/>
	</g>
	<g>
		<path class="st0" d="M63.9,21.8l0.9,1.9c0.1,0.2,0.3,0.3,0.5,0.4l2.1,0.3c0.4,0.1,0.6,0.4,0.6,0.8c0,0.1-0.1,0.3-0.2,0.4l-1.5,1.5
			c-0.2,0.2-0.2,0.4-0.2,0.6l0.4,2.1c0.1,0.4-0.2,0.7-0.6,0.8c-0.2,0-0.3,0-0.4-0.1l-1.9-1c-0.2-0.1-0.4-0.1-0.6,0l-1.9,1
			c-0.3,0.2-0.8,0-0.9-0.3c-0.1-0.1-0.1-0.3-0.1-0.4l0.4-2.1c0-0.2,0-0.5-0.2-0.6l-1.5-1.5c-0.3-0.3-0.3-0.7,0-1
			c0.1-0.1,0.2-0.2,0.4-0.2l2.1-0.3c0.2,0,0.4-0.2,0.5-0.4l0.9-1.9c0.2-0.4,0.6-0.5,0.9-0.4C63.7,21.5,63.8,21.7,63.9,21.8z"/>
		<path class="st2" d="M60.8,30.9c-0.1,0-0.2,0-0.3,0c-0.3-0.1-0.5-0.3-0.6-0.5c-0.1-0.2-0.1-0.4-0.1-0.6l0.4-2.1
			c0-0.1,0-0.2-0.1-0.3l-1.5-1.5c-0.2-0.2-0.3-0.4-0.3-0.7c0-0.3,0.1-0.5,0.3-0.7c0.2-0.2,0.4-0.3,0.6-0.3l2.1-0.3
			c0.1,0,0.2-0.1,0.3-0.2l0.9-1.9c0.1-0.2,0.3-0.4,0.6-0.5c0.3-0.1,0.5-0.1,0.8,0c0.2,0.1,0.4,0.3,0.5,0.5l0.9,1.9
			c0.1,0.1,0.2,0.2,0.3,0.2l2.1,0.3c0.6,0.1,0.9,0.6,0.9,1.1c0,0.2-0.1,0.4-0.3,0.6l-1.5,1.5c-0.1,0.1-0.1,0.2-0.1,0.3l0.4,2.1
			c0.1,0.5-0.3,1.1-0.8,1.2c-0.2,0-0.4,0-0.6-0.1l-1.9-1c-0.1-0.1-0.2-0.1-0.4,0l-1.9,1C61.1,30.8,60.9,30.9,60.8,30.9z M63.3,21.7
			c0,0-0.1,0-0.1,0c-0.1,0-0.2,0.1-0.2,0.2L62,23.9c-0.1,0.3-0.4,0.5-0.8,0.6l-2.1,0.3c-0.1,0-0.2,0.1-0.2,0.1
			c-0.1,0.1-0.1,0.2-0.1,0.3c0,0.1,0,0.2,0.1,0.3l1.5,1.5c0.2,0.2,0.4,0.6,0.3,0.9l-0.4,2.1c0,0.1,0,0.2,0,0.2
			c0,0.1,0.1,0.2,0.2,0.2c0.1,0,0.2,0,0.3,0l1.9-1c0.3-0.2,0.6-0.2,0.9,0l1.9,1c0.1,0,0.2,0.1,0.2,0c0.2,0,0.3-0.2,0.3-0.4l-0.4-2.1
			c-0.1-0.3,0.1-0.7,0.3-0.9l1.5-1.5c0.1-0.1,0.1-0.1,0.1-0.2c0-0.2-0.1-0.4-0.3-0.4l-2.1-0.3c-0.3,0-0.6-0.3-0.8-0.6L63.6,22
			c0,0,0,0,0,0c0-0.1-0.1-0.2-0.2-0.2C63.4,21.7,63.3,21.7,63.3,21.7z"/>
	</g>
	<g>
		<path class="st0" d="M72.6,25.5l0.5,1.1c0.1,0.1,0.2,0.2,0.3,0.2l1.2,0.2c0.2,0,0.4,0.2,0.3,0.5c0,0.1-0.1,0.2-0.1,0.2L74,28.5
			c-0.1,0.1-0.1,0.2-0.1,0.4l0.2,1.2c0,0.2-0.1,0.4-0.3,0.5c-0.1,0-0.2,0-0.3,0l-1.1-0.6c-0.1-0.1-0.3-0.1-0.4,0L71,30.5
			c-0.2,0.1-0.4,0-0.5-0.2c0-0.1-0.1-0.2,0-0.3l0.2-1.2c0-0.1,0-0.3-0.1-0.4l-0.9-0.8c-0.2-0.2-0.2-0.4,0-0.6
			c0.1-0.1,0.1-0.1,0.2-0.1l1.2-0.2c0.1,0,0.2-0.1,0.3-0.2l0.5-1.1c0.1-0.2,0.3-0.3,0.5-0.2C72.5,25.4,72.6,25.5,72.6,25.5z"/>
		<path class="st2" d="M70.8,30.9c-0.1,0-0.1,0-0.2,0c-0.2-0.1-0.3-0.2-0.4-0.4c-0.1-0.1-0.1-0.3-0.1-0.4l0.2-1.2c0,0,0-0.1,0-0.1
			l-0.9-0.8c-0.1-0.1-0.2-0.3-0.2-0.5c0-0.2,0.1-0.4,0.2-0.5c0.1-0.1,0.3-0.2,0.4-0.2l1.2-0.2c0,0,0.1,0,0.1,0l0.5-1.1
			c0.1-0.2,0.2-0.3,0.4-0.4c0.2-0.1,0.4,0,0.5,0.1c0.1,0.1,0.2,0.2,0.3,0.3c0,0,0,0,0,0l0.5,1.1c0,0,0,0,0.1,0l1.2,0.2
			c0.4,0.1,0.7,0.4,0.6,0.8c0,0.2-0.1,0.3-0.2,0.4l-0.9,0.8c0,0,0,0,0,0.1l0.2,1.2c0.1,0.4-0.2,0.8-0.6,0.8c-0.2,0-0.3,0-0.4-0.1
			l-1.1-0.6c0,0-0.1,0-0.1,0l-1.1,0.6C71.1,30.8,71,30.9,70.8,30.9z M72.3,25.6C72.3,25.6,72.3,25.7,72.3,25.6
			C72.2,25.7,72.2,25.7,72.3,25.6l-0.6,1.1c-0.1,0.2-0.3,0.4-0.5,0.4L70,27.3c0,0,0,0,0,0c0,0,0,0,0,0.1c0,0,0,0,0,0.1l0.9,0.8
			c0.2,0.2,0.2,0.4,0.2,0.6l-0.2,1.2c0,0,0,0,0,0c0,0,0,0,0,0c0,0,0,0,0.1,0l1.1-0.6c0.2-0.1,0.5-0.1,0.7,0l1.1,0.6c0,0,0,0,0.1,0
			c0,0,0.1-0.1,0.1-0.1l-0.2-1.2c0-0.2,0-0.5,0.2-0.6l0.9-0.8c0,0,0,0,0,0c0,0,0-0.1-0.1-0.1l-1.2-0.2c-0.2,0-0.4-0.2-0.5-0.4
			L72.3,25.6C72.3,25.7,72.3,25.7,72.3,25.6C72.3,25.7,72.3,25.6,72.3,25.6z"/>
	</g>
	<g>
		<path class="st0" d="M36.3,21.8l-0.9,1.9c-0.1,0.2-0.3,0.3-0.5,0.4l-2.1,0.3c-0.4,0.1-0.6,0.4-0.6,0.8c0,0.1,0.1,0.3,0.2,0.4
			l1.5,1.5c0.2,0.2,0.2,0.4,0.2,0.6l-0.4,2.1c-0.1,0.4,0.2,0.7,0.6,0.8c0.2,0,0.3,0,0.4-0.1l1.9-1c0.2-0.1,0.4-0.1,0.6,0l1.9,1
			c0.3,0.2,0.8,0,0.9-0.3c0.1-0.1,0.1-0.3,0.1-0.4l-0.4-2.1c0-0.2,0-0.5,0.2-0.6l1.5-1.5c0.3-0.3,0.3-0.7,0-1
			c-0.1-0.1-0.2-0.2-0.4-0.2L39,24.1c-0.2,0-0.4-0.2-0.5-0.4l-0.9-1.9c-0.2-0.3-0.6-0.5-0.9-0.3C36.5,21.6,36.3,21.7,36.3,21.8z"/>
		<path class="st2" d="M39.4,30.9c-0.2,0-0.3,0-0.5-0.1l-1.9-1c-0.1-0.1-0.2-0.1-0.4,0l-1.9,1c-0.2,0.1-0.4,0.1-0.6,0.1
			c-0.5-0.1-0.9-0.6-0.8-1.2l0.4-2.1c0-0.1,0-0.2-0.1-0.3l-1.5-1.5c-0.2-0.2-0.3-0.4-0.3-0.6c-0.1-0.6,0.3-1.1,0.9-1.1l2.1-0.3
			c0.1,0,0.2-0.1,0.3-0.2l0.9-1.9c0.1-0.2,0.3-0.4,0.5-0.5c0.5-0.2,1.1,0,1.4,0.5l0.9,1.9c0.1,0.1,0.2,0.2,0.3,0.2l2.1,0.3
			c0.2,0,0.4,0.1,0.6,0.3c0.2,0.2,0.3,0.4,0.3,0.7c0,0.3-0.1,0.5-0.3,0.7l-1.5,1.5c-0.1,0.1-0.1,0.2-0.1,0.3l0.4,2.1
			c0,0.2,0,0.4-0.1,0.6C40.1,30.7,39.8,30.9,39.4,30.9z M36.9,29.1c0.2,0,0.3,0,0.5,0.1l1.9,1c0.2,0.1,0.4,0,0.5-0.2
			c0-0.1,0.1-0.2,0-0.2l-0.4-2.1c-0.1-0.3,0.1-0.7,0.3-0.9l1.5-1.5c0.1-0.1,0.1-0.2,0.1-0.3c0-0.1,0-0.2-0.1-0.3
			c-0.1-0.1-0.1-0.1-0.2-0.1l-2.1-0.3c-0.3,0-0.6-0.3-0.8-0.6L37.2,22c-0.1-0.2-0.3-0.3-0.5-0.2c-0.1,0-0.1,0.1-0.2,0.2c0,0,0,0,0,0
			l-0.9,1.9c-0.1,0.3-0.4,0.5-0.8,0.6l-2.1,0.3c-0.2,0-0.4,0.2-0.3,0.4c0,0.1,0.1,0.2,0.1,0.2l1.5,1.5c0.2,0.2,0.4,0.6,0.3,0.9
			L34,29.8c0,0.2,0.1,0.4,0.3,0.4c0.1,0,0.2,0,0.2,0l1.9-1C36.6,29.1,36.7,29.1,36.9,29.1z M36.3,21.8L36.3,21.8L36.3,21.8z"/>
	</g>
	<g>
		<path class="st0" d="M27.5,25.5L27,26.6c-0.1,0.1-0.2,0.2-0.3,0.2L25.5,27c-0.2,0-0.4,0.2-0.3,0.5c0,0.1,0.1,0.2,0.1,0.2l0.9,0.8
			c0.1,0.1,0.1,0.2,0.1,0.4l-0.2,1.2c0,0.2,0.1,0.4,0.3,0.5c0.1,0,0.2,0,0.3,0l1.1-0.6c0.1-0.1,0.3-0.1,0.4,0l1.1,0.6
			c0.2,0.1,0.4,0,0.5-0.2c0-0.1,0.1-0.2,0-0.3l-0.2-1.2c0-0.1,0-0.3,0.1-0.4l0.9-0.8c0.2-0.2,0.2-0.4,0-0.6
			c-0.1-0.1-0.1-0.1-0.2-0.1l-1.2-0.2c-0.1,0-0.2-0.1-0.3-0.2l-0.5-1.1c-0.1-0.2-0.3-0.3-0.5-0.2C27.6,25.4,27.6,25.5,27.5,25.5z"/>
		<path class="st2" d="M29.3,30.9c-0.1,0-0.2,0-0.3-0.1l-1.1-0.6c0,0-0.1,0-0.1,0l-1.1,0.6c-0.1,0.1-0.3,0.1-0.4,0.1
			c-0.2,0-0.4-0.1-0.5-0.3c-0.1-0.2-0.2-0.3-0.1-0.5l0.2-1.2c0,0,0-0.1,0-0.1l-0.9-0.8c-0.1-0.1-0.2-0.3-0.2-0.4
			c-0.1-0.4,0.2-0.8,0.6-0.8l1.2-0.2c0,0,0.1,0,0.1,0l0.5-1.1c0,0,0,0,0,0c0.1-0.1,0.2-0.2,0.3-0.3c0.2-0.1,0.4-0.1,0.5-0.1
			c0.2,0.1,0.3,0.2,0.4,0.3l0.5,1.1c0,0,0,0,0.1,0l1.2,0.2c0.2,0,0.3,0.1,0.4,0.2c0.1,0.1,0.2,0.3,0.2,0.5c0,0.2-0.1,0.4-0.2,0.5
			l-0.9,0.8c0,0,0,0,0,0.1L30,30c0,0.2,0,0.3-0.1,0.5c-0.1,0.2-0.2,0.3-0.4,0.4C29.5,30.8,29.4,30.9,29.3,30.9z M27.9,29.6
			c0.1,0,0.2,0,0.3,0.1l1.1,0.6c0,0,0,0,0.1,0c0,0,0,0,0,0c0,0,0,0,0-0.1l-0.2-1.2c0-0.2,0-0.5,0.2-0.6l0.9-0.8c0,0,0,0,0-0.1
			c0,0,0,0,0-0.1c0,0,0,0,0,0L29,27.1c-0.2,0-0.4-0.2-0.5-0.4L28,25.7c0,0,0,0,0,0c0,0,0,0-0.1,0c0,0,0,0,0,0l-0.5,1.1
			c-0.1,0.2-0.3,0.4-0.5,0.4l-1.2,0.2c0,0-0.1,0-0.1,0.1c0,0,0,0,0,0l0.9,0.8c0.2,0.2,0.2,0.4,0.2,0.6l-0.2,1.2c0,0,0,0,0,0.1
			c0,0,0,0,0.1,0c0,0,0,0,0.1,0l1.1-0.6C27.7,29.6,27.8,29.6,27.9,29.6z"/>
	</g>
	<g>
		<path class="st3" d="M12.2,28.9c0.2,0.2,0.5,0.2,0.7,0c1.2-1.2,3.2-1.2,4.4,0c0.2,0.2,0.5,0.2,0.7,0c0.2-0.2,0.2-0.5,0-0.7
			c-1.2-1.2-1.2-3.2,0-4.4c0.2-0.2,0.2-0.5,0-0.7c-0.2-0.2-0.5-0.2-0.7,0c-1.2,1.2-3.2,1.2-4.4,0c-0.2-0.2-0.5-0.2-0.7,0
			c-0.2,0.2-0.2,0.5,0,0.7c0,0,0,0,0,0c1.2,1.2,1.2,3.2,0,4.4C12,28.4,12,28.7,12.2,28.9z"/>
	</g>
	<g>
		<path class="st3" d="M35.4,77.4c0.2,0.2,0.5,0.2,0.7,0c1.3-1.3,3.2-1.4,4.4-0.2c0.2,0.2,0.6,0.2,0.8-0.1c0.2-0.2,0.2-0.5,0-0.7
			c-1.2-1.2-1.1-3.2,0.2-4.4c0.2-0.2,0.2-0.5,0.1-0.7c-0.2-0.2-0.5-0.2-0.7-0.1c0,0,0,0-0.1,0.1c-1.3,1.3-3.2,1.4-4.4,0.2
			c-0.2-0.2-0.6-0.2-0.8,0.1c-0.2,0.2-0.2,0.5,0,0.7c1.2,1.2,1.1,3.2-0.2,4.4C35.2,76.8,35.2,77.2,35.4,77.4z"/>
	</g>
</g>
</svg>
