<?xml version="1.0" encoding="utf-8"?>
<!-- Generator: Adobe Illustrator 24.0.1, SVG Export Plug-In . SVG Version: 6.00 Build 0)  -->
<svg version="1.1" id="Layer_1" xmlns="http://www.w3.org/2000/svg" xmlns:xlink="http://www.w3.org/1999/xlink" x="0px" y="0px"
	 viewBox="0 0 100 100" style="enable-background:new 0 0 100 100;" xml:space="preserve">
<style type="text/css">
	.st0{fill:#FFFFFF;}
	.st1{fill:#E2E2E2;}
	.st2{fill:#361260;}
	.st3{fill:#03B5D0;}
	.st4{fill:#0074BD;}
	.st5{clip-path:url(#SVGID_2_);}
	.st6{opacity:0.2;enable-background:new    ;}
	.st7{clip-path:url(#SVGID_4_);}
	.st8{clip-path:url(#SVGID_6_);}
	.st9{clip-path:url(#SVGID_8_);}
	.st10{fill:#FFAE0B;}
</style>
<g>
	<g>
		<path class="st0" d="M68.8,40.4L68.8,40.4c-2.8,0-5.1-2.3-5.1-5.1V29c0-2.8,2.3-5.1,5.1-5.1h0c2.8,0,5.1,2.3,5.1,5.1v6.3
			C73.9,38.1,71.6,40.4,68.8,40.4z"/>
		<path class="st2" d="M68.8,40.7L68.8,40.7c-3,0-5.4-2.4-5.4-5.4V29c0-3,2.4-5.4,5.4-5.4c3,0,5.4,2.4,5.4,5.4v6.3
			C74.2,38.3,71.8,40.7,68.8,40.7z M68.8,24.2c-2.6,0-4.8,2.1-4.8,4.8v6.3c0,2.6,2.1,4.8,4.8,4.8h0c2.6,0,4.8-2.1,4.8-4.8V29
			C73.6,26.3,71.5,24.2,68.8,24.2z"/>
	</g>
	<g>
		<path class="st2" d="M68.8,37.8c-0.1,0-0.2-0.1-0.3-0.2c-0.1-0.2,0-0.3,0.1-0.4l2.8-1.6c0.2-0.1,0.3,0,0.4,0.1
			c0.1,0.2,0,0.3-0.1,0.4L69,37.8C68.9,37.8,68.9,37.8,68.8,37.8z"/>
	</g>
	<g>
		<path class="st2" d="M68.8,34.9c-0.1,0-0.2-0.1-0.3-0.1l-2.6-4c-0.1-0.1-0.1-0.3,0.1-0.4c0.1-0.1,0.3-0.1,0.4,0.1l2.6,4
			c0.1,0.1,0.1,0.3-0.1,0.4C68.9,34.9,68.9,34.9,68.8,34.9z"/>
	</g>
	<g>
		<path class="st2" d="M68.8,30.9c-0.1,0-0.1,0-0.2-0.1c-0.1-0.1-0.2-0.3,0-0.4l2-2.5c0.1-0.1,0.3-0.2,0.4,0c0.1,0.1,0.2,0.3,0,0.4
			l-2,2.5C69,30.9,68.9,30.9,68.8,30.9z"/>
	</g>
	<g>
		<path class="st2" d="M68.8,51.4c-0.2,0-0.3-0.1-0.3-0.3V26.7c0-0.2,0.1-0.3,0.3-0.3c0.2,0,0.3,0.1,0.3,0.3V51
			C69.1,51.2,69,51.4,68.8,51.4z"/>
	</g>
	<g>
		<path class="st0" d="M21.3,21.3L21.3,21.3c4.2,0,7.6,3.4,7.6,7.6v9.5c0,4.2-3.4,7.6-7.6,7.6h0c-4.2,0-7.6-3.4-7.6-7.6v-9.5
			C13.7,24.7,17.1,21.3,21.3,21.3z"/>
		<path class="st2" d="M21.3,46.3c-4.4,0-7.9-3.6-7.9-7.9v-9.5c0-4.4,3.6-7.9,7.9-7.9h0c4.4,0,7.9,3.6,7.9,7.9v9.5
			C29.3,42.7,25.7,46.3,21.3,46.3z M21.3,21.6c-4,0-7.3,3.3-7.3,7.3v9.5c0,4,3.3,7.3,7.3,7.3c4,0,7.3-3.3,7.3-7.3v-9.5
			C28.6,24.9,25.4,21.6,21.3,21.6L21.3,21.6z"/>
	</g>
	<g>
		<path class="st2" d="M21.3,41.9c-0.1,0-0.1,0-0.2,0l-4.1-2.4c-0.2-0.1-0.2-0.3-0.1-0.4c0.1-0.2,0.3-0.2,0.4-0.1l4.1,2.4
			c0.2,0.1,0.2,0.3,0.1,0.4C21.5,41.9,21.4,41.9,21.3,41.9z"/>
	</g>
	<g>
		<path class="st2" d="M21.3,37.6c-0.1,0-0.1,0-0.2-0.1c-0.1-0.1-0.2-0.3-0.1-0.4l3.9-6c0.1-0.1,0.3-0.2,0.4-0.1
			c0.1,0.1,0.2,0.3,0.1,0.4l-3.9,6C21.5,37.6,21.4,37.6,21.3,37.6z"/>
	</g>
	<g>
		<path class="st2" d="M21.3,31.6c-0.1,0-0.2,0-0.2-0.1l-3-3.7c-0.1-0.1-0.1-0.3,0-0.4c0.1-0.1,0.3-0.1,0.4,0l3,3.7
			c0.1,0.1,0.1,0.3,0,0.4C21.5,31.6,21.4,31.6,21.3,31.6z"/>
	</g>
	<g>
		<path class="st2" d="M21.3,62.1c-0.2,0-0.3-0.1-0.3-0.3V25.5c0-0.2,0.1-0.3,0.3-0.3s0.3,0.1,0.3,0.3v36.3
			C21.7,62,21.5,62.1,21.3,62.1z"/>
	</g>
	<g>
		<ellipse class="st1" cx="52.2" cy="76.4" rx="47" ry="2.6"/>
	</g>
	<g>
		<path class="st2" d="M33.3,56c0-1.8,2.1-4.6,2.1-4.6s0.5,0,1.2,0c2.1,0.1,4.6,2.2,4.5,4.8c-0.1,2.6-2.6,4.7-4.7,4.6h-1.2
			C33.9,60.1,33.3,57.9,33.3,56z"/>
		<path class="st2" d="M36.4,61.2c0,0-0.1,0-0.1,0l-1.2,0c-0.1,0-0.1,0-0.2-0.1c-1.4-0.9-2.1-3.3-2-5.1c0-1.9,2.1-4.7,2.1-4.8
			c0.1-0.1,0.1-0.1,0.2-0.1c0,0,0.5,0,1.2,0c2.3,0.1,4.9,2.3,4.9,5.2c0,1.3-0.6,2.5-1.6,3.5C38.8,60.7,37.6,61.2,36.4,61.2z
			 M35.3,60.6h1.1c1,0,2.1-0.5,3-1.3c0.9-0.8,1.4-1.9,1.4-3c0-2.4-2.3-4.5-4.2-4.5c-0.4,0-0.8,0-1,0c-0.4,0.6-1.9,2.8-1.9,4.3
			c0,0,0,0,0,0C33.6,57.7,34.1,59.8,35.3,60.6z M33.3,56L33.3,56L33.3,56z"/>
	</g>
	<g>
		<path class="st2" d="M31.4,56c0.1-2.6,1.8-4.7,4-4.6c2.2,0.1,3.8,2.2,3.8,4.8c-0.1,2.6-1.8,4.7-4,4.6C33,60.8,31.3,58.6,31.4,56z"
			/>
		<path class="st2" d="M35.3,61.2c0,0-0.1,0-0.1,0c-2.3-0.1-4.2-2.4-4.1-5.2l0,0c0-1.5,0.6-2.9,1.6-3.8c0.8-0.7,1.7-1.1,2.7-1.1
			c2.3,0.1,4.2,2.4,4.1,5.2c0,1.5-0.6,2.9-1.6,3.8C37.2,60.8,36.2,61.2,35.3,61.2z M31.4,56l0.3,0c0,2.4,1.5,4.5,3.5,4.5
			c0.8,0,1.6-0.3,2.3-0.9c0.9-0.8,1.4-2,1.4-3.4c0-2.4-1.5-4.5-3.5-4.5c-0.8,0-1.6,0.3-2.3,0.9c-0.9,0.8-1.4,2-1.4,3.4L31.4,56z"/>
	</g>
	<g>
		<path class="st0" d="M35.2,59.2c1.4,0,2.6-1.3,2.6-3s-1.1-3.1-2.5-3.2c-1.4,0-2.6,1.3-2.6,3C32.7,57.8,33.8,59.2,35.2,59.2z"/>
	</g>
	<g>
		<path class="st1" d="M35.3,57.6c0.7,0,1.2-0.6,1.2-1.4c0-0.8-0.5-1.5-1.2-1.5s-1.2,0.6-1.2,1.4C34.1,56.9,34.6,57.6,35.3,57.6z"/>
	</g>
	<g>
		<path class="st2" d="M44.2,56c0-1.8,2.1-4.6,2.1-4.6s0.5,0,1.2,0c2.1,0.1,3.8,2.2,3.8,4.8c-0.1,2.6-1.8,4.7-4,4.6h-1.2
			C44.8,60.1,44.1,57.9,44.2,56z"/>
		<path class="st2" d="M47.3,61.2c0,0-0.1,0-0.1,0l-1.2,0c-0.1,0-0.1,0-0.2-0.1c-1.4-0.9-2.1-3.3-2-5.1l0,0c0-1.9,2.1-4.7,2.1-4.8
			c0.1-0.1,0.1-0.1,0.2-0.1c0,0,0.5,0,1.2,0c2.3,0.1,4.2,2.4,4.1,5.2c0,1.5-0.6,2.9-1.6,3.8C49.2,60.8,48.3,61.2,47.3,61.2z
			 M46.2,60.6h1.1c0.8,0,1.6-0.3,2.3-0.9c0.9-0.8,1.4-2,1.4-3.4c0-2.4-1.5-4.5-3.5-4.5c-0.4,0-0.8,0-1,0c-0.4,0.6-1.9,2.8-1.9,4.3
			c0,0,0,0,0,0C44.5,57.7,45,59.8,46.2,60.6z M44.2,56L44.2,56L44.2,56z"/>
	</g>
	<g>
		<path class="st2" d="M42.3,56c0.1-2.6,1.8-4.7,4-4.6c2.2,0.1,3.8,2.2,3.8,4.8c-0.1,2.6-1.8,4.7-4,4.6C43.9,60.8,42.2,58.6,42.3,56
			z"/>
		<path class="st2" d="M46.2,61.2c0,0-0.1,0-0.1,0c-2.3-0.1-4.2-2.4-4.1-5.2l0,0c0-1.5,0.6-2.9,1.6-3.8c0.8-0.7,1.7-1.1,2.7-1.1
			c2.3,0.1,4.2,2.4,4.1,5.2c0,1.5-0.6,2.9-1.6,3.8C48,60.8,47.1,61.2,46.2,61.2z M42.3,56l0.3,0c0,2.4,1.5,4.5,3.5,4.5
			c0.8,0,1.6-0.3,2.3-0.9c0.9-0.8,1.4-2,1.4-3.4c0-2.4-1.5-4.5-3.5-4.5c-0.8,0-1.6,0.3-2.3,0.9c-0.9,0.8-1.4,2-1.4,3.4L42.3,56z"/>
	</g>
	<g>
		<path class="st2" d="M46.1,59.2c1.4,0,2.6-1.3,2.6-3c0-1.7-1.1-3.1-2.5-3.2c-1.4,0-2.6,1.3-2.6,3C43.6,57.8,44.7,59.2,46.1,59.2z"
			/>
		<path class="st2" d="M46.2,59.6C46.1,59.6,46.1,59.6,46.2,59.6c-1.6,0-2.9-1.6-2.9-3.5c0-1,0.4-1.9,1.1-2.6
			c0.5-0.5,1.2-0.8,1.9-0.8c1.6,0,2.8,1.6,2.8,3.5c0,1-0.4,1.9-1.1,2.6C47.4,59.3,46.8,59.6,46.2,59.6z M46.2,53.4
			c-0.5,0-1,0.2-1.4,0.6c-0.5,0.5-0.9,1.3-0.9,2.1c0,1.5,0.9,2.8,2.2,2.8l0,0c0.5,0,1-0.2,1.4-0.6c0.5-0.5,0.9-1.3,0.9-2.1
			C48.4,54.7,47.4,53.4,46.2,53.4C46.2,53.4,46.2,53.4,46.2,53.4z"/>
	</g>
	<g>
		<path class="st2" d="M46.1,57.6c0.7,0,1.2-0.6,1.2-1.4c0-0.8-0.5-1.5-1.2-1.5s-1.2,0.6-1.2,1.4C44.9,56.9,45.5,57.6,46.1,57.6z"/>
		<path class="st2" d="M46.2,57.9C46.1,57.9,46.1,57.9,46.2,57.9L46.2,57.9c-0.9,0-1.5-0.8-1.5-1.8c0-0.5,0.2-1,0.6-1.3
			c0.3-0.3,0.6-0.4,1-0.4c0.8,0,1.5,0.8,1.5,1.8c0,0.5-0.2,1-0.6,1.3C46.8,57.8,46.5,57.9,46.2,57.9z M46.1,57.3
			c0.2,0,0.4-0.1,0.5-0.2c0.2-0.2,0.4-0.5,0.4-0.9c0-0.6-0.4-1.2-0.9-1.2c-0.2,0-0.4,0.1-0.5,0.2c-0.2,0.2-0.4,0.5-0.4,0.9
			C45.2,56.8,45.7,57.3,46.1,57.3L46.1,57.3z"/>
	</g>
	<g>
		<path class="st2" d="M20.9,56c0-1.8,2.1-4.6,2.1-4.6s0.5,0,1.2,0c2.1,0.1,3.8,2.2,3.8,4.8c-0.1,2.6-1.8,4.7-4,4.6h-1.2
			C21.5,60.1,20.9,57.9,20.9,56z"/>
		<path class="st2" d="M24.1,61.2c0,0-0.1,0-0.1,0l-1.2,0c-0.1,0-0.1,0-0.2-0.1c-1.4-0.9-2.1-3.3-2-5.1c0-1.9,2.1-4.7,2.1-4.8
			c0.1-0.1,0.1-0.1,0.2-0.1c0,0,0.5,0,1.2,0c2.3,0.1,4.2,2.4,4.1,5.2c0,1.5-0.6,2.9-1.6,3.8C25.9,60.8,25,61.2,24.1,61.2z
			 M22.9,60.6H24c0.8,0,1.6-0.3,2.3-0.9c0.9-0.8,1.4-2,1.4-3.4c0-2.4-1.5-4.5-3.5-4.5c-0.4,0-0.8,0-1,0c-0.4,0.6-1.9,2.8-1.9,4.3
			c0,0,0,0,0,0C21.2,57.7,21.8,59.8,22.9,60.6z M20.9,56L20.9,56L20.9,56z"/>
	</g>
	<g>
		<path class="st2" d="M19,56c0.1-2.6,1.8-4.7,4-4.6c2.2,0.1,3.8,2.2,3.8,4.8c-0.1,2.6-1.8,4.7-4,4.6C20.7,60.8,19,58.6,19,56z"/>
		<path class="st2" d="M22.9,61.2c0,0-0.1,0-0.1,0c-2.3-0.1-4.2-2.4-4.1-5.2l0,0c0-1.5,0.6-2.9,1.6-3.8c0.8-0.7,1.7-1.1,2.7-1.1
			c2.3,0.1,4.2,2.4,4.1,5.2c0,1.5-0.6,2.9-1.6,3.8C24.8,60.8,23.9,61.2,22.9,61.2z M19,56l0.3,0c0,2.4,1.5,4.5,3.5,4.5
			c0.8,0,1.6-0.3,2.3-0.9c0.9-0.8,1.4-2,1.4-3.4c0-2.4-1.5-4.5-3.5-4.5c-0.8,0-1.6,0.3-2.3,0.9c-0.9,0.8-1.4,2-1.4,3.4L19,56z"/>
	</g>
	<g>
		<path class="st2" d="M22.8,59.2c1.4,0,2.6-1.3,2.6-3s-1.1-3.1-2.5-3.2s-2.6,1.3-2.6,3C20.3,57.8,21.4,59.2,22.8,59.2z"/>
		<path class="st2" d="M22.9,59.6C22.9,59.6,22.9,59.6,22.9,59.6c-1.6,0-2.9-1.6-2.9-3.5c0-1,0.4-1.9,1.1-2.6
			c0.5-0.5,1.2-0.8,1.9-0.8c1.6,0,2.8,1.6,2.8,3.5c0,1-0.4,1.9-1.1,2.6C24.2,59.3,23.5,59.6,22.9,59.6z M22.9,53.4
			c-0.5,0-1,0.2-1.4,0.6c-0.5,0.5-0.9,1.3-0.9,2.1c0,1.5,0.9,2.8,2.2,2.8c0,0,0,0,0,0c0.5,0,1-0.2,1.4-0.6c0.5-0.5,0.9-1.3,0.9-2.1
			C25.2,54.7,24.2,53.4,22.9,53.4C22.9,53.4,22.9,53.4,22.9,53.4z"/>
	</g>
	<g>
		<path class="st2" d="M22.9,57.6c0.7,0,1.2-0.6,1.2-1.4c0-0.8-0.5-1.5-1.2-1.5s-1.2,0.6-1.2,1.4C21.7,56.9,22.2,57.6,22.9,57.6z"/>
		<path class="st2" d="M22.9,57.9C22.9,57.9,22.9,57.9,22.9,57.9L22.9,57.9c-0.9,0-1.5-0.8-1.5-1.8c0-0.5,0.2-1,0.6-1.3
			c0.3-0.3,0.6-0.4,1-0.4c0.8,0,1.5,0.8,1.5,1.8c0,0.5-0.2,1-0.6,1.3C23.6,57.8,23.3,57.9,22.9,57.9z M22.9,57.3
			c0.2,0,0.4-0.1,0.5-0.2c0.2-0.2,0.4-0.5,0.4-0.9c0-0.6-0.4-1.2-0.9-1.2c-0.2,0-0.4,0.1-0.5,0.2c-0.2,0.2-0.4,0.5-0.4,0.9
			C22,56.8,22.4,57.3,22.9,57.3L22.9,57.3z"/>
	</g>
	<g>
		<path class="st2" d="M10.7,56c0-1.8,2.1-4.6,2.1-4.6s0.5,0,1.2,0c2.1,0.1,3.8,2.2,3.8,4.8c-0.1,2.6-1.8,4.7-4,4.6h-1.2
			C11.3,60.1,10.6,57.9,10.7,56z"/>
		<path class="st2" d="M13.8,61.2c0,0-0.1,0-0.1,0l-1.1,0c-0.1,0-0.1,0-0.2-0.1c-1.4-0.9-2.1-3.3-2-5.1l0,0c0-1.9,2.1-4.7,2.1-4.8
			c0.1-0.1,0.1-0.1,0.2-0.1c0,0,0.5,0,1.2,0c2.3,0.1,4.2,2.4,4.1,5.2c0,1.5-0.6,2.9-1.6,3.8C15.7,60.8,14.8,61.2,13.8,61.2z
			 M12.7,60.6h1.1c0.8,0,1.6-0.3,2.3-0.9c0.9-0.8,1.4-2,1.4-3.4c0-2.4-1.5-4.5-3.5-4.5c-0.4,0-0.8,0-1,0C12.5,52.3,11,54.6,11,56
			c0,0,0,0,0,0C11,57.7,11.5,59.8,12.7,60.6z M10.7,56L10.7,56L10.7,56z"/>
	</g>
	<g>
		<path class="st2" d="M8.8,56c0.1-2.6,1.8-4.7,4-4.6c2.2,0.1,3.8,2.2,3.8,4.8c-0.1,2.6-1.8,4.7-4,4.6C10.4,60.8,8.7,58.6,8.8,56z"
			/>
		<path class="st2" d="M12.7,61.2c0,0-0.1,0-0.1,0c-2.3-0.1-4.2-2.4-4.1-5.2l0,0c0-1.5,0.6-2.9,1.6-3.8c0.8-0.7,1.7-1.1,2.7-1.1
			c2.3,0.1,4.2,2.4,4.1,5.2c0,1.5-0.6,2.9-1.6,3.8C14.5,60.8,13.6,61.2,12.7,61.2z M8.8,56l0.3,0c0,2.4,1.5,4.5,3.5,4.5
			c0.8,0,1.6-0.3,2.3-0.9c0.9-0.8,1.4-2,1.4-3.4c0-2.4-1.5-4.5-3.5-4.5c-0.8,0-1.6,0.3-2.3,0.9c-0.9,0.8-1.4,2-1.4,3.4L8.8,56z"/>
	</g>
	<g>
		<path class="st0" d="M12.6,59.2c1.4,0,2.6-1.3,2.6-3c0-1.7-1.1-3.1-2.5-3.2s-2.6,1.3-2.6,3C10.1,57.8,11.2,59.2,12.6,59.2z"/>
	</g>
	<g>
		<path class="st1" d="M12.6,57.6c0.7,0,1.2-0.6,1.2-1.4c0-0.8-0.5-1.5-1.2-1.5c-0.7,0-1.2,0.6-1.2,1.4C11.4,56.9,12,57.6,12.6,57.6
			z"/>
	</g>
	<g>
		<path class="st0" d="M55.5,49.5c-1.2-1.2-6.7-2.3-6.7-2.3l-4-3.1c-1.7-1.3-3.8-2-5.9-2H18.1c0,0-1.8,0.1-3.8,1.9s-4.1,3.1-4.8,3.2
			h0c-0.5,0.1-0.9,0.5-0.9,1.1V54c0.4-1.2,1.6-2.8,3.9-2.6c2.5,0.2,4.5,2.6,4.4,5.6c0,0.3,0,0.5-0.1,0.8h14.4c0-0.3-0.1-0.7-0.1-1.1
			c0.1-3,2.1-5.4,4.6-5.3c2.5,0.1,4.4,2.6,4.4,5.6c0,0.3,0,0.5-0.1,0.8h16.6C56.6,57.8,56.7,50.7,55.5,49.5z"/>
		<path class="st2" d="M31.1,58.1H16.7c-0.1,0-0.2,0-0.2-0.1c-0.1-0.1-0.1-0.2-0.1-0.3c0-0.2,0.1-0.5,0.1-0.7
			c0.1-2.8-1.7-5.1-4.1-5.3c-2.6-0.2-3.4,2-3.6,2.4c0,0.1-0.2,0.2-0.3,0.2c-0.2,0-0.3-0.2-0.3-0.3v-5.8c0-0.7,0.5-1.2,1.1-1.4
			c0,0,0,0,0.1,0h0c0.7-0.2,2.7-1.4,4.7-3.1c2.1-1.8,3.9-1.9,4-1.9c0,0,0,0,0,0h20.8c2.2,0,4.4,0.7,6.1,2.1l3.9,3
			c0.7,0.1,5.6,1.2,6.8,2.4c1.3,1.3,1.2,7.8,1.2,8.6c0,0.2-0.1,0.3-0.3,0.3H40c-0.1,0-0.2,0-0.2-0.1c-0.1-0.1-0.1-0.2-0.1-0.3
			c0-0.2,0.1-0.5,0.1-0.7c0.1-2.8-1.8-5.2-4.1-5.3c-1,0-1.9,0.4-2.7,1.1c-1,1-1.6,2.4-1.6,3.9c0,0.3,0,0.7,0.1,1
			c0,0.1,0,0.2-0.1,0.3C31.3,58.1,31.2,58.1,31.1,58.1z M17.1,57.5h13.7c0-0.2,0-0.5,0-0.7c0-1.7,0.7-3.3,1.8-4.4
			c0.9-0.8,2-1.3,3.1-1.2c2.7,0.1,4.8,2.7,4.7,5.9c0,0.2,0,0.3,0,0.5h15.9c0-2.8-0.2-7-1-7.8c0,0,0,0,0,0c-0.9-0.9-5.1-1.9-6.6-2.2
			c0,0-0.1,0-0.1-0.1l-4-3.1c-1.6-1.3-3.7-2-5.8-2H18.1c-0.1,0-1.8,0.2-3.6,1.8c-2,1.7-4.2,3.1-5,3.3c0,0,0,0-0.1,0h0
			c-0.3,0.1-0.6,0.4-0.6,0.7v4.5c0.7-1,1.9-1.7,3.6-1.6c2.7,0.2,4.7,2.8,4.7,5.9C17.1,57.2,17.1,57.3,17.1,57.5z"/>
	</g>
	<g>
		<path class="st3" d="M46.1,49.5c-0.4-0.2-2-0.3-2.9-0.4c-0.3,0-0.5,0.3-0.3,0.6c0.2,0.4,0.5,0.9,0.6,1.2c0.1,0.2,0.3,0.4,0.6,0.4
			l0,0h2.7c0.1,0,0.2-0.1,0.3-0.2l0.3-0.5c0.1-0.2,0-0.4-0.1-0.6C46.9,49.9,46.5,49.7,46.1,49.5z"/>
	</g>
	<g>
		<path class="st3" d="M34.6,47.2H15.2c0,0-1.2,0-0.8-1.9c0.1-0.6,2.8-2.6,3.3-2.6h14L34.6,47.2z"/>
	</g>
	<g>
		<defs>
			<path id="SVGID_7_" d="M34.6,47.2H15.2c0,0-1.2,0-0.8-1.9c0.1-0.6,2.8-2.6,3.3-2.6h14L34.6,47.2z"/>
		</defs>
		<clipPath id="SVGID_2_">
			<use xlink:href="#SVGID_7_"  style="overflow:visible;"/>
		</clipPath>
		<g class="st5">
			<g class="st6">
				<path class="st3" d="M34.6,47.2H15.2c0,0-1.2,0-0.8-1.9c0.1-0.6,2.8-2.6,3.3-2.6h13.9L34.6,47.2z"/>
			</g>
		</g>
	</g>
	<g>
		<path class="st3" d="M44.7,44.8l3.1,2.4H34.6l-2.9-4.4h6.9C40.8,42.8,43,43.5,44.7,44.8z"/>
	</g>
	<g>
		<path class="st2" d="M54.2,51.4v0.2c0,0.3-0.1,0.5-0.4,0.7l-0.5,0.4c-0.1,0.1-0.3,0.2-0.5,0.2H50c-0.1,0-0.2,0-0.3-0.1l-1.3-0.6
			c-0.3-0.1-0.5-0.4-0.5-0.8l0,0c0-0.5,0.4-0.9,0.9-0.9l0,0h4.6C53.8,50.5,54.2,50.9,54.2,51.4z"/>
		<path class="st2" d="M50,53.1c-0.2,0-0.3,0-0.5-0.1l-1.3-0.6c-0.4-0.2-0.7-0.6-0.7-1.1c0-0.6,0.5-1.2,1.2-1.2h4.6
			c0.6,0,1.2,0.5,1.2,1.2v0.2c0,0.4-0.2,0.7-0.5,1l-0.5,0.4c-0.2,0.1-0.4,0.2-0.7,0.2H50C50,53.1,50,53.1,50,53.1z M53.4,50.8h-4.6
			c-0.3,0-0.5,0.2-0.5,0.5c0,0.2,0.1,0.4,0.3,0.5l1.3,0.6c0.1,0,0.1,0,0.2,0c0,0,0,0,0,0h2.8c0.1,0,0.2,0,0.3-0.1l0.5-0.4
			c0.1-0.1,0.2-0.3,0.2-0.4v-0.2C53.9,51.1,53.7,50.8,53.4,50.8z"/>
	</g>
	<g>
		<path class="st2" d="M45.4,53.9h10.8l0.2-1.2c0.1,1.1,0.1,1.5,0.1,2.4l0,0.3l-0.3-0.7h-2l0.7,0.8h-7.2l0.4-0.8h-2.7l-0.7,0.6h-0.5
			v-2.9L45.4,53.9z"/>
		<path class="st2" d="M54.8,55.7h-7.2c-0.1,0-0.2-0.1-0.3-0.1c-0.1-0.1-0.1-0.2,0-0.3l0.2-0.3h-2.1l-0.7,0.5
			c-0.1,0-0.1,0.1-0.2,0.1h-0.5c-0.2,0-0.3-0.1-0.3-0.3v-2.9c0-0.1,0.1-0.3,0.2-0.3c0.1,0,0.3,0,0.4,0.1l1.2,1.5h10.4l0.1-0.9
			c0-0.2,0.2-0.3,0.3-0.3c0.2,0,0.3,0.1,0.3,0.3l0,0.3c0.1,0.8,0.1,1.3,0.1,2.1c0,0,0,0,0,0.1l0,0.3c0,0.1-0.1,0.2-0.3,0.3
			c-0.1,0-0.3-0.1-0.3-0.2l-0.2-0.5h-1.1l0.2,0.3c0.1,0.1,0.1,0.2,0.1,0.3C55.1,55.6,55,55.7,54.8,55.7z M48.2,55.1h6l-0.2-0.3
			c-0.1-0.1-0.1-0.2-0.1-0.3c0.1-0.1,0.2-0.2,0.3-0.2h2c0,0,0-0.1,0-0.1H45.4c-0.1,0-0.2,0-0.2-0.1l-0.7-0.9v1.7h0.1l0.7-0.5
			c0.1,0,0.1-0.1,0.2-0.1H48c0.1,0,0.2,0.1,0.3,0.1c0.1,0.1,0.1,0.2,0,0.3L48.2,55.1z"/>
	</g>
	<g>
		<path class="st3" d="M9.2,47.9c0.3,0,0.6,0.1,0.7,0.4c0.1,0.2,0.1,0.5,0,0.7l-0.7,1.4c0,0.1-0.2,0.1-0.3,0.1
			c-0.1,0-0.1-0.1-0.1-0.2v-2l0,0C8.8,48,9,47.9,9.2,47.9L9.2,47.9z"/>
	</g>
	<g>
		<path class="st0" d="M31.8,48.2h-2c-0.5,0-0.9-0.4-0.9-0.9l0,0l0,0c0-0.5,0.4-0.9,0.8-0.9l2-0.1c0.5,0,1,0.4,1,0.9
			c0,0,0,0.1,0,0.1v0C32.7,47.8,32.3,48.2,31.8,48.2z"/>
		<path class="st2" d="M31.8,48.5C31.8,48.5,31.8,48.5,31.8,48.5h-2c-0.7,0-1.2-0.5-1.2-1.2c0-0.6,0.5-1.2,1.1-1.2l2-0.1
			c0.7-0.1,1.3,0.5,1.4,1.2c0,0.1,0,0.1,0,0.2v0c0,0,0,0,0,0C33,48,32.5,48.5,31.8,48.5z M31.8,46.5C31.8,46.5,31.8,46.5,31.8,46.5
			l-2,0.1c-0.3,0-0.5,0.3-0.5,0.6c0,0.3,0.3,0.6,0.6,0.6h2c0,0,0,0,0,0c0.3,0,0.6-0.3,0.6-0.6v0c0,0,0,0,0,0c0,0,0-0.1,0-0.1
			c0-0.2-0.1-0.3-0.2-0.4C32.1,46.6,31.9,46.5,31.8,46.5z"/>
	</g>
	<g>
		<path class="st2" d="M18.1,55.3c-0.1,0-0.2-0.1-0.3-0.2c-0.8-2-2-3.5-3.6-4.5c-0.1-0.1-0.2-0.2-0.2-0.3v-3c0-0.2,0.1-0.3,0.3-0.3
			c0.2,0,0.3,0.1,0.3,0.3v2.8c1.6,1,2.9,2.6,3.7,4.7c0.1,0.2,0,0.3-0.2,0.4C18.2,55.3,18.1,55.3,18.1,55.3z"/>
	</g>
	<g>
		<path class="st2" d="M42.9,53.9c-0.2,0-0.3-0.1-0.3-0.3c-0.2-2.8-0.6-3.7-0.9-3.9c-0.9-0.9-5.1-1.9-6.6-2.2c0,0-0.1,0-0.1-0.1
			l-4-3.1c-1.6-1.3-3.7-2-5.8-2c-0.2,0-0.3-0.1-0.3-0.3c0-0.2,0.1-0.3,0.3-0.3c2.2,0,4.4,0.7,6.1,2.1l3.9,3c0.7,0.1,5.6,1.2,6.8,2.4
			c0.5,0.5,0.9,1.9,1,4.3C43.2,53.7,43.1,53.9,42.9,53.9C42.9,53.9,42.9,53.9,42.9,53.9z"/>
	</g>
	<g>
		<path class="st1" d="M40,57c0,0.3,0,0.5-0.1,0.8h16.6c0,0,0-0.5,0-1.3H40C40,56.7,40,56.8,40,57z"/>
	</g>
	<g>
		<path class="st1" d="M16.8,56.5c0,0.2,0,0.4,0,0.6c0,0.3,0,0.5-0.1,0.8h14.4c0-0.3-0.1-0.7-0.1-1.1c0-0.1,0-0.2,0-0.3L16.8,56.5z"
			/>
	</g>
	<g>
		<path class="st3" d="M55.7,49.7c-0.3,0.2-0.6,0.3-0.8,0.4c-0.2,0.1-0.2,0.4-0.1,0.6l0.3,0.5c0.1,0.1,0.2,0.2,0.3,0.2h0.9
			C56.1,50.7,55.9,50.1,55.7,49.7z"/>
	</g>
	<g>
		<path class="st2" d="M31.1,58.1H16.7c-0.1,0-0.2,0-0.2-0.1c-0.1-0.1-0.1-0.2-0.1-0.3c0-0.2,0.1-0.5,0.1-0.7
			c0.1-2.8-1.7-5.1-4.1-5.3c-2.6-0.2-3.4,2-3.6,2.4c0,0.1-0.2,0.2-0.3,0.2c-0.2,0-0.3-0.2-0.3-0.3v-5.8c0-0.7,0.5-1.2,1.1-1.4
			c0,0,0,0,0.1,0h0c0.7-0.2,2.7-1.4,4.7-3.1c2.1-1.8,3.9-1.9,4-1.9c0,0,0,0,0,0h20.8c2.2,0,4.4,0.7,6.1,2.1l3.9,3
			c0.7,0.1,5.6,1.2,6.8,2.4c1.3,1.3,1.2,7.8,1.2,8.6c0,0.2-0.1,0.3-0.3,0.3H40c-0.1,0-0.2,0-0.2-0.1c-0.1-0.1-0.1-0.2-0.1-0.3
			c0-0.2,0.1-0.5,0.1-0.7c0.1-2.8-1.8-5.2-4.1-5.3c-1,0-1.9,0.4-2.7,1.1c-1,1-1.6,2.4-1.6,3.9c0,0.3,0,0.7,0.1,1
			c0,0.1,0,0.2-0.1,0.3C31.3,58.1,31.2,58.1,31.1,58.1z M17.1,57.5h13.7c0-0.2,0-0.5,0-0.7c0-1.7,0.7-3.3,1.8-4.4
			c0.9-0.8,2-1.3,3.1-1.2c2.7,0.1,4.8,2.7,4.7,5.9c0,0.2,0,0.3,0,0.5h15.9c0-2.8-0.2-7-1-7.8c0,0,0,0,0,0c-0.9-0.9-5.1-1.9-6.6-2.2
			c0,0-0.1,0-0.1-0.1l-4-3.1c-1.6-1.3-3.7-2-5.8-2H18.1c-0.1,0-1.8,0.2-3.6,1.8c-2,1.7-4.2,3.1-5,3.3c0,0,0,0-0.1,0h0
			c-0.3,0.1-0.6,0.4-0.6,0.7v4.5c0.7-1,1.9-1.7,3.6-1.6c2.7,0.2,4.7,2.8,4.7,5.9C17.1,57.2,17.1,57.3,17.1,57.5z"/>
	</g>
	<g>
		<path class="st2" d="M23.4,57.9c-0.2,0-0.3-0.1-0.3-0.3V47.2c0,0,0,0,0-0.1l1.2-5.1c0-0.2,0.2-0.3,0.4-0.2c0.2,0,0.3,0.2,0.2,0.4
			l-1.2,5.1v10.4C23.8,57.8,23.6,57.9,23.4,57.9z"/>
	</g>
	<g>
		<path class="st3" d="M92,36.7c-0.2,0.2-0.2,0.5,0,0.7c1.2,1.2,1.2,3.2,0,4.4c-0.2,0.2-0.2,0.5,0,0.7c0.2,0.2,0.5,0.2,0.7,0
			c0,0,0,0,0,0c1.2-1.2,3.2-1.2,4.4,0c0.2,0.2,0.5,0.2,0.7,0c0.2-0.2,0.2-0.5,0-0.7c0,0,0,0,0,0c-1.2-1.2-1.2-3.2,0-4.4
			c0.2-0.2,0.2-0.5,0-0.7c-0.2-0.2-0.5-0.2-0.7,0c0,0,0,0,0,0c-1.2,1.2-3.2,1.2-4.4,0C92.5,36.5,92.2,36.5,92,36.7z"/>
	</g>
	<g>
		<path class="st3" d="M1,53.2c-0.2,0.2-0.2,0.5,0,0.7c1.2,1.2,1.2,3.2,0,4.4c-0.2,0.2-0.2,0.5,0,0.7s0.5,0.2,0.7,0c0,0,0,0,0,0
			c1.2-1.2,3.2-1.2,4.4,0c0.2,0.2,0.5,0.2,0.7,0c0.2-0.2,0.2-0.5,0-0.7c0,0,0,0,0,0c-1.2-1.2-1.2-3.2,0-4.4c0.2-0.2,0.2-0.5,0-0.7
			s-0.5-0.2-0.7,0c0,0,0,0,0,0c-1.2,1.2-3.2,1.2-4.4,0C1.6,53,1.2,53,1,53.2z"/>
	</g>
	<g>
		<path class="st3" d="M52.2,43.8c0.3,0,0.5-0.2,0.5-0.5c0,0,0,0,0,0c0-1.7,1.4-3.1,3.1-3.1c0.3,0,0.5-0.3,0.5-0.5
			c0-0.3-0.2-0.5-0.5-0.5c-1.7,0-3.1-1.4-3.1-3.1c0-0.3-0.3-0.5-0.5-0.5c-0.3,0-0.5,0.2-0.5,0.5c0,1.7-1.4,3.1-3.1,3.1
			c-0.3,0-0.5,0.2-0.5,0.5c0,0.3,0.2,0.5,0.5,0.5c0,0,0,0,0.1,0c1.7,0,3.1,1.4,3.1,3.1C51.7,43.5,52,43.8,52.2,43.8z"/>
	</g>
	<g>
		<path class="st1" d="M59.7,43.2h11.7c0.9,0,1.6,0.7,1.6,1.6v16.5c0,0.9-0.7,1.6-1.6,1.6H59.7c-0.9,0-1.6-0.7-1.6-1.6V44.8
			C58.1,43.9,58.8,43.2,59.7,43.2z"/>
	</g>
	<g>
		<path class="st2" d="M71.4,63.1H59.7c-1,0-1.9-0.8-1.9-1.9V44.8c0-1,0.8-1.9,1.9-1.9h11.7c1,0,1.9,0.8,1.9,1.9v16.5
			C73.3,62.3,72.4,63.1,71.4,63.1z M59.7,43.5c-0.7,0-1.3,0.6-1.3,1.3v16.5c0,0.7,0.6,1.3,1.3,1.3h11.7c0.7,0,1.3-0.6,1.3-1.3V44.8
			c0-0.7-0.6-1.3-1.3-1.3H59.7z"/>
	</g>
	<g>
		<path class="st0" d="M61,40h16.1c0,0,13,0.4,13.3,5.3H61V40z"/>
	</g>
	<g>
		<path class="st3" d="M61,40h12.2c0,0,13,0.4,13.3,5.3H61V40z"/>
	</g>
	<g>
		<path class="st2" d="M90.4,45.6H61c-0.2,0-0.3-0.1-0.3-0.3V40c0-0.2,0.1-0.3,0.3-0.3h16.1c0.5,0,13.3,0.4,13.6,5.6
			c0,0.1,0,0.2-0.1,0.2C90.5,45.6,90.5,45.6,90.4,45.6z M61.3,45H90c-0.9-4.3-12.8-4.6-12.9-4.7l-15.8,0V45z"/>
	</g>
	<g>
		<path class="st3" d="M61,48.1V40h0.8c0,0,13.3,0.4,13.3,5.5c0,3.1-5.1,3.7-5.1,3.7L61,48.1z"/>
	</g>
	<g>
		<path class="st2" d="M70,49.5C70,49.5,70,49.5,70,49.5L61,48.4c-0.2,0-0.3-0.2-0.3-0.3V40c0-0.2,0.1-0.3,0.3-0.3h0.8
			c0.6,0,13.6,0.5,13.6,5.8C75.4,48.8,70.3,49.4,70,49.5C70.1,49.5,70.1,49.5,70,49.5z M61.3,47.8l8.7,1c0.4-0.1,4.8-0.7,4.8-3.3
			c0-4.7-12.9-5.2-13-5.2l-0.5,0V47.8z"/>
	</g>
	<g>
		<path class="st2" d="M85.6,65.7c2.4,0.1,4.4,2.5,4.3,5.5c-0.1,3-2.1,5.3-4.5,5.2h-1.9v-6.8L85.6,65.7z"/>
		<path class="st2" d="M85.5,76.7c0,0-0.1,0-0.1,0l-1.9,0c-0.2,0-0.3-0.1-0.3-0.3v-6.8c0-0.1,0-0.1,0-0.1l2.1-3.9
			c0.1-0.1,0.2-0.2,0.3-0.2c2.6,0.1,4.7,2.7,4.6,5.8c0,1.7-0.7,3.3-1.8,4.3C87.6,76.3,86.5,76.7,85.5,76.7z M83.8,76.1h1.6
			c0.9,0,1.9-0.3,2.6-1.1c1-0.9,1.6-2.3,1.6-3.9c0.1-2.7-1.6-5-3.8-5.2l-2,3.7V76.1z"/>
	</g>
	<g>
		<path class="st2" d="M78.9,70.9c0.1-3,2.1-5.3,4.5-5.2c2.4,0.1,4.4,2.5,4.3,5.5c-0.1,3-2.1,5.3-4.5,5.2
			C80.8,76.3,78.8,73.9,78.9,70.9z"/>
		<path class="st2" d="M83.3,76.7c0,0-0.1,0-0.1,0c-2.6-0.1-4.7-2.7-4.6-5.8l0,0c0-1.7,0.7-3.3,1.8-4.3c0.9-0.8,1.9-1.3,3.1-1.2
			c2.6,0.1,4.7,2.7,4.6,5.8c0,1.7-0.7,3.3-1.8,4.3C85.4,76.3,84.4,76.7,83.3,76.7z M79.2,70.9c-0.1,2.8,1.7,5.1,4,5.2
			c0.9,0,1.9-0.3,2.6-1.1c1-0.9,1.6-2.3,1.6-3.9c0.1-2.8-1.7-5.1-4-5.2c-0.9,0-1.9,0.3-2.6,1.1C79.8,68,79.2,69.4,79.2,70.9
			L79.2,70.9z"/>
	</g>
	<g>
		<path class="st0" d="M89.8,45.9c1.2,0.2,2.7,3.4,2.7,3.4c0.2,0.4,0.3,0.8,0.4,1.2l0.2,1.2l1,6.5c0.1,0.4,0.1,0.8,0.1,0.9l0,0.1
			c0.1,0.7,0.1,1.3,0.1,1.3c0,0.4,0.2,0.7,0.4,0.7s0.3,0.3,0.3,0.7v2.9c0,0.3-0.3,0.6-0.6,0.6l0,0l-0.5,0.4h0
			c-0.4,0.3-0.8,0.4-1.2,0.4H75.8c-0.4,0-0.7-0.3-0.7-0.7l-0.6-19.4c0-0.4,0.3-0.7,0.6-0.7c0,0,0,0,0,0
			C75.2,45.5,86.4,45.4,89.8,45.9z"/>
	</g>
	<g>
		<path class="st3" d="M92,51.5l1,6.7c0.1,0.4-0.2,0.8-0.7,0.9c0,0-0.1,0-0.1,0H80.6c-0.3,0-0.6-0.2-0.7-0.6l-1-6.7
			c-0.1-0.4,0.2-0.8,0.7-0.9c0,0,0.1,0,0.1,0h11.7C91.7,51,92,51.2,92,51.5z"/>
	</g>
	<g>
		<path class="st2" d="M75.8,66.6c-0.6,0-1-0.4-1-1l-0.6-19.5c0-0.3,0.1-0.5,0.3-0.7c0.2-0.2,0.4-0.3,0.7-0.3c0,0,0,0,0,0
			c0.5,0,11.2-0.1,14.6,0.4l0,0c1.3,0.2,2.7,3,2.9,3.6c0.2,0.4,0.3,0.8,0.4,1.2l1.2,7.8c0.1,0.3,0.1,0.8,0.1,0.9l0,0.1
			c0.1,0.7,0.1,1.3,0.1,1.3c0,0.2,0.1,0.3,0.1,0.4c0.4,0,0.6,0.4,0.6,1v2.9c0,0.5-0.4,0.9-0.8,0.9l-0.5,0.4c0,0-0.1,0-0.1,0
			c-0.4,0.3-0.9,0.4-1.3,0.4L75.8,66.6z M77.1,45.8c-1.1,0-1.9,0-1.9,0c-0.1,0-0.2,0-0.3,0.1c-0.1,0.1-0.1,0.2-0.1,0.3l0.6,19.4
			c0,0.2,0.2,0.4,0.4,0.4h16.8c0.4,0,0.7-0.1,1-0.4c0,0,0,0,0.1,0l0.5-0.4c0.1,0,0.1-0.1,0.2-0.1c0.2,0,0.3-0.1,0.3-0.3v-2.9
			c0-0.2-0.1-0.3-0.1-0.4c-0.4,0-0.6-0.5-0.7-1c0,0,0-0.6-0.1-1.3l0-0.1c0-0.1-0.1-0.5-0.1-0.9l-1.2-7.7c-0.1-0.4-0.2-0.7-0.4-1.1
			c-0.6-1.2-1.7-3.1-2.5-3.2l0,0C87.2,45.8,80.5,45.8,77.1,45.8z M94.7,61.5L94.7,61.5L94.7,61.5z"/>
	</g>
	<g>
		<path class="st2" d="M57.3,65.7c2.4,0.1,4.4,2.5,4.3,5.5c-0.1,3-2.1,5.3-4.5,5.2h-1.9v-6.8L57.3,65.7z"/>
		<path class="st2" d="M57.2,76.7c0,0-0.1,0-0.1,0l-1.9,0c-0.2,0-0.3-0.1-0.3-0.3v-6.8c0-0.1,0-0.1,0-0.1l2.1-3.9
			c0.1-0.1,0.2-0.2,0.3-0.2c2.6,0.1,4.7,2.7,4.6,5.8c0,1.7-0.7,3.3-1.8,4.3C59.3,76.3,58.2,76.7,57.2,76.7z M55.5,76.1h1.6
			c0.9,0,1.9-0.3,2.6-1.1c1-0.9,1.6-2.3,1.6-3.9c0.1-2.7-1.6-5-3.8-5.2l-2,3.7V76.1z"/>
	</g>
	<g>
		<path class="st2" d="M50.6,70.9c0.1-3,2.1-5.3,4.5-5.2s4.4,2.5,4.3,5.5c-0.1,3-2.1,5.3-4.5,5.2S50.5,73.9,50.6,70.9z"/>
		<path class="st2" d="M55,76.7c0,0-0.1,0-0.1,0c-2.6-0.1-4.7-2.7-4.6-5.8v0c0-1.7,0.7-3.3,1.8-4.3c0.9-0.8,1.9-1.3,3.1-1.2
			c2.6,0.1,4.7,2.7,4.6,5.8c0,1.7-0.7,3.3-1.8,4.3C57.1,76.3,56.1,76.7,55,76.7z M55,66c-0.9,0-1.8,0.4-2.5,1.1
			c-1,0.9-1.6,2.3-1.6,3.9c0,0,0,0,0,0c-0.1,2.8,1.7,5.1,4,5.2c0.9,0,1.9-0.3,2.6-1.1c1-0.9,1.6-2.3,1.6-3.9
			C59.2,68.4,57.4,66.1,55,66C55.1,66,55,66,55,66z M50.6,70.9L50.6,70.9L50.6,70.9z"/>
	</g>
	<g>
		<path class="st2" d="M25.6,65.6c2.4,0.1,4.4,2.5,4.3,5.5c-0.1,3-2.1,5.3-4.5,5.2h-1.9v-6.8L25.6,65.6z"/>
		<path class="st2" d="M25.5,76.6c0,0-0.1,0-0.1,0l-1.9,0c-0.2,0-0.3-0.1-0.3-0.3v-6.8c0-0.1,0-0.1,0-0.1l2.1-3.9
			c0.1-0.1,0.2-0.2,0.3-0.2c2.6,0.1,4.7,2.7,4.6,5.8c0,1.7-0.7,3.3-1.8,4.3C27.6,76.2,26.5,76.6,25.5,76.6z M23.8,76h1.6
			c0.9,0,1.9-0.3,2.6-1.1c1-0.9,1.6-2.3,1.6-3.9c0.1-2.7-1.6-5-3.8-5.2l-2,3.7V76z"/>
	</g>
	<g>
		<path class="st2" d="M18.9,70.8c0.1-3,2.1-5.3,4.5-5.2s4.4,2.5,4.3,5.5c-0.1,3-2.1,5.3-4.5,5.2C20.8,76.2,18.8,73.8,18.9,70.8z"/>
		<path class="st2" d="M23.3,76.6c0,0-0.1,0-0.1,0c-2.6-0.1-4.7-2.7-4.6-5.8c0-1.7,0.7-3.3,1.8-4.3c0.9-0.8,2-1.3,3.1-1.2
			c2.6,0.1,4.7,2.7,4.6,5.8c0,1.7-0.7,3.3-1.8,4.3C25.4,76.2,24.4,76.6,23.3,76.6z M23.3,65.9c-0.9,0-1.8,0.4-2.5,1.1
			c-1,0.9-1.6,2.3-1.6,3.9c0,0,0,0,0,0c-0.1,2.8,1.7,5.1,4,5.2c0.9,0,1.9-0.3,2.6-1.1c1-0.9,1.6-2.3,1.6-3.9
			C27.5,68.3,25.7,66,23.3,65.9C23.4,65.9,23.4,65.9,23.3,65.9z M18.9,70.8L18.9,70.8L18.9,70.8z"/>
	</g>
	<g>
		<polygon class="st1" points="6,62.5 11.2,69.5 77.3,69.9 77.3,62.2 		"/>
		<path class="st2" d="M77.3,70.2C77.3,70.2,77.3,70.2,77.3,70.2l-66.1-0.4c-0.1,0-0.2,0-0.3-0.1l-5.2-7c-0.1-0.1-0.1-0.2,0-0.3
			c0.1-0.1,0.2-0.2,0.3-0.2l71.3-0.3c0,0,0,0,0,0c0.1,0,0.2,0,0.2,0.1c0.1,0.1,0.1,0.1,0.1,0.2v7.7c0,0.1,0,0.2-0.1,0.2
			C77.5,70.1,77.4,70.2,77.3,70.2z M11.4,69.2L77,69.5v-7.1L6.6,62.8L11.4,69.2z"/>
	</g>
	<g>
		<rect x="4" y="60.8" class="st0" width="57.2" height="3.2"/>
		<path class="st2" d="M61.2,64.4H4c-0.2,0-0.3-0.1-0.3-0.3v-3.2c0-0.2,0.1-0.3,0.3-0.3h57.2c0.2,0,0.3,0.1,0.3,0.3V64
			C61.5,64.2,61.4,64.4,61.2,64.4z M4.3,63.7h56.6v-2.6H4.3V63.7z"/>
	</g>
	<g>
		<path d="M83.9,62c-0.2,0.5-0.2,1-0.2,1.5c0.9-0.3,1.8-0.6,2.6-0.9C85.5,62.3,84.7,62.1,83.9,62z"/>
	</g>
	<g>
		<rect x="73.6" y="62.7" class="st0" width="3.1" height="2.3"/>
	</g>
	<g>
		<path class="st0" d="M67.7,64h-6.5V49.4h16.3L79.1,61l0,0c0.4,0,0.8,0.3,0.8,0.8v0v2.8c0,0.4-0.3,0.7-0.7,0.7l0,0l0,0L78,66.1
			h-6.9C70.4,64.8,69.1,64,67.7,64z"/>
		<path class="st2" d="M78,66.4h-6.9c-0.1,0-0.2-0.1-0.3-0.2c-0.7-1.2-1.9-1.9-3.2-1.9h-6.5c-0.2,0-0.3-0.1-0.3-0.3V49.4
			c0-0.2,0.1-0.3,0.3-0.3h16.3c0.2,0,0.3,0.1,0.3,0.3l1.6,11.3c0.5,0.1,0.8,0.6,0.8,1.1v2.8c0,0.5-0.4,1-0.9,1l-1,0.8
			C78.2,66.4,78.1,66.4,78,66.4z M71.3,65.8h6.6l1-0.8c0.1,0,0.1-0.1,0.2-0.1c0.2,0,0.4-0.2,0.4-0.4v-2.8c0-0.3-0.2-0.5-0.5-0.5
			c-0.2,0-0.3-0.1-0.3-0.3l-1.6-11.3H61.4v14h6.2c0,0,0,0,0,0C69.2,63.7,70.6,64.5,71.3,65.8z"/>
	</g>
	<g>
		<path class="st2" d="M74.5,50c-0.1,0-0.1,0-0.2-0.1l-3.2-2.2c-0.1-0.1-0.2-0.3-0.1-0.4c0.1-0.1,0.3-0.2,0.4-0.1l3.2,2.2
			c0.1,0.1,0.2,0.3,0.1,0.4C74.7,49.9,74.6,50,74.5,50z"/>
	</g>
	<g>
		<path class="st2" d="M77.3,64.1c-0.2,0-0.3-0.1-0.3-0.3v-2.8c0-0.7-0.1-1.4-0.2-2.1L75.7,51c-0.1-0.5-0.5-0.8-1-0.8l-9.9,0
			c-0.4,0-0.8,0.4-0.8,0.8v10.4c0,0.2-0.1,0.3-0.3,0.3c-0.2,0-0.3-0.1-0.3-0.3V51c0-0.8,0.6-1.4,1.4-1.4h9.9c0.8,0,1.4,0.6,1.6,1.3
			l1.2,7.9c0.1,0.7,0.2,1.5,0.2,2.2v2.8C77.6,64,77.5,64.1,77.3,64.1z"/>
	</g>
	<g>
		<path class="st3" d="M65.8,50.9c-0.6,0-1.1,0.5-1.1,1.1v3c0,0.6,0.5,1.2,1.1,1.3l0.7,0.2l1.5,0.3c0.2,0,0.4-0.4,0.4-1V52
			c0-0.6-0.5-1.1-1.1-1.1L65.8,50.9z"/>
	</g>
	<g>
		<path class="st3" d="M71.3,50.9c-0.6,0-1.1,0.5-1.1,1.1v4.1c0,0.6,0.5,1.2,1.1,1.3l2.3,0.5l1.8,0.4c0.4,0.1,0.7-0.3,0.6-0.9
			l-0.3-2l-0.3-2.2L75.2,52c-0.1-0.6-0.6-1.1-1.3-1.1L71.3,50.9z"/>
	</g>
	<g>
		<path class="st2" d="M69.3,62.2c-0.2,0-0.3-0.1-0.3-0.3v-12c0-0.2,0.1-0.3,0.3-0.3c0.2,0,0.3,0.1,0.3,0.3v12
			C69.6,62,69.5,62.2,69.3,62.2z"/>
	</g>
	<g>
		<path class="st10" d="M61,45.3h15c2.1,0,2,1.5,2.4,4.4H61V45.3z"/>
	</g>
	<g>
		<path class="st2" d="M92.3,61.9c0.4,0,0.7,0.2,0.7,0.6c0,0.1,0,0.2,0,0.3l-0.3,1.2c-0.2,0.5-0.6,0.8-1.1,0.9h-7.4
			c-0.5,0-1-0.4-1.1-0.9l-0.3-1.2c-0.1-0.4,0.1-0.7,0.4-0.8c0.1,0,0.2,0,0.2,0L92.3,61.9z"/>
	</g>
	<g>
		<path class="st0" d="M62.1,45.3v4.4h31.7c-0.2-0.9-0.2-1.7-0.4-2.3c-0.3-1.3-0.7-2-2.1-2H62.1z"/>
		<path class="st2" d="M93.8,50H62.1c-0.2,0-0.3-0.1-0.3-0.3v-4.4c0-0.2,0.1-0.3,0.3-0.3h29.3c1.6,0,2.1,0.9,2.4,2.3
			c0.1,0.4,0.1,0.8,0.2,1.3c0,0.3,0.1,0.7,0.2,1c0,0.1,0,0.2-0.1,0.3C94,49.9,93.9,50,93.8,50z M62.4,49.3h31c0-0.2-0.1-0.5-0.1-0.7
			c-0.1-0.5-0.1-0.9-0.2-1.3c-0.3-1.4-0.7-1.8-1.8-1.8h-29V49.3z"/>
	</g>
	<g>
		<path class="st0" d="M61,45.3v4.4h15.3c-0.2-0.9-0.2-1.7-0.4-2.3c-0.3-1.3-0.7-2-2.1-2H61z"/>
		<path class="st2" d="M76.3,50H61c-0.2,0-0.3-0.1-0.3-0.3v-4.4c0-0.2,0.1-0.3,0.3-0.3h12.8c1.6,0,2.1,0.9,2.4,2.3
			c0.1,0.4,0.1,0.8,0.2,1.3c0,0.3,0.1,0.7,0.2,1c0,0.1,0,0.2-0.1,0.3C76.5,49.9,76.4,50,76.3,50z M61.3,49.3h14.6
			c0-0.2-0.1-0.5-0.1-0.7c-0.1-0.5-0.1-0.9-0.2-1.3c-0.3-1.4-0.7-1.8-1.8-1.8H61.3V49.3z"/>
	</g>
	<g>
		<path class="st2" d="M38.6,70.9c0-2.1,2.4-5.2,2.4-5.2s1.4,0,2.2,0c2.4,0.1,4.4,2.5,4.3,5.5c-0.1,3-2.1,5.3-4.5,5.2h-2.2
			C39.3,75.5,38.5,73,38.6,70.9z"/>
		<path class="st2" d="M43,76.7c0,0-0.1,0-0.1,0l-2.2,0c-0.1,0-0.1,0-0.2-0.1c-1.6-1.1-2.3-3.7-2.3-5.8l0,0c0-2.1,2.3-5.3,2.4-5.4
			c0.1-0.1,0.2-0.1,0.2-0.1c0.1,0,1.4,0,2.2,0c2.6,0.1,4.7,2.7,4.6,5.8c0,1.7-0.7,3.3-1.8,4.3C45.1,76.3,44.1,76.7,43,76.7z
			 M40.8,76.1h2.1c0.9,0,1.9-0.3,2.6-1.1c1-0.9,1.6-2.3,1.6-3.9c0.1-2.8-1.7-5.1-4-5.2c-0.6,0-1.6,0-2,0c-0.4,0.6-2.2,3.2-2.2,4.9
			l0,0C38.9,72.8,39.5,75.2,40.8,76.1z"/>
	</g>
	<g>
		<path class="st2" d="M36.4,70.9c0.1-3,2.1-5.3,4.5-5.2s4.4,2.5,4.3,5.5c-0.1,3-2.1,5.3-4.5,5.2S36.4,73.9,36.4,70.9z"/>
		<path class="st2" d="M40.8,76.7c0,0-0.1,0-0.1,0c-2.6-0.1-4.7-2.7-4.6-5.8c0,0,0,0,0,0c0-1.7,0.7-3.3,1.8-4.3
			c0.9-0.8,2-1.3,3.1-1.2c2.6,0.1,4.7,2.7,4.6,5.8c0,1.7-0.7,3.3-1.8,4.3C42.9,76.3,41.9,76.7,40.8,76.7z M36.7,70.9
			c-0.1,2.8,1.7,5.1,4,5.2c0.9,0,1.9-0.3,2.6-1.1c1-0.9,1.6-2.3,1.6-3.9c0.1-2.8-1.7-5.1-4-5.2c-0.9,0-1.9,0.3-2.6,1.1
			C37.3,68,36.8,69.4,36.7,70.9L36.7,70.9z"/>
	</g>
	<g>
		<path class="st0" d="M40.8,74.5c1.6,0,2.9-1.5,3-3.4c0-1.9-1.2-3.5-2.8-3.6c-1.6,0-2.9,1.5-3,3.4C37.9,72.9,39.2,74.5,40.8,74.5z"
			/>
	</g>
	<g>
		<path class="st1" d="M40.8,72.7c0.8,0,1.4-0.7,1.4-1.6c0-0.9-0.6-1.7-1.3-1.7c-0.8,0-1.4,0.7-1.4,1.6S40,72.7,40.8,72.7z"/>
	</g>
	<g>
		<path class="st2" d="M65,70.9c0-2.1,2.4-5.2,2.4-5.2s1.4,0,2.2,0c2.4,0.1,4.4,2.5,4.3,5.5c-0.1,3-2.1,5.3-4.5,5.2h-2.2
			C65.8,75.5,65,73,65,70.9z"/>
		<path class="st2" d="M69.5,76.7c0,0-0.1,0-0.1,0l-2.2,0c-0.1,0-0.1,0-0.2-0.1c-1.6-1-2.3-3.7-2.3-5.8c0,0,0,0,0,0
			c0-2.1,2.3-5.3,2.4-5.4c0.1-0.1,0.2-0.1,0.2-0.1c0.1,0,1.4,0,2.2,0c2.6,0.1,4.7,2.7,4.6,5.8c0,1.7-0.7,3.3-1.8,4.3
			C71.6,76.3,70.5,76.7,69.5,76.7z M67.3,76.1h2.1c0.9,0,1.9-0.3,2.6-1.1c1-0.9,1.6-2.3,1.6-3.9c0.1-2.8-1.7-5.1-4-5.2
			c-0.6,0-1.6,0-2,0c-0.4,0.6-2.2,3.2-2.2,4.9C65.3,72.8,66,75.2,67.3,76.1z"/>
	</g>
	<g>
		<path class="st2" d="M62.9,70.9c0.1-3,2.1-5.3,4.5-5.2c2.4,0.1,4.4,2.5,4.3,5.5c-0.1,3-2.1,5.3-4.5,5.2
			C64.7,76.3,62.8,73.9,62.9,70.9z"/>
		<path class="st2" d="M67.3,76.7c0,0-0.1,0-0.1,0c-2.6-0.1-4.7-2.7-4.6-5.8c0,0,0,0,0,0c0-1.7,0.7-3.3,1.8-4.3
			c0.9-0.8,1.9-1.3,3.1-1.2c2.6,0.1,4.7,2.7,4.6,5.8c0,1.7-0.7,3.3-1.8,4.3C69.4,76.3,68.4,76.7,67.3,76.7z M63.2,70.9
			c0,2.8,1.7,5.1,4,5.2c0.9,0,1.9-0.3,2.6-1.1c1-0.9,1.6-2.3,1.6-3.9c0.1-2.8-1.7-5.1-4-5.2c-0.9,0-1.9,0.3-2.6,1.1
			C63.8,68,63.2,69.4,63.2,70.9z"/>
	</g>
	<g>
		<path class="st0" d="M67.2,74.5c1.6,0,2.9-1.5,3-3.4s-1.2-3.5-2.8-3.6s-2.9,1.5-3,3.4C64.4,72.9,65.6,74.5,67.2,74.5z"/>
	</g>
	<g>
		<path class="st1" d="M67.3,72.7c0.8,0,1.4-0.7,1.4-1.6c0-0.9-0.6-1.7-1.3-1.7c-0.8,0-1.4,0.7-1.4,1.6S66.5,72.7,67.3,72.7z"/>
	</g>
	<g>
		<path class="st2" d="M8.2,70.9c0-2.1,2.4-5.2,2.4-5.2s1.4,0,2.2,0c2.4,0.1,4.4,2.5,4.3,5.5c-0.1,3-2.1,5.3-4.5,5.2h-2.2
			C8.9,75.5,8.1,73,8.2,70.9z"/>
		<path class="st2" d="M12.6,76.7c0,0-0.1,0-0.1,0l-2.2,0c-0.1,0-0.1,0-0.2-0.1c-1.6-1-2.3-3.7-2.3-5.8l0,0c0-2.1,2.3-5.3,2.4-5.4
			c0.1-0.1,0.2-0.1,0.2-0.1c0.1,0,1.4,0,2.2,0c2.6,0.1,4.7,2.7,4.6,5.8c0,1.7-0.7,3.3-1.8,4.3C14.7,76.3,13.6,76.7,12.6,76.7z
			 M10.4,76.1h2.1c0.9,0,1.9-0.3,2.6-1.1c1-0.9,1.6-2.3,1.6-3.9c0.1-2.8-1.7-5.1-4-5.2c-0.6,0-1.6,0-2,0c-0.4,0.6-2.2,3.2-2.2,4.9
			l0,0C8.4,72.8,9.1,75.2,10.4,76.1z"/>
	</g>
	<g>
		<path class="st2" d="M6,70.9c0.1-3,2.1-5.3,4.5-5.2s4.4,2.5,4.3,5.5c-0.1,3-2.1,5.3-4.5,5.2S5.9,73.9,6,70.9z"/>
		<path class="st2" d="M10.4,76.7c0,0-0.1,0-0.1,0c-2.6-0.1-4.7-2.7-4.6-5.8c0,0,0,0,0,0c0-1.7,0.7-3.3,1.8-4.3
			c0.9-0.8,2-1.3,3.1-1.2c2.6,0.1,4.7,2.7,4.6,5.8c0,1.7-0.7,3.3-1.8,4.3C12.5,76.3,11.5,76.7,10.4,76.7z M6.3,70.9
			c-0.1,2.8,1.7,5.1,4,5.2c0.9,0,1.9-0.3,2.6-1.1c1-0.9,1.6-2.3,1.6-3.9c0.1-2.8-1.7-5.1-4-5.2c-0.9,0-1.9,0.3-2.6,1.1
			C6.9,68,6.3,69.4,6.3,70.9L6.3,70.9z"/>
	</g>
	<g>
		<path class="st0" d="M10.3,74.5c1.6,0,2.9-1.5,3-3.4c0-1.9-1.2-3.5-2.8-3.6S7.6,69,7.5,71C7.5,72.9,8.8,74.5,10.3,74.5z"/>
	</g>
	<g>
		<path class="st1" d="M10.4,72.7c0.8,0,1.4-0.7,1.4-1.6c0-0.9-0.6-1.7-1.3-1.7c-0.8,0-1.4,0.7-1.4,1.6S9.6,72.7,10.4,72.7z"/>
	</g>
	<g>
		<path class="st0" d="M19.2,64.1h10.3c0.6,0,1.1,0.5,1.1,1.1v4c0,0.6-0.5,1.1-1.1,1.1H19.2c-0.6,0-1.1-0.5-1.1-1.1v-4
			C18.1,64.6,18.6,64.1,19.2,64.1z"/>
	</g>
	<g>
		<path class="st2" d="M29.5,70.7H19.2c-0.8,0-1.4-0.6-1.4-1.4v-4c0-0.8,0.6-1.4,1.4-1.4h10.3c0.8,0,1.4,0.6,1.4,1.4v4
			C31,70,30.3,70.7,29.5,70.7z M19.2,64.4c-0.4,0-0.8,0.4-0.8,0.8v4c0,0.4,0.4,0.8,0.8,0.8h10.3c0.4,0,0.8-0.4,0.8-0.8v-4
			c0-0.4-0.4-0.8-0.8-0.8H19.2z"/>
	</g>
	<g>
		<path class="st0" d="M29.5,64.1h0.4c0.6,0,1.1,0.5,1.1,1.1v4c0,0.6-0.5,1.1-1.1,1.1h-0.4c-0.6,0-1.1-0.5-1.1-1.1v-4
			C28.4,64.6,28.9,64.1,29.5,64.1z"/>
	</g>
	<g>
		<path class="st2" d="M29.9,70.7h-0.4c-0.8,0-1.4-0.6-1.4-1.4v-4c0-0.8,0.6-1.4,1.4-1.4h0.4c0.8,0,1.4,0.6,1.4,1.4v4
			C31.4,70,30.7,70.7,29.9,70.7z M29.5,64.4c-0.4,0-0.8,0.4-0.8,0.8v4c0,0.4,0.4,0.8,0.8,0.8h0.4c0.4,0,0.8-0.4,0.8-0.8v-4
			c0-0.4-0.4-0.8-0.8-0.8H29.5z"/>
	</g>
	<g>
		<path class="st0" d="M71.7,68.1c0-0.6-0.2-1.3-0.5-1.9h9v6h-8.5V68.1z"/>
		<path class="st2" d="M80.2,72.6h-8.5c-0.2,0-0.3-0.1-0.3-0.3v-4.2c0-0.6-0.1-1.2-0.4-1.7c-0.1-0.1,0-0.2,0-0.3
			c0.1-0.1,0.2-0.2,0.3-0.2h9c0.2,0,0.3,0.1,0.3,0.3v6C80.6,72.4,80.4,72.6,80.2,72.6z M72,71.9h7.9v-5.4h-8.2
			c0.2,0.5,0.3,1,0.3,1.5l0,0V71.9z"/>
	</g>
	<g>
		<path class="st0" d="M47.4,64.1h10.3c0.6,0,1.1,0.5,1.1,1.1v4c0,0.6-0.5,1.1-1.1,1.1H47.4c-0.6,0-1.1-0.5-1.1-1.1v-4
			C46.3,64.6,46.8,64.1,47.4,64.1z"/>
	</g>
	<g>
		<path class="st2" d="M57.7,70.7H47.4c-0.8,0-1.4-0.6-1.4-1.4v-4c0-0.8,0.6-1.4,1.4-1.4h10.3c0.8,0,1.4,0.6,1.4,1.4v4
			C59.2,70,58.5,70.7,57.7,70.7z M47.4,64.4c-0.4,0-0.8,0.4-0.8,0.8v4c0,0.4,0.4,0.8,0.8,0.8h10.3c0.4,0,0.8-0.4,0.8-0.8v-4
			c0-0.4-0.4-0.8-0.8-0.8H47.4z"/>
	</g>
	<g>
		<path class="st0" d="M57.7,64.1h0.4c0.6,0,1.1,0.5,1.1,1.1v4c0,0.6-0.5,1.1-1.1,1.1h-0.4c-0.6,0-1.1-0.5-1.1-1.1v-4
			C56.6,64.6,57.1,64.1,57.7,64.1z"/>
	</g>
	<g>
		<path class="st2" d="M58.1,70.7h-0.4c-0.8,0-1.4-0.6-1.4-1.4v-4c0-0.8,0.6-1.4,1.4-1.4h0.4c0.8,0,1.4,0.6,1.4,1.4v4
			C59.6,70,58.9,70.7,58.1,70.7z M57.7,64.4c-0.4,0-0.8,0.4-0.8,0.8v4c0,0.4,0.4,0.8,0.8,0.8h0.4c0.4,0,0.8-0.4,0.8-0.8v-4
			c0-0.4-0.4-0.8-0.8-0.8H57.7z"/>
	</g>
	<g>
		<path class="st0" d="M78.9,66.3h15.6c0.4,0,0.7,0.3,0.7,0.7v4.6c0,0.4-0.3,0.7-0.7,0.7H78.9c-0.4,0-0.7-0.3-0.7-0.7v-4.6
			C78.2,66.6,78.5,66.3,78.9,66.3z"/>
	</g>
	<g>
		<path class="st2" d="M94.5,72.6H78.9c-0.6,0-1-0.4-1-1v-4.6c0-0.6,0.4-1,1-1h15.6c0.6,0,1,0.4,1,1v4.6
			C95.5,72.1,95,72.6,94.5,72.6z M78.9,66.6c-0.2,0-0.4,0.2-0.4,0.4v4.6c0,0.2,0.2,0.4,0.4,0.4h15.6c0.2,0,0.4-0.2,0.4-0.4v-4.6
			c0-0.2-0.2-0.4-0.4-0.4H78.9z"/>
	</g>
	<g>
		<path class="st3" d="M94.6,67.5h0.6c0.4,0,0.7,0.3,0.7,0.7v1.2c0,0.4-0.3,0.7-0.7,0.7h-0.6c-0.4,0-0.7-0.3-0.7-0.7v-1.2
			C93.9,67.8,94.2,67.5,94.6,67.5z"/>
	</g>
	<g>
		<path class="st2" d="M91.5,67.7c0.4,0,0.7,0.3,0.7,0.6c0,0.1,0,0.2,0,0.3L92,69.5c-0.1,0.5-0.6,0.9-1.1,0.9h-5.4
			c-0.5,0-1-0.4-1.1-0.9L84,68.6c-0.1-0.4,0.1-0.7,0.4-0.8c0.1,0,0.2,0,0.3,0H91.5z"/>
	</g>
	<g>
		<path class="st3" d="M77.5,67.5h4.7c0.4,0,0.7,0.3,0.7,0.7v1.2c0,0.4-0.3,0.7-0.7,0.7h-4.7c-0.4,0-0.7-0.3-0.7-0.7v-1.2
			C76.8,67.8,77.1,67.5,77.5,67.5z"/>
	</g>
</g>
</svg>
