<?xml version="1.0" encoding="utf-8"?>
<!-- Generator: Adobe Illustrator 24.0.1, SVG Export Plug-In . SVG Version: 6.00 Build 0)  -->
<svg version="1.1" id="Layer_1" xmlns="http://www.w3.org/2000/svg" xmlns:xlink="http://www.w3.org/1999/xlink" x="0px" y="0px"
	 viewBox="0 0 128.7 102.5" style="enable-background:new 0 0 128.7 102.5;" xml:space="preserve">
<style type="text/css">
	.st0{fill:#00B4D0;}
	.st1{opacity:0.2;}
	.st2{opacity:0.6;fill:url(#SVGID_3_);}
	.st3{fill:#FFFFFF;}
	.st4{fill:#381460;}
	.st5{fill:#58595B;}
	.st6{fill:#808184;}
	.st7{opacity:0.1;}
	.st8{opacity:0.4;fill:#808184;}
	.st9{fill:#FDFEFF;}
	.st10{fill:none;stroke:#FFFFFF;stroke-miterlimit:10;}
	.st11{fill-rule:evenodd;clip-rule:evenodd;fill:#381460;}
	.st12{fill-rule:evenodd;clip-rule:evenodd;fill:#FFFFFF;}
	.st13{fill:none;stroke:#381460;stroke-width:2;stroke-miterlimit:10;}
	.st14{opacity:0.1;fill:#FFFFFF;}
	.st15{fill:#F7FCFC;}
	.st16{opacity:0.86;}
	.st17{opacity:0.8;}
	.st18{opacity:0.6;fill:url(#SVGID_8_);}
	.st19{opacity:0.6;fill:url(#SVGID_13_);}
</style>
<g class="st1">
	<path class="st0" d="M0.6,102.5c0-4.3-0.1-10.7-0.3-19.1S0,68.7,0,64.7C0,56.8,0.2,50,0.7,44.3s1.5-11.5,3.1-17.4
		s3.8-10.7,6.6-14.4s6.6-6.7,11.4-9S32.4,0,39,0l12.8,25.6c-9.2,0-15.8,2-19.7,6s-5.9,10.5-5.9,19.6h25.6v51.3H0.6z M77.5,102.5
		c0-4.3-0.1-10.7-0.3-19.1c-0.2-8.5-0.3-14.7-0.3-18.7c0-7.9,0.2-14.7,0.7-20.3s1.5-11.5,3.1-17.4s3.8-10.7,6.6-14.4s6.6-6.7,11.4-9
		S109.2,0,115.9,0l12.8,25.6c-9.2,0-15.8,2-19.7,6c-3.9,4-5.9,10.5-5.9,19.6h25.6v51.3H77.5z"/>
</g>
</svg>
